<svg xmlns="http://www.w3.org/2000/svg" version="1.0" preserveAspectRatio="xMidYMid meet" viewBox="275 234.02 202.05 283.98">
<metadata>
Created by potrace 1.16, written by Peter Selinger 2001-2019
</metadata>
<g transform="translate(0.000000,752.000000) scale(0.100000,-0.100000)" fill="#000000" stroke="none">
<path d="M2885 5168 c-49 -17 -92 -55 -114 -101 l-21 -43 0 -1268 c0 -1226 1 -1268 19 -1304 24 -47 56 -77 103 -97 33 -13 143 -15 889 -15 949 0 885 -5 953 70 19 21 39 56 45 77 16 56 15 2478 -1 2540 -14 59 -78 127 -133 142 -54 15 -1697 14 -1740 -1z m1717 -28 c45 -13 93 -51 116 -94 16 -29 17 -119 17 -1276 0 -685 -3 -1257 -8 -1272 -10 -38 -65 -98 -104 -114 -26 -11 -189 -14 -868 -14 -815 0 -837 1 -875 20 -21 11 -51 36 -67 57 l-28 36 -3 1260 -2 1260 21 44 c22 45 61 79 107 93 41 13 1649 12 1694 0z"/>
<path d="M2981 4973 c-48 -58 -38 -147 14 -127 14 6 16 3 10 -14 -5 -19 -2 -22 20 -22 22 0 25 3 20 21 -5 14 -3 19 4 15 6 -4 20 -2 31 4 35 19 25 85 -23 138 -28 30 -41 28 -76 -15z"/>
<path d="M4463 4983 c-46 -51 -58 -114 -23 -133 11 -6 25 -8 30 -5 6 3 10 -3 10 -14 0 -15 6 -21 21 -21 17 0 20 5 16 20 -4 17 -2 20 13 15 38 -12 62 42 39 88 -14 28 -60 77 -71 77 -5 0 -20 -12 -35 -27z"/>
<path d="M3250 4862 c-74 -78 -110 -149 -110 -218 0 -90 64 -133 129 -87 l24 16 -7 -37 c-4 -21 -10 -44 -13 -52 -4 -11 5 -14 42 -14 51 0 49 -5 29 68 -6 22 9 31 21 12 3 -5 24 -10 45 -10 139 0 89 247 -72 362 l-30 21 -58 -61z"/>
<path d="M4136 4863 c-32 -32 -71 -85 -88 -120 -26 -53 -30 -71 -26 -115 4 -38 12 -57 28 -70 27 -22 73 -23 104 -2 l24 15 -9 -42 c-6 -23 -12 -46 -15 -51 -3 -4 17 -8 45 -8 48 0 50 1 42 23 -4 12 -11 35 -15 50 -7 28 -6 28 16 13 34 -24 81 -20 109 10 53 56 18 189 -75 286 -73 76 -75 76 -140 11z"/>
<path d="M3691 4552 c-74 -76 -111 -148 -111 -218 0 -90 64 -133 129 -87 24 16 24 16 18 -14 -3 -17 -9 -41 -12 -54 -6 -23 -3 -24 40 -24 l46 0 -6 33 c-3 18 -9 40 -12 48 -6 16 12 19 22 4 3 -5 24 -10 45 -10 137 0 89 247 -71 361 l-29 21 -59 -60z"/>
<path d="M3246 4238 c-73 -80 -106 -147 -106 -214 0 -90 64 -133 129 -87 l24 16 -7 -37 c-4 -21 -10 -44 -13 -52 -4 -11 5 -14 42 -14 51 0 49 -5 29 68 -6 22 9 31 21 12 3 -5 24 -10 45 -10 124 0 102 203 -36 329 -31 28 -59 51 -64 51 -5 0 -33 -28 -64 -62z"/>
<path d="M4136 4243 c-32 -32 -71 -85 -88 -120 -26 -53 -30 -71 -26 -115 4 -38 12 -57 28 -70 27 -22 73 -23 104 -2 l24 15 -9 -42 c-6 -23 -12 -46 -15 -51 -3 -4 17 -8 45 -8 48 0 50 1 42 23 -4 12 -11 35 -15 50 -7 28 -6 28 16 13 34 -24 81 -20 109 10 53 56 18 189 -75 286 -73 76 -75 76 -140 11z"/>
<path d="M3275 3646 c3 -12 8 -33 11 -49 l7 -27 -38 16 c-31 12 -43 13 -67 3 -16 -6 -33 -20 -38 -30 -18 -32 -11 -116 12 -166 24 -51 132 -173 154 -173 24 0 119 106 147 163 43 88 34 181 -20 206 -31 14 -42 14 -77 -4 -28 -15 -28 -15 -22 10 19 79 22 72 -29 72 -42 0 -46 -2 -40 -21z"/>
<path d="M4150 3664 c0 -2 4 -13 9 -26 4 -13 11 -36 15 -53 7 -28 7 -29 -11 -12 -11 9 -33 20 -51 23 -26 5 -36 1 -63 -25 -29 -29 -31 -36 -27 -84 2 -29 14 -74 26 -98 26 -54 127 -169 148 -169 26 0 110 88 143 149 40 76 48 135 24 180 -24 45 -64 59 -108 38 l-33 -16 13 48 12 47 -48 0 c-27 0 -49 -1 -49 -2z"/>
<path d="M3714 3338 c4 -13 9 -36 13 -52 l6 -28 -32 17 c-39 20 -85 12 -106 -18 -23 -33 -19 -114 9 -172 25 -55 130 -175 152 -175 24 0 119 105 147 163 37 76 38 157 2 192 -28 29 -70 32 -104 8 -24 -16 -24 -16 -17 10 20 85 23 77 -29 77 -44 0 -47 -1 -41 -22z"/>
<path d="M3274 3028 c4 -13 9 -36 13 -52 6 -29 6 -29 -18 -13 -34 24 -76 21 -104 -8 -34 -33 -34 -110 -1 -180 23 -50 129 -175 148 -175 5 0 34 23 63 51 105 100 149 246 90 304 -28 29 -70 32 -104 8 -24 -16 -24 -16 -17 10 20 85 23 77 -29 77 -44 0 -47 -1 -41 -22z"/>
<path d="M4166 2998 c7 -29 14 -54 14 -56 0 -2 -12 6 -26 17 -30 23 -71 27 -95 8 -47 -36 -51 -107 -11 -192 29 -61 127 -175 151 -175 21 0 114 102 146 161 23 42 29 67 30 113 0 51 -4 61 -28 82 -32 27 -73 31 -104 9 -20 -14 -21 -14 -11 27 5 23 11 45 14 50 3 4 -17 8 -45 8 l-49 0 14 -52z"/>
<path d="M3005 2689 c5 -15 4 -19 -4 -15 -6 4 -20 4 -31 1 -38 -12 -21 -104 28 -148 26 -23 51 -12 81 37 36 57 20 129 -25 112 -12 -4 -14 -1 -9 14 5 17 2 20 -20 20 -22 0 -25 -3 -20 -21z"/>
<path d="M4480 2695 c0 -8 -8 -15 -18 -15 -61 0 -53 -88 12 -149 l26 -25 30 29 c59 56 62 154 5 143 -18 -4 -21 -1 -17 14 3 13 -1 18 -17 18 -12 0 -21 -6 -21 -15z"/>
</g>
</svg>