<svg xmlns="http://www.w3.org/2000/svg" version="1.0" preserveAspectRatio="xMidYMid meet" viewBox="275 235.17 201 282.7">

<g transform="translate(0.000000,752.000000) scale(0.100000,-0.100000)" fill="#000000" stroke="none">
<path d="M2875 5151 c-49 -23 -89 -64 -109 -113 -14 -33 -16 -179 -16 -1285 0 -1186 1 -1250 19 -1288 22 -50 79 -101 128 -115 27 -8 293 -10 885 -8 l846 3 43 30 c23 17 53 50 66 74 l23 44 0 1262 0 1262 -23 44 c-13 24 -43 58 -66 74 l-43 30 -856 2 c-817 3 -859 2 -897 -16z m1782 -33 c24 -16 49 -44 62 -70 l21 -44 0 -1249 0 -1249 -21 -44 c-13 -26 -38 -54 -62 -70 l-41 -27 -840 -3 c-934 -3 -894 -6 -955 63 -16 19 -35 51 -40 72 -15 52 -15 2463 -1 2515 14 50 55 97 105 119 38 18 82 19 886 16 l845 -2 41 -27z"/>
<path d="M2980 4958 c-22 -30 -30 -51 -28 -73 3 -26 7 -30 34 -30 24 0 30 -4 26 -17 -3 -12 1 -18 13 -18 11 0 15 6 11 18 -5 16 -2 18 23 14 51 -7 53 50 4 116 -13 17 -31 32 -38 32 -8 0 -29 -19 -45 -42z"/>
<path d="M4468 4973 c-56 -59 -56 -131 -1 -120 20 4 24 1 20 -14 -3 -12 0 -19 9 -19 8 0 14 8 14 18 0 13 8 18 27 17 30 0 39 19 29 60 -6 24 -52 85 -65 85 -4 0 -19 -12 -33 -27z"/>
<path d="M3697 4856 c-107 -111 -143 -231 -88 -290 30 -31 55 -33 100 -5 l34 20 -6 -29 c-3 -16 -9 -41 -13 -56 -6 -25 -4 -26 31 -26 l37 0 -6 38 c-4 20 -10 46 -13 56 -5 18 -4 18 22 -2 79 -62 158 21 125 131 -19 65 -85 158 -140 197 l-30 22 -53 -56z"/>
<path d="M3724 3014 c4 -15 10 -40 13 -57 l6 -31 -28 22 c-71 56 -147 -1 -131 -99 11 -71 69 -161 145 -225 l31 -26 55 56 c58 58 115 160 115 207 0 94 -69 139 -135 87 l-28 -22 7 28 c22 87 22 86 -19 86 -35 0 -37 -1 -31 -26z"/>
<path d="M3013 2681 c4 -16 0 -19 -20 -18 -55 4 -55 -57 -1 -118 l31 -36 29 28 c59 56 59 143 0 128 -20 -5 -23 -3 -17 15 5 15 2 20 -10 20 -12 0 -16 -6 -12 -19z"/>
<path d="M4487 2679 c5 -17 2 -19 -20 -14 -34 9 -52 -21 -36 -62 17 -44 58 -93 73 -87 29 11 68 81 64 116 -3 29 -7 33 -30 33 -20 -1 -28 4 -28 17 0 10 -6 18 -14 18 -9 0 -12 -7 -9 -21z"/>
</g>
</svg>