<svg xmlns="http://www.w3.org/2000/svg" version="1.0" preserveAspectRatio="xMidYMid meet" viewBox="274.94 234.06 201.06 283.8">

<g transform="translate(0.000000,752.000000) scale(0.100000,-0.100000)" fill="#000000" stroke="none">
<path d="M2896 5168 c-52 -14 -121 -82 -135 -133 -16 -58 -15 -2499 0 -2546 18 -51 55 -97 102 -122 l42 -22 813 -3 c534 -2 833 1 870 8 69 12 118 49 150 110 l22 44 0 1259 c0 1225 -1 1259 -19 1296 -26 50 -81 97 -128 110 -51 15 -1663 13 -1717 -1z m1742 -32 c37 -19 68 -55 87 -98 13 -33 15 -181 15 -1280 0 -1192 -1 -1245 -19 -1284 -10 -23 -36 -54 -57 -70 l-37 -29 -859 -3 c-840 -2 -859 -2 -897 18 -46 23 -74 59 -90 115 -15 54 -16 2463 -1 2517 13 47 49 90 92 111 30 15 121 17 886 17 713 0 857 -2 880 -14z"/>
<path d="M2998 4983 c-49 -53 -61 -100 -32 -124 12 -10 20 -10 35 -1 18 11 19 10 13 -13 -5 -19 -2 -25 11 -25 14 0 16 6 10 28 -5 22 -4 25 6 15 20 -20 38 -15 51 12 14 30 -2 71 -41 109 l-27 26 -26 -27z"/>
<path d="M4463 4975 c-30 -37 -42 -70 -35 -97 6 -23 31 -31 50 -16 13 11 15 9 10 -14 -4 -20 -1 -28 8 -28 8 0 14 9 14 21 0 15 4 19 16 15 23 -9 44 12 44 44 0 27 -52 110 -70 110 -5 0 -22 -16 -37 -35z"/>
<path d="M3687 4851 c-30 -33 -65 -81 -78 -108 -31 -61 -33 -141 -5 -172 25 -28 75 -27 111 1 l28 22 -6 -31 c-3 -17 -9 -42 -13 -57 -6 -25 -4 -26 31 -26 40 0 39 -6 18 90 l-6 25 25 -22 c16 -15 37 -23 61 -23 79 0 99 104 41 211 -31 55 -117 149 -138 149 -8 0 -38 -27 -69 -59z"/>
<path d="M3688 3922 c-62 -65 -94 -121 -104 -181 -16 -98 60 -155 131 -99 l28 22 -6 -31 c-3 -17 -9 -42 -13 -57 -6 -25 -4 -26 31 -26 41 0 41 -1 19 86 l-7 28 28 -22 c66 -52 135 -7 135 87 0 67 -127 251 -173 251 -8 0 -39 -26 -69 -58z"/>
<path d="M3723 3028 c3 -13 9 -41 13 -63 l7 -40 -24 22 c-39 35 -72 38 -105 10 -25 -22 -29 -32 -28 -79 0 -36 9 -69 27 -104 27 -54 121 -164 140 -164 6 0 36 26 67 58 113 116 142 247 66 298 -31 20 -67 13 -97 -19 l-21 -22 8 40 c4 22 11 50 15 63 8 21 6 22 -32 22 -38 0 -41 -2 -36 -22z"/>
<path d="M3014 2684 c6 -23 5 -24 -15 -14 -32 18 -54 -8 -45 -52 8 -42 59 -100 81 -92 18 7 65 84 65 107 0 28 -29 48 -51 36 -18 -9 -19 -7 -13 15 5 20 2 26 -11 26 -13 0 -16 -6 -11 -26z"/>
<path d="M4486 2683 c6 -24 5 -26 -8 -15 -19 15 -46 6 -50 -16 -7 -32 4 -61 37 -99 l33 -38 22 20 c46 41 65 110 36 134 -7 6 -21 9 -30 5 -12 -4 -16 0 -16 15 0 12 -6 21 -15 21 -12 0 -14 -7 -9 -27z"/>
</g>
</svg>