<svg xmlns="http://www.w3.org/2000/svg" version="1.0" preserveAspectRatio="xMidYMid meet" viewBox="275 235.23 201 282.64">

<g transform="translate(0.000000,752.000000) scale(0.100000,-0.100000)" fill="#000000" stroke="none">
<path d="M2875 5156 c-44 -20 -83 -60 -105 -108 -19 -42 -20 -79 -20 -1293 0 -1188 1 -1252 19 -1290 22 -50 79 -101 128 -115 27 -8 292 -10 885 -8 l846 3 43 30 c23 17 53 50 66 74 l23 44 0 1262 0 1262 -23 44 c-13 24 -43 58 -66 74 l-43 30 -861 2 c-702 2 -868 0 -892 -11z m1782 -38 c24 -16 49 -44 62 -70 l21 -44 0 -1249 0 -1249 -21 -44 c-13 -26 -38 -54 -62 -70 l-41 -27 -840 -3 c-934 -3 -894 -6 -955 63 -16 19 -35 51 -40 72 -15 53 -15 2463 0 2516 13 49 72 114 113 126 18 5 388 9 877 8 l845 -2 41 -27z"/>
<path d="M2980 4958 c-22 -30 -30 -51 -28 -73 3 -27 6 -30 34 -29 26 1 31 -1 27 -17 -4 -13 0 -19 12 -19 11 0 15 6 11 18 -5 16 -2 18 23 14 51 -7 53 50 4 116 -13 17 -31 32 -38 32 -8 0 -29 -19 -45 -42z"/>
<path d="M4468 4973 c-56 -59 -56 -131 -1 -120 20 4 24 1 20 -14 -3 -12 0 -19 9 -19 8 0 14 8 14 18 0 13 8 18 28 17 24 0 27 4 30 35 2 27 -4 44 -28 73 -17 20 -35 37 -39 37 -4 0 -19 -12 -33 -27z"/>
<path d="M3257 4858 c-65 -68 -106 -143 -114 -206 -5 -42 -2 -52 22 -80 15 -18 36 -32 46 -32 25 0 75 26 83 42 6 14 -1 -51 -11 -89 -5 -21 -1 -23 32 -23 41 0 41 -1 19 86 l-7 28 28 -22 c57 -45 121 -13 132 66 9 69 -67 205 -148 263 l-31 22 -51 -55z"/>
<path d="M4133 4846 c-73 -77 -103 -138 -103 -206 0 -87 64 -127 125 -78 l28 22 -6 -41 c-4 -23 -10 -48 -13 -57 -5 -13 2 -16 36 -16 36 0 41 2 35 18 -4 9 -9 35 -13 56 l-5 40 28 -22 c91 -72 160 44 102 172 -25 53 -103 148 -138 167 -14 7 -29 -4 -76 -55z"/>
<path d="M3285 3008 c4 -18 9 -44 12 -57 l6 -25 -28 22 c-48 38 -103 26 -125 -28 -15 -37 -7 -97 22 -153 22 -43 124 -157 141 -157 39 0 147 137 168 213 29 110 -48 187 -126 125 l-27 -21 7 34 c4 19 9 44 12 57 5 20 1 22 -32 22 -36 0 -36 0 -30 -32z"/>
<path d="M4164 3024 c3 -9 9 -34 13 -57 l6 -41 -28 22 c-36 29 -76 28 -103 -1 -31 -33 -30 -112 2 -176 30 -58 122 -161 144 -161 25 0 121 106 148 163 46 100 22 197 -50 197 -17 0 -42 -7 -54 -16 -20 -14 -22 -14 -22 3 0 10 4 33 9 51 l10 32 -41 0 c-33 0 -39 -3 -34 -16z"/>
<path d="M3013 2680 c4 -17 2 -20 -14 -15 -25 8 -49 -11 -49 -40 0 -25 36 -83 62 -99 39 -24 108 92 78 129 -9 11 -22 14 -38 10 -20 -5 -23 -3 -17 15 5 15 2 20 -10 20 -13 0 -16 -6 -12 -20z"/>
<path d="M4487 2681 c4 -15 0 -18 -20 -14 -19 4 -28 -1 -37 -17 -10 -18 -8 -30 12 -67 36 -70 52 -76 94 -30 29 31 35 44 32 75 -3 33 -6 37 -30 37 -20 -1 -28 4 -28 17 0 10 -6 18 -14 18 -9 0 -12 -7 -9 -19z"/>
</g>
</svg>