<svg xmlns="http://www.w3.org/2000/svg" version="1.0" preserveAspectRatio="xMidYMid meet" viewBox="274.94 235.28 201.07 283.58">

<g transform="translate(0.000000,752.000000) scale(0.100000,-0.100000)" fill="#000000" stroke="none">
<path d="M2896 5158 c-51 -14 -121 -84 -135 -134 -16 -57 -15 -2498 0 -2545 18 -51 55 -97 102 -122 l42 -22 819 -3 c552 -2 836 1 871 8 63 13 121 58 146 114 18 39 19 97 19 1299 0 1381 4 1283 -59 1350 -60 66 -1 62 -926 64 -560 1 -853 -2 -879 -9z m1742 -32 c37 -19 68 -55 87 -98 13 -33 15 -181 15 -1280 0 -1192 -1 -1245 -19 -1284 -10 -23 -36 -54 -57 -70 l-37 -29 -859 -3 c-840 -2 -859 -2 -897 18 -48 24 -76 62 -91 121 -7 31 -10 410 -8 1281 l3 1236 30 43 c60 85 -10 79 953 79 713 0 857 -2 880 -14z"/>
<path d="M2998 4973 c-49 -53 -61 -100 -32 -124 12 -10 20 -10 35 -1 18 11 19 10 13 -13 -5 -19 -2 -25 11 -25 14 0 16 6 10 28 -5 22 -4 25 6 15 20 -20 38 -15 51 12 14 30 -2 71 -41 109 l-27 26 -26 -27z"/>
<path d="M4472 4977 c-12 -12 -27 -38 -35 -57 -24 -57 5 -102 42 -67 11 10 13 7 9 -15 -4 -19 -1 -28 8 -28 8 0 14 9 14 21 0 15 4 19 16 15 43 -17 57 45 23 100 -30 50 -52 58 -77 31z"/>
<path d="M3247 4841 c-30 -33 -65 -81 -78 -108 -31 -61 -33 -141 -5 -172 25 -28 75 -27 111 1 l28 22 -6 -31 c-3 -17 -9 -42 -13 -57 -6 -25 -4 -26 31 -26 40 0 39 -6 18 90 l-6 25 25 -22 c16 -15 37 -23 61 -23 75 0 98 100 46 201 -24 48 -125 159 -144 159 -7 0 -37 -27 -68 -59z"/>
<path d="M4131 4843 c-70 -78 -101 -143 -101 -210 0 -40 5 -58 20 -73 27 -27 77 -26 108 3 l25 22 -6 -45 c-3 -25 -9 -52 -12 -60 -4 -12 4 -15 35 -15 29 0 39 4 35 13 -3 8 -8 32 -12 55 l-6 40 24 -16 c13 -10 38 -17 55 -17 74 0 97 99 48 199 -29 58 -123 161 -147 161 -9 0 -38 -26 -66 -57z"/>
<path d="M3688 3912 c-62 -65 -94 -121 -104 -181 -16 -98 60 -155 131 -99 l28 22 -6 -31 c-3 -17 -9 -42 -13 -57 -6 -25 -4 -26 31 -26 41 0 41 -1 19 86 l-7 28 28 -22 c66 -52 135 -7 135 88 0 63 -129 250 -173 250 -8 0 -39 -26 -69 -58z"/>
<path d="M3284 3009 c3 -16 9 -44 12 -61 l7 -33 -24 22 c-39 35 -72 38 -105 10 -25 -22 -29 -32 -29 -79 0 -35 8 -69 23 -99 24 -50 127 -169 145 -169 6 0 36 26 67 58 113 116 142 247 66 298 -31 19 -67 13 -98 -18 l-21 -21 6 24 c3 13 9 40 12 59 6 36 6 36 -30 37 -36 1 -37 0 -31 -28z"/>
<path d="M4164 3023 c4 -8 9 -33 12 -54 l7 -40 -36 21 c-41 24 -79 19 -102 -13 -24 -34 -19 -115 10 -173 25 -50 125 -164 144 -164 5 0 33 23 62 52 112 112 144 270 62 307 -28 13 -59 7 -87 -18 -18 -15 -19 -15 -13 26 4 23 9 48 13 56 4 11 -4 14 -36 14 -32 0 -40 -3 -36 -14z"/>
<path d="M3014 2674 c6 -22 5 -24 -12 -15 -32 17 -56 -8 -48 -50 9 -47 56 -102 79 -93 20 7 67 83 67 107 0 28 -29 48 -51 36 -18 -9 -19 -7 -13 15 5 20 2 26 -11 26 -13 0 -16 -6 -11 -26z"/>
<path d="M4486 2674 c6 -24 5 -25 -13 -16 -22 12 -40 4 -43 -18 -6 -37 2 -59 34 -96 l34 -39 22 20 c46 41 65 110 36 134 -7 6 -21 9 -30 5 -12 -4 -16 0 -16 15 0 12 -6 21 -15 21 -12 0 -14 -7 -9 -26z"/>
</g>
</svg>