<svg xmlns="http://www.w3.org/2000/svg" version="1.0" preserveAspectRatio="xMidYMid meet" viewBox="275.18 235 200.82 282.92">

<g transform="translate(0.000000,752.000000) scale(0.100000,-0.100000)" fill="#000000" stroke="none">
<path d="M2859 5147 c-29 -16 -54 -40 -74 -72 l-30 -48 -3 -1250 c-1 -860 1 -1261 8 -1289 6 -21 27 -57 46 -78 67 -74 19 -71 965 -68 l846 3 48 30 c32 20 56 45 72 74 l23 44 0 1259 c0 1113 -2 1263 -15 1296 -21 49 -52 81 -100 103 -38 18 -85 19 -891 19 l-851 0 -44 -23z m1777 -16 c47 -22 80 -59 94 -110 8 -24 10 -438 8 -1287 l-3 -1250 -25 -37 c-15 -22 -46 -48 -74 -62 l-50 -25 -820 0 c-568 0 -833 4 -861 11 -52 15 -110 74 -124 126 -8 29 -11 395 -9 1280 3 1160 4 1240 21 1270 22 41 54 72 92 89 24 11 188 13 870 13 797 1 842 0 881 -18z"/>
<path d="M2987 4970 c-32 -37 -41 -64 -32 -97 5 -22 10 -24 34 -20 25 5 28 3 24 -13 -4 -14 0 -20 12 -20 12 0 15 5 10 19 -5 16 -2 18 15 14 54 -14 63 50 14 114 -31 41 -45 41 -77 3z"/>
<path d="M4469 4978 c-56 -59 -57 -136 -2 -125 20 4 24 1 20 -14 -3 -12 0 -19 9 -19 8 0 14 8 14 18 0 13 8 18 28 17 24 0 27 4 30 37 2 29 -3 43 -28 72 -38 42 -42 43 -71 14z"/>
<path d="M3255 4857 c-64 -66 -104 -140 -112 -207 -5 -45 -3 -51 25 -79 38 -38 61 -39 103 -4 l32 27 -7 -39 c-4 -22 -10 -50 -13 -62 -5 -21 -1 -23 32 -23 41 0 41 -1 19 84 l-6 27 33 -20 c44 -27 62 -26 96 3 24 21 28 32 28 78 0 64 -31 130 -94 200 -70 78 -74 79 -136 15z"/>
<path d="M4132 4846 c-74 -80 -102 -136 -102 -205 0 -42 5 -57 25 -76 29 -30 50 -31 94 -4 l34 20 -7 -39 c-3 -22 -9 -47 -12 -56 -5 -13 2 -16 36 -16 36 0 41 2 35 18 -4 9 -9 35 -13 56 l-5 40 28 -22 c44 -35 86 -28 110 19 35 67 2 170 -82 260 -73 78 -72 78 -141 5z"/>
<path d="M3249 3923 c-70 -77 -113 -170 -106 -226 6 -45 43 -87 77 -87 10 0 33 12 51 27 l32 27 -7 -39 c-4 -22 -10 -50 -13 -62 -5 -21 -1 -23 32 -23 36 0 37 1 31 30 -3 17 -9 44 -13 62 l-6 31 21 -21 c31 -31 67 -37 98 -18 76 50 47 181 -66 299 -31 31 -61 57 -67 57 -6 0 -35 -26 -64 -57z"/>
<path d="M4151 3938 c-24 -24 -60 -67 -79 -97 -30 -44 -37 -64 -40 -116 -4 -58 -2 -66 21 -89 31 -31 51 -32 96 -5 l34 20 -7 -39 c-3 -22 -9 -47 -12 -56 -5 -13 2 -16 36 -16 36 0 41 2 35 18 -4 9 -9 35 -13 56 l-5 40 28 -22 c63 -50 125 -7 125 86 0 55 -50 149 -112 211 -28 28 -54 51 -57 51 -4 0 -27 -19 -50 -42z"/>
<path d="M3284 3014 c4 -15 10 -40 13 -57 l6 -31 -28 22 c-34 27 -75 28 -106 3 -33 -27 -33 -117 0 -181 24 -46 127 -160 144 -160 39 0 147 137 168 213 29 110 -48 187 -126 125 l-27 -21 7 34 c4 19 9 44 12 57 5 20 1 22 -32 22 -35 0 -37 -1 -31 -26z"/>
<path d="M4165 3023 c4 -10 9 -36 13 -57 l5 -40 -28 22 c-36 29 -76 28 -103 -1 -30 -32 -29 -106 2 -172 26 -58 120 -165 144 -165 25 0 115 99 145 160 50 101 27 200 -47 200 -17 0 -42 -7 -54 -16 -20 -14 -22 -14 -22 3 0 10 4 33 9 51 l10 32 -41 0 c-34 0 -39 -3 -33 -17z"/>
<path d="M3013 2680 c4 -16 1 -18 -24 -13 -24 4 -29 2 -34 -20 -9 -33 0 -60 32 -97 32 -38 46 -38 77 3 49 64 40 128 -14 114 -17 -4 -20 -2 -15 14 5 14 2 19 -10 19 -12 0 -16 -6 -12 -20z"/>
<path d="M4487 2681 c4 -15 0 -18 -20 -14 -19 4 -28 -1 -37 -17 -10 -18 -8 -30 12 -67 36 -70 52 -76 94 -30 29 31 35 44 32 75 -3 33 -6 37 -30 37 -20 -1 -28 4 -28 17 0 10 -6 18 -14 18 -9 0 -12 -7 -9 -19z"/>
</g>
</svg>