<svg xmlns="http://www.w3.org/2000/svg" version="1.0" preserveAspectRatio="xMidYMid meet" viewBox="274.94 235.06 201.07 282.94">

<g transform="translate(0.000000,752.000000) scale(0.100000,-0.100000)" fill="#000000" stroke="none">
<path d="M2896 5158 c-52 -14 -121 -82 -135 -133 -16 -58 -15 -2499 0 -2546 17 -51 55 -97 99 -119 38 -20 60 -20 895 -20 822 0 857 1 893 19 47 24 77 56 97 103 13 33 15 182 15 1294 0 1400 6 1289 -70 1358 -21 19 -56 39 -77 45 -51 15 -1662 13 -1717 -1z m1743 -33 c19 -11 48 -37 65 -58 l31 -39 3 -1260 c2 -1217 2 -1261 -17 -1302 -10 -24 -36 -56 -57 -72 l-37 -29 -862 -3 -861 -2 -45 28 c-27 18 -53 45 -65 68 -18 38 -19 77 -22 1277 -2 890 1 1250 9 1280 15 55 75 113 131 125 26 6 363 10 868 9 806 -2 826 -2 859 -22z"/>
<path d="M2998 4973 c-48 -52 -61 -100 -34 -122 11 -9 20 -10 36 -1 19 10 20 9 14 -14 -5 -20 -2 -26 11 -26 14 0 16 6 10 28 -5 22 -4 25 6 15 20 -20 38 -15 51 12 14 30 -2 71 -41 109 l-27 26 -26 -27z"/>
<path d="M4463 4965 c-30 -37 -42 -70 -35 -97 6 -23 31 -31 50 -16 13 11 15 9 10 -14 -4 -20 -1 -28 8 -28 8 0 14 9 14 21 0 15 4 19 16 15 37 -14 57 40 33 87 -14 27 -50 67 -60 67 -5 0 -21 -16 -36 -35z"/>
<path d="M3246 4839 c-76 -82 -100 -130 -100 -202 -1 -50 3 -62 23 -78 31 -25 72 -24 106 3 l28 22 -6 -31 c-3 -17 -9 -42 -13 -57 -6 -25 -4 -26 31 -26 40 0 39 -6 18 90 l-6 25 25 -22 c30 -29 81 -30 107 -4 43 43 36 128 -18 213 -34 54 -107 128 -126 128 -7 0 -38 -27 -69 -61z"/>
<path d="M4131 4843 c-69 -77 -101 -143 -101 -208 0 -41 5 -56 23 -73 30 -28 74 -28 105 1 l25 22 -6 -40 c-3 -22 -8 -48 -12 -57 -6 -15 -1 -18 33 -18 l41 0 -10 32 c-5 18 -9 41 -9 51 0 17 2 17 22 3 12 -9 37 -16 54 -16 74 0 97 99 47 200 -30 61 -120 160 -145 160 -9 0 -39 -26 -67 -57z"/>
<path d="M3690 4384 c-70 -77 -103 -145 -104 -212 -1 -47 3 -57 28 -79 33 -28 66 -25 105 10 l24 22 -7 -40 c-4 -22 -10 -50 -12 -61 -5 -19 -1 -22 35 -22 37 -1 39 1 32 21 -5 12 -11 40 -15 62 l-8 40 21 -22 c30 -32 66 -39 97 -19 76 50 50 177 -60 291 -34 36 -66 65 -73 65 -6 0 -34 -25 -63 -56z"/>
<path d="M3246 3909 c-76 -82 -100 -130 -100 -202 -1 -50 3 -62 23 -78 31 -25 72 -24 106 3 l28 22 -6 -31 c-3 -17 -9 -42 -13 -57 -6 -25 -4 -26 31 -26 40 0 39 -6 18 90 l-6 25 25 -22 c30 -29 81 -30 107 -4 26 26 35 79 22 128 -21 77 -129 213 -168 213 -6 0 -36 -27 -67 -61z"/>
<path d="M4129 3913 c-66 -73 -99 -142 -99 -209 0 -40 5 -55 23 -72 30 -28 67 -28 102 0 l28 22 -5 -40 c-4 -21 -9 -47 -13 -56 -6 -15 -1 -18 33 -18 l41 0 -10 32 c-5 18 -9 41 -9 51 0 17 2 17 22 3 12 -9 37 -16 54 -16 74 0 97 99 47 200 -30 61 -120 160 -145 160 -9 0 -40 -26 -69 -57z"/>
<path d="M3283 3018 c3 -13 9 -41 13 -63 l7 -39 -32 27 c-40 33 -62 34 -96 4 -42 -35 -44 -91 -8 -169 29 -62 124 -178 146 -178 6 0 36 26 67 58 113 116 142 247 66 298 -31 19 -67 13 -98 -18 l-21 -21 6 31 c4 18 10 46 13 62 6 29 5 30 -31 30 -33 0 -37 -2 -32 -22z"/>
<path d="M4164 3024 c3 -9 9 -34 12 -56 l7 -39 -34 20 c-44 27 -65 26 -94 -4 -36 -35 -35 -114 3 -184 26 -50 125 -161 142 -161 21 0 110 104 139 161 46 92 39 173 -16 198 -34 16 -47 14 -78 -11 l-28 -22 5 40 c4 21 9 47 13 57 6 15 1 17 -35 17 -34 0 -41 -3 -36 -16z"/>
<path d="M3014 2674 c6 -23 5 -24 -15 -14 -17 10 -24 9 -36 -3 -22 -22 -9 -76 28 -116 l30 -33 26 23 c35 33 56 77 49 104 -7 28 -33 40 -53 23 -12 -10 -13 -7 -8 15 6 21 4 27 -10 27 -13 0 -16 -6 -11 -26z"/>
<path d="M4486 2673 c6 -24 5 -26 -8 -15 -19 15 -46 6 -50 -16 -7 -32 4 -61 37 -99 l33 -38 22 20 c46 41 65 110 36 134 -7 6 -21 9 -30 5 -12 -4 -16 0 -16 15 0 12 -6 21 -15 21 -12 0 -14 -7 -9 -27z"/>
</g>
</svg>