<svg xmlns="http://www.w3.org/2000/svg" version="1.0" preserveAspectRatio="xMidYMid meet" viewBox="275 235.07 200.87 282.93">

<g transform="translate(0.000000,752.000000) scale(0.100000,-0.100000)" fill="#000000" stroke="none">
<path d="M2881 5159 c-48 -19 -84 -54 -107 -103 l-24 -51 0 -1240 c0 -878 3 -1252 11 -1280 15 -52 82 -119 134 -134 28 -8 293 -11 871 -11 l830 0 51 25 c32 16 61 41 79 67 l29 41 3 1261 c2 876 0 1272 -8 1298 -14 48 -53 94 -101 118 -37 19 -64 20 -891 19 -510 0 -862 -4 -877 -10z m1754 -28 c48 -22 69 -44 90 -94 13 -32 15 -184 15 -1282 0 -1024 -2 -1251 -14 -1278 -17 -43 -76 -93 -123 -106 -54 -15 -1644 -15 -1698 0 -51 14 -110 73 -124 124 -15 56 -15 2464 0 2519 15 55 45 92 93 116 40 20 59 20 881 20 794 0 842 -1 880 -19z"/>
<path d="M2987 4970 c-32 -37 -41 -64 -32 -97 5 -22 10 -24 34 -20 25 5 28 3 24 -13 -4 -14 0 -20 12 -20 12 0 15 5 10 20 -6 18 -3 20 17 15 54 -14 60 48 12 113 -31 40 -45 40 -77 2z"/>
<path d="M4469 4979 c-55 -55 -57 -137 -2 -126 20 4 24 1 20 -14 -3 -12 0 -19 9 -19 8 0 14 8 14 18 0 13 8 18 28 17 24 0 27 4 30 37 2 29 -3 43 -28 72 -37 42 -43 43 -71 15z"/>
<path d="M3249 4853 c-70 -77 -113 -170 -106 -226 6 -45 43 -87 77 -87 10 0 33 12 51 27 l32 27 -7 -39 c-4 -22 -10 -50 -13 -62 -5 -21 -1 -23 32 -23 36 0 37 1 31 30 -3 17 -9 44 -13 62 l-6 31 21 -21 c31 -31 67 -37 98 -18 76 51 47 182 -66 299 -31 31 -61 57 -67 57 -6 0 -35 -26 -64 -57z"/>
<path d="M4151 4868 c-24 -24 -60 -67 -79 -97 -30 -44 -37 -64 -40 -116 -4 -58 -2 -66 21 -89 31 -31 51 -32 96 -5 l34 20 -7 -39 c-3 -22 -9 -47 -12 -56 -5 -13 2 -16 36 -16 36 0 41 2 35 18 -4 9 -9 35 -13 56 l-5 40 28 -22 c63 -50 125 -7 125 86 0 55 -50 149 -112 211 -28 28 -54 51 -57 51 -4 0 -27 -19 -50 -42z"/>
<path d="M3700 4397 c-63 -62 -107 -137 -116 -193 -7 -50 0 -78 29 -104 27 -26 62 -25 100 2 l30 22 -6 -31 c-3 -17 -9 -42 -13 -57 -6 -25 -4 -26 31 -26 41 0 41 -1 19 86 l-7 28 28 -22 c66 -52 135 -7 135 87 0 59 -84 194 -149 240 l-29 21 -52 -53z"/>
<path d="M3246 3918 c-73 -80 -101 -138 -101 -206 0 -47 4 -57 29 -79 33 -28 66 -25 105 10 l24 22 -7 -32 c-3 -18 -9 -46 -12 -63 -6 -29 -5 -30 31 -30 l37 0 -7 38 c-3 20 -9 48 -12 61 l-6 24 21 -21 c31 -31 67 -37 98 -18 76 51 47 182 -66 299 -31 31 -61 57 -67 57 -6 0 -36 -28 -67 -62z"/>
<path d="M4135 3923 c-70 -72 -105 -141 -105 -208 0 -88 50 -125 117 -85 l36 21 -7 -40 c-3 -21 -9 -46 -12 -55 -5 -13 2 -16 36 -16 34 0 41 3 36 16 -3 9 -9 34 -13 57 l-6 41 28 -22 c31 -25 44 -27 78 -11 55 25 62 106 16 198 -29 58 -118 161 -139 161 -5 0 -34 -26 -65 -57z"/>
<path d="M3723 3488 c10 -39 17 -104 11 -90 -8 16 -58 42 -82 42 -10 0 -29 -12 -43 -26 -19 -21 -24 -36 -23 -77 0 -29 8 -67 18 -87 27 -52 95 -138 128 -161 l28 -20 58 58 c73 74 107 141 107 210 0 89 -66 131 -129 82 l-27 -21 6 28 c4 16 11 41 15 57 9 26 8 27 -32 27 -37 0 -40 -2 -35 -22z"/>
<path d="M3284 3014 c4 -15 10 -40 13 -57 l6 -31 -28 22 c-34 27 -75 28 -106 3 -20 -16 -24 -28 -23 -78 0 -39 7 -72 22 -100 25 -48 128 -163 147 -163 19 0 92 74 126 128 54 85 61 170 18 213 -26 26 -77 25 -107 -3 l-24 -23 7 35 c4 19 9 45 12 58 5 20 1 22 -32 22 -35 0 -37 -1 -31 -26z"/>
<path d="M4165 3023 c4 -10 9 -36 12 -58 l6 -40 -25 23 c-32 29 -78 29 -106 -1 -32 -34 -30 -107 4 -175 30 -61 119 -162 142 -162 25 0 115 99 145 160 50 101 27 200 -47 200 -17 0 -42 -7 -54 -16 -20 -14 -22 -14 -22 3 0 10 4 33 9 51 l10 32 -41 0 c-34 0 -39 -3 -33 -17z"/>
<path d="M3013 2680 c4 -16 1 -18 -24 -13 -24 4 -29 2 -34 -20 -9 -33 0 -60 32 -97 32 -38 46 -38 77 3 49 64 40 128 -14 114 -17 -4 -20 -2 -15 14 5 14 2 19 -10 19 -12 0 -16 -6 -12 -20z"/>
<path d="M4487 2681 c4 -15 0 -18 -20 -14 -58 11 -53 -71 7 -127 l28 -25 34 38 c29 31 35 44 32 75 -3 33 -6 37 -30 37 -20 -1 -28 4 -28 17 0 10 -6 18 -14 18 -9 0 -12 -7 -9 -19z"/>
</g>
</svg>