<svg xmlns="http://www.w3.org/2000/svg" version="1.0" preserveAspectRatio="xMidYMid meet" viewBox="275.18 235.23 200.7 282.65">

<g transform="translate(0.000000,752.000000) scale(0.100000,-0.100000)" fill="#000000" stroke="none">
<path d="M2885 5155 c-51 -18 -111 -82 -124 -133 -8 -28 -10 -418 -9 -1288 3 -1245 3 -1249 24 -1289 11 -22 40 -53 63 -70 l43 -30 864 -3 c843 -2 865 -2 903 17 48 25 87 71 101 119 8 26 10 422 8 1298 l-3 1261 -28 40 c-15 22 -46 50 -70 64 l-42 24 -845 2 c-710 2 -851 0 -885 -12z m1718 -16 c47 -13 106 -63 123 -106 12 -27 14 -254 14 -1278 0 -1098 -2 -1250 -15 -1282 -20 -48 -41 -71 -87 -94 -37 -19 -68 -19 -891 -17 l-853 3 -41 27 c-22 14 -48 43 -59 65 -18 37 -19 81 -22 1276 -1 836 1 1251 8 1277 18 66 68 115 135 131 50 12 1644 10 1688 -2z"/>
<path d="M2991 4969 c-37 -40 -50 -94 -28 -116 12 -12 19 -13 36 -3 20 10 21 9 15 -14 -5 -20 -2 -26 11 -26 14 0 16 6 10 27 -5 22 -4 25 8 15 20 -17 46 -5 53 23 7 27 -14 71 -49 104 l-26 23 -30 -33z"/>
<path d="M4463 4965 c-30 -37 -42 -70 -35 -97 6 -23 31 -31 50 -16 13 11 14 9 8 -14 -5 -21 -3 -28 9 -28 9 0 15 9 15 21 0 15 4 19 16 15 37 -14 57 40 33 87 -14 27 -50 67 -60 67 -5 0 -21 -16 -36 -35z"/>
<path d="M3246 4839 c-76 -82 -100 -130 -100 -202 -1 -50 3 -62 23 -78 31 -25 72 -24 106 3 l28 22 -6 -31 c-3 -17 -9 -42 -13 -57 -6 -25 -4 -26 31 -26 40 0 39 -6 18 90 l-6 25 25 -22 c30 -29 81 -30 107 -4 26 26 35 79 22 128 -21 77 -129 213 -168 213 -6 0 -36 -27 -67 -61z"/>
<path d="M4129 4843 c-66 -73 -99 -142 -99 -209 0 -40 5 -55 23 -72 30 -28 67 -28 102 0 l28 22 -5 -40 c-4 -21 -9 -47 -13 -56 -6 -15 -1 -18 33 -18 l41 0 -10 32 c-5 18 -9 41 -9 51 0 17 2 17 22 3 12 -9 37 -16 54 -16 74 0 97 99 47 200 -30 61 -120 160 -145 160 -9 0 -40 -26 -69 -57z"/>
<path d="M3248 4222 c-75 -78 -102 -132 -102 -205 -1 -50 3 -62 23 -78 31 -25 72 -24 106 3 l28 22 -6 -31 c-3 -17 -9 -42 -13 -57 -6 -25 -4 -26 31 -26 40 0 39 -4 18 89 l-6 25 28 -22 c78 -62 155 15 126 125 -21 76 -129 213 -168 213 -5 0 -35 -26 -65 -58z"/>
<path d="M4129 4223 c-66 -73 -99 -142 -99 -209 0 -40 5 -55 23 -72 30 -28 67 -28 102 0 l28 22 -5 -40 c-4 -21 -9 -47 -13 -56 -6 -15 -1 -18 33 -18 l41 0 -10 32 c-5 18 -9 41 -9 51 0 17 2 17 22 3 12 -9 37 -16 54 -16 74 0 97 99 47 200 -30 61 -120 160 -145 160 -9 0 -40 -26 -69 -57z"/>
<path d="M3681 3914 c-87 -96 -119 -189 -86 -253 24 -47 74 -55 120 -19 l28 22 -6 -31 c-3 -17 -9 -42 -13 -57 -6 -25 -4 -26 31 -26 41 0 41 -1 19 86 l-7 28 28 -22 c72 -57 146 0 131 100 -4 24 -20 67 -37 97 -34 59 -111 141 -133 141 -8 0 -41 -30 -75 -66z"/>
<path d="M3284 3628 c3 -16 9 -43 12 -60 l7 -33 -25 23 c-34 30 -83 32 -111 3 -31 -31 -30 -110 2 -174 26 -54 126 -167 146 -167 7 0 40 30 74 66 70 77 106 156 98 218 -10 76 -80 104 -133 55 l-27 -24 6 25 c3 14 8 41 12 60 6 35 6 35 -30 35 -35 0 -36 -1 -31 -27z"/>
<path d="M4165 3640 c3 -8 9 -35 12 -60 5 -39 4 -43 -8 -28 -24 30 -66 40 -98 23 -34 -17 -41 -32 -41 -94 0 -30 9 -65 25 -97 27 -55 123 -164 144 -164 23 0 115 104 144 162 38 80 37 139 -3 180 -25 24 -36 29 -58 23 -15 -3 -36 -14 -46 -23 -18 -16 -19 -16 -13 25 4 23 9 47 12 55 4 11 -4 14 -35 13 -31 0 -39 -3 -35 -15z"/>
<path d="M3283 3018 c3 -13 9 -41 13 -63 l7 -39 -32 27 c-40 33 -62 34 -96 4 -63 -54 -29 -182 78 -292 64 -66 68 -66 138 13 63 70 94 136 94 200 0 46 -4 57 -28 78 -34 29 -52 30 -96 3 l-33 -20 6 27 c22 85 22 84 -19 84 -33 0 -37 -2 -32 -22z"/>
<path d="M4164 3024 c3 -9 9 -34 12 -56 l7 -39 -34 20 c-44 27 -65 26 -94 -4 -20 -19 -25 -34 -25 -76 0 -70 29 -127 105 -208 l62 -65 56 53 c97 92 140 208 102 280 -24 47 -66 54 -110 19 l-28 -22 5 40 c4 21 9 47 13 57 6 15 1 17 -35 17 -34 0 -41 -3 -36 -16z"/>
<path d="M3014 2674 c6 -23 5 -24 -14 -14 -16 9 -25 8 -36 -1 -28 -23 -10 -82 39 -127 l24 -23 31 36 c38 42 48 75 32 104 -12 24 -30 27 -49 9 -10 -11 -11 -8 -6 15 6 21 4 27 -10 27 -13 0 -16 -6 -11 -26z"/>
<path d="M4488 2673 c5 -24 3 -26 -10 -15 -19 15 -46 6 -50 -16 -7 -32 4 -61 37 -99 l33 -38 22 20 c46 41 65 110 36 134 -7 6 -21 9 -30 5 -12 -4 -16 0 -16 15 0 12 -6 21 -14 21 -9 0 -12 -8 -8 -27z"/>
</g>
</svg>