<svg xmlns="http://www.w3.org/2000/svg" version="1.0" preserveAspectRatio="xMidYMid meet" viewBox="242 187 268 378">

<g transform="translate(0.000000,752.000000) scale(0.100000,-0.100000)" fill="#000000" stroke="none">
<path d="M2486 5631 c-15 -10 -37 -32 -47 -47 -18 -28 -19 -82 -19 -1824 0 -1742 1 -1796 19 -1824 10 -15 32 -37 47 -47 28 -18 71 -19 1274 -19 1203 0 1246 1 1274 19 15 10 37 32 47 47 18 28 19 82 19 1824 0 1742 -1 1796 -19 1824 -10 15 -32 37 -47 47 -28 18 -71 19 -1274 19 -1203 0 -1246 -1 -1274 -19z m2550 -45 l34 -34 0 -1792 0 -1792 -34 -34 -34 -34 -1242 0 -1242 0 -34 34 -34 34 0 1792 0 1792 34 34 34 34 1242 0 1242 0 34 -34z"/>
<path d="M2575 5155 c-14 -13 -25 -32 -25 -42 1 -33 37 -97 84 -148 l46 -50 50 55 c87 96 100 172 34 202 -22 10 -31 9 -56 -5 -27 -15 -32 -15 -51 -2 -31 21 -54 19 -82 -10z"/>
<path d="M3555 4046 c-115 -51 -126 -195 -24 -342 54 -80 209 -244 229 -244 21 0 167 156 228 243 94 135 95 259 1 329 -55 42 -150 35 -199 -14 -31 -30 -31 -30 -45 -11 -33 47 -128 67 -190 39z"/>
<path d="M4792 2496 c-49 -53 -73 -98 -74 -137 -2 -58 60 -89 109 -54 18 13 22 13 33 0 18 -22 66 -18 90 7 38 41 20 98 -58 182 -23 25 -46 46 -51 46 -5 0 -27 -20 -49 -44z"/>
</g>
</svg>