<?xml version="1.0" standalone="no"?>
<!DOCTYPE svg PUBLIC "-//W3C//DTD SVG 20010904//EN"
 "http://www.w3.org/TR/2001/REC-SVG-20010904/DTD/svg10.dtd">
<svg version="1.0" xmlns="http://www.w3.org/2000/svg"
 width="752.000000pt" height="752.000000pt" viewBox="0 0 752.000000 752.000000"
 preserveAspectRatio="xMidYMid meet">
<metadata>
Created by potrace 1.16, written by Peter Selinger 2001-2019
</metadata>
<g transform="translate(0.000000,752.000000) scale(0.100000,-0.100000)"
fill="#fff" stroke="none">
<path d="M3525 5960 c-217 -46 -399 -144 -541 -291 -87 -91 -122 -143 -179
-261 -63 -131 -90 -236 -140 -536 -24 -144 -49 -281 -55 -305 -23 -89 -53
-175 -88 -249 l-35 -78 -66 0 c-135 0 -263 -51 -353 -141 -52 -51 -58 -62 -58
-99 0 -54 18 -96 85 -190 30 -43 55 -81 55 -84 0 -3 -22 -34 -49 -67 -59 -73
-112 -171 -137 -254 -15 -48 -29 -69 -71 -109 -29 -26 -69 -74 -89 -106 -19
-31 -59 -78 -88 -103 -109 -94 -175 -233 -176 -368 0 -61 3 -78 16 -83 30 -12
48 -6 125 44 42 27 102 59 133 71 58 21 170 99 180 124 4 12 10 12 42 -1 20
-8 102 -33 183 -55 80 -21 200 -55 266 -74 125 -37 344 -85 388 -85 17 0 31
-8 38 -22 7 -13 25 -39 41 -59 l30 -37 -45 -78 c-165 -292 -238 -530 -192
-627 49 -103 182 -160 445 -192 239 -29 336 -45 439 -75 135 -39 195 -39 314
1 68 22 151 38 320 60 304 39 406 73 484 162 87 100 31 340 -155 657 l-49 85
27 32 c15 17 36 45 46 62 12 21 26 31 43 31 42 0 272 51 386 85 61 18 171 50
245 69 74 20 157 45 183 56 41 16 49 17 54 5 9 -25 121 -103 179 -124 31 -12
91 -44 133 -71 77 -50 95 -56 125 -44 13 5 16 22 16 83 -1 135 -67 274 -176
368 -29 25 -69 72 -88 103 -20 32 -60 80 -89 106 -42 40 -56 61 -71 109 -25
83 -78 181 -137 254 -56 70 -56 66 12 156 48 64 79 131 79 174 1 126 -203 250
-411 251 l-66 0 -41 88 c-55 119 -94 272 -143 566 -43 266 -69 369 -125 504
-43 104 -81 164 -170 267 -63 72 -79 85 -174 132 -149 74 -342 149 -432 167
-107 22 -307 20 -423 -4z m405 -85 c92 -19 258 -78 375 -134 l101 -48 23 -74
c25 -78 40 -292 24 -316 -7 -10 -32 -8 -113 7 -195 35 -339 43 -620 36 -280
-7 -452 -19 -562 -40 l-68 -13 0 98 c0 89 13 228 26 272 7 23 109 91 199 133
202 93 411 120 615 79z m-908 -447 l-4 -157 -48 -16 c-26 -9 -73 -31 -104 -50
-31 -18 -56 -30 -56 -26 0 20 51 154 82 216 32 63 126 202 131 193 2 -1 1 -74
-1 -160z m1545 75 c22 -32 54 -85 70 -118 32 -63 68 -164 61 -170 -2 -2 -23 5
-48 16 -24 11 -62 24 -84 30 l-41 10 0 145 c0 79 0 144 1 144 1 0 19 -26 41
-57z m-340 -248 c56 -9 135 -25 175 -36 40 -11 101 -27 136 -35 66 -15 170
-63 189 -86 10 -13 39 -157 68 -343 52 -333 132 -548 256 -689 l43 -49 -74 7
c-41 4 -129 18 -195 32 -111 23 -151 26 -550 35 -295 7 -490 7 -620 -1 -104
-5 -338 -9 -520 -8 -325 3 -332 2 -460 -24 -71 -15 -157 -30 -190 -34 l-60 -7
36 39 c89 96 165 247 209 416 16 62 46 214 66 338 41 254 41 254 149 319 132
80 277 115 543 131 92 6 192 12 222 14 118 8 478 -4 577 -19z m1003 -1125 c78
-23 171 -85 184 -123 12 -34 -7 -76 -71 -159 -25 -33 -61 -95 -79 -138 -45
-108 -58 -131 -90 -163 -41 -41 -82 -35 -111 18 -12 22 -25 60 -29 83 -6 40
-5 42 18 42 13 0 29 5 36 12 17 17 15 137 -3 188 -8 23 -15 44 -15 46 0 2 29
4 64 4 109 0 137 48 61 106 -19 14 -50 46 -71 70 l-36 45 38 -6 c22 -4 68 -15
104 -25z m-2825 -2 c-11 -13 -43 -46 -72 -74 -29 -28 -53 -56 -53 -63 0 -6 9
-20 20 -31 16 -16 33 -20 85 -20 36 0 65 -2 65 -4 0 -2 -7 -23 -15 -46 -18
-51 -20 -171 -3 -188 7 -7 22 -12 35 -12 20 0 23 -4 17 -27 -19 -79 -61 -143
-95 -143 -32 0 -96 87 -133 181 -20 50 -61 126 -91 170 -30 44 -58 92 -61 106
-10 40 15 74 76 105 53 27 184 66 224 67 19 1 19 0 1 -21z m1488 -480 c4 -199
7 -435 7 -524 l0 -164 -27 -7 c-38 -9 -126 -9 -195 0 l-58 8 0 142 c0 78 3
314 7 525 l6 382 127 0 127 0 6 -362z m550 355 l197 -6 0 -112 0 -112 -107 -6
c-60 -3 -191 -11 -293 -18 -102 -7 -202 -9 -222 -5 l-38 7 0 129 0 130 133 0
c74 0 222 -3 330 -7z m-903 -128 l0 -124 -37 -7 c-21 -4 -121 -2 -223 5 -102
7 -233 15 -292 18 l-108 6 0 108 c0 76 4 109 13 112 6 3 155 6 330 6 l317 1 0
-125z m-890 81 c0 -2 -18 -42 -40 -89 -32 -68 -45 -86 -66 -91 -44 -11 -49 5
-25 83 23 76 28 81 81 92 48 9 50 9 50 5z m2322 -20 c5 -6 18 -41 30 -79 24
-75 19 -93 -26 -81 -21 5 -34 23 -66 91 -22 47 -40 88 -40 90 0 9 95 -10 102
-21z m-2352 -275 c0 -44 27 -163 56 -250 29 -85 130 -299 191 -406 l40 -70
-19 -37 c-11 -20 -22 -62 -25 -92 -3 -31 -11 -56 -17 -56 -23 0 -248 50 -313
69 -37 11 -135 38 -218 60 -82 21 -175 49 -207 60 l-56 22 52 52 c29 29 65 75
81 102 16 28 68 88 115 135 57 56 93 101 105 130 14 35 28 50 59 65 59 29 81
73 112 223 3 14 12 22 24 22 15 0 20 -7 20 -29z m2324 13 c3 -9 6 -23 6 -33 0
-72 66 -185 116 -197 16 -4 31 -23 49 -62 18 -40 51 -81 109 -137 45 -44 95
-102 111 -130 16 -27 52 -73 81 -102 l52 -52 -77 -25 c-42 -14 -121 -36 -176
-50 -55 -14 -127 -35 -160 -46 -75 -26 -273 -75 -341 -85 l-51 -7 -5 54 c-2
29 -13 70 -23 91 l-18 39 42 76 c130 236 214 450 234 598 9 67 15 84 28 84 9
0 20 -7 23 -16z m-2180 -47 c34 -44 67 -122 105 -243 17 -56 59 -157 94 -225
68 -135 292 -491 360 -573 l42 -50 -35 20 c-54 30 -182 162 -237 244 -62 93
-200 341 -264 475 -56 117 -103 255 -116 342 -9 58 -8 61 8 52 10 -5 29 -24
43 -42z m579 37 l197 -7 0 -328 c0 -233 -3 -329 -11 -329 -6 0 -43 17 -83 37
-99 52 -205 162 -353 369 -67 94 -143 194 -169 224 l-48 53 134 -7 c74 -3 224
-9 333 -12z m1287 7 c0 -5 -7 -15 -17 -22 -9 -8 -88 -111 -176 -229 -184 -247
-262 -329 -363 -383 -40 -20 -77 -37 -83 -37 -8 0 -11 96 -11 330 l0 330 153
1 c83 1 186 5 227 9 112 10 270 11 270 1z m175 -67 c-30 -156 -88 -294 -251
-591 -118 -217 -182 -311 -248 -367 -57 -48 -147 -107 -130 -85 6 8 26 34 46
59 64 82 260 393 324 515 36 70 77 169 99 237 43 141 95 248 137 283 17 14 32
24 34 23 1 -2 -3 -35 -11 -74z m-2575 -54 c7 -16 33 -48 58 -71 l45 -42 -17
-32 c-10 -18 -44 -59 -77 -91 l-59 -58 0 98 c0 103 16 226 30 226 4 0 13 -13
20 -30z m3107 -152 c4 -81 2 -128 -4 -128 -13 0 -116 108 -132 139 -12 22 -10
27 22 55 19 17 48 51 63 75 l28 43 9 -28 c5 -16 11 -86 14 -156z m-783 -24
c-70 -185 -103 -246 -266 -491 -163 -245 -228 -320 -310 -358 -50 -23 -64 -25
-218 -25 -154 0 -168 2 -218 25 -80 37 -148 114 -285 321 -184 278 -260 420
-322 594 -19 55 -24 61 123 -140 173 -237 249 -306 415 -376 110 -46 228 -67
342 -62 78 4 105 11 202 50 61 25 136 62 167 83 84 56 182 168 302 345 59 88
109 158 111 157 1 -2 -18 -57 -43 -123z m-2459 -1 c0 -65 3 -141 8 -169 7 -51
7 -52 -36 -100 l-44 -48 -7 56 c-12 94 16 247 64 351 7 15 14 27 14 27 1 0 1
-53 1 -117z m3374 12 c28 -82 43 -197 35 -269 l-7 -60 -44 48 -43 48 8 56 c4
32 7 107 7 169 0 123 5 124 44 8z m-3525 -391 c8 -39 7 -42 -40 -83 -27 -24
-62 -50 -77 -58 l-28 -14 5 33 c3 18 8 57 11 87 8 68 36 142 77 203 l33 48 6
-87 c3 -49 9 -106 13 -129z m3735 70 c11 -29 23 -76 26 -106 3 -29 8 -68 11
-86 l5 -33 -29 15 c-16 8 -51 35 -77 59 l-48 43 11 59 c7 32 12 90 12 129 l0
71 35 -49 c19 -27 44 -73 54 -102z m-2601 -400 c71 -84 153 -151 242 -198 108
-57 159 -64 465 -61 228 2 278 5 320 20 161 57 307 175 410 333 25 40 49 72
52 72 3 0 3 -27 1 -60 -3 -49 -11 -69 -42 -115 -68 -98 -222 -198 -392 -253
-173 -57 -540 -69 -702 -22 -245 69 -481 269 -482 406 0 49 12 48 42 -4 15
-27 54 -80 86 -118z m163 -305 c137 -69 354 -106 549 -94 214 13 246 16 310
32 87 21 226 82 303 132 35 23 66 41 69 41 9 0 50 -72 44 -77 -14 -14 -236
-95 -320 -117 -179 -46 -300 -59 -511 -53 -155 4 -210 10 -295 30 -152 36
-299 95 -358 143 l-22 19 20 33 20 32 66 -46 c37 -25 93 -58 125 -75z m-25
-148 c195 -65 517 -97 734 -72 193 22 388 74 547 147 l71 32 30 -56 31 -57
-117 -27 c-302 -72 -559 -105 -727 -94 -141 10 -550 52 -675 71 -58 8 -133 15
-167 15 -35 0 -63 2 -63 5 0 8 50 105 67 132 l15 22 81 -44 c45 -24 123 -58
173 -74z m1464 -137 c42 -137 18 -226 -76 -276 -68 -37 -145 -56 -299 -73
-248 -28 -281 -34 -398 -71 l-119 -37 -81 22 c-45 11 -116 30 -157 41 -41 11
-178 34 -305 50 -261 34 -321 50 -378 101 -39 34 -41 39 -44 100 -2 35 2 87
10 114 11 43 17 50 40 53 23 3 27 0 27 -22 0 -33 43 -82 86 -96 59 -20 113 -4
161 46 61 63 100 60 123 -9 17 -53 60 -79 121 -74 55 5 106 38 115 73 5 20 11
24 28 20 11 -3 31 -6 43 -6 15 0 29 -12 44 -39 27 -48 83 -81 138 -81 56 0 93
21 116 64 19 36 20 36 88 36 64 0 70 -2 95 -31 55 -66 181 -91 250 -49 37 23
72 75 72 108 0 28 6 28 52 -4 40 -28 115 -42 163 -30 30 8 55 56 55 106 0 16
2 30 5 30 2 0 13 -30 25 -66z"/>
<path d="M3256 5204 c-114 -15 -248 -43 -267 -55 -32 -19 11 -21 168 -5 92 9
284 23 426 31 142 8 263 17 269 21 28 18 -37 24 -257 23 -141 -1 -281 -7 -339
-15z"/>
<path d="M4040 5191 c0 -18 43 -30 198 -57 149 -25 232 -30 232 -15 0 24 -188
68 -327 77 -76 5 -103 4 -103 -5z"/>
<path d="M4710 4721 c0 -123 42 -321 89 -426 28 -61 45 -83 54 -68 3 5 -6 49
-19 98 -13 50 -37 155 -54 235 -36 168 -48 210 -61 210 -5 0 -9 -22 -9 -49z"/>
<path d="M3530 4210 c-85 -4 -213 -15 -285 -23 -71 -9 -202 -19 -290 -22 -165
-7 -301 -27 -319 -46 -8 -8 10 -9 64 -4 41 3 172 8 290 10 118 2 280 10 360
19 203 21 891 32 1075 16 232 -19 291 -22 275 -12 -21 13 -106 30 -233 47
-132 18 -714 27 -937 15z"/>
<path d="M5266 3865 c-51 -63 -131 -189 -141 -222 -12 -43 23 -25 70 35 55 69
145 211 145 229 0 28 -31 10 -74 -42z"/>
<path d="M3050 3250 c0 -19 47 -104 89 -160 22 -30 75 -83 118 -117 307 -249
755 -257 997 -17 70 69 144 170 133 181 -4 3 -44 -33 -89 -80 -133 -136 -237
-192 -408 -218 -171 -26 -398 32 -568 145 -77 51 -181 156 -227 229 -29 45
-45 58 -45 37z"/>
</g>
</svg>
