<?xml version="1.0" standalone="no"?>
<!DOCTYPE svg PUBLIC "-//W3C//DTD SVG 20010904//EN"
 "http://www.w3.org/TR/2001/REC-SVG-20010904/DTD/svg10.dtd">
<svg version="1.0" xmlns="http://www.w3.org/2000/svg"
 width="752.000000pt" height="752.000000pt" viewBox="0 0 752.000000 752.000000"
 preserveAspectRatio="xMidYMid meet">
<metadata>
Created by potrace 1.16, written by Peter Selinger 2001-2019
</metadata>
<g transform="translate(0.000000,752.000000) scale(0.100000,-0.100000)"
fill="#fff" stroke="none">
<path d="M2555 5641 c-33 -10 -100 -32 -149 -50 -114 -41 -298 -78 -456 -92
-147 -13 -170 -20 -170 -51 0 -59 62 -117 174 -163 212 -88 402 -278 545 -546
50 -93 243 -530 237 -536 -7 -7 -70 94 -87 140 -10 29 -29 60 -41 71 -34 27
-111 16 -190 -26 -124 -67 -294 -170 -346 -209 -54 -41 -118 -118 -128 -154
-3 -13 -28 -29 -72 -47 -83 -34 -198 -100 -274 -156 -48 -35 -58 -48 -58 -72
0 -30 73 -185 156 -332 24 -43 44 -82 44 -89 0 -6 -29 -60 -65 -119 -90 -149
-128 -234 -133 -296 -5 -66 2 -98 30 -123 24 -23 145 -65 233 -81 63 -11 453
-35 768 -46 123 -5 190 -11 192 -18 44 -179 111 -327 178 -400 31 -33 41 -50
35 -63 -30 -78 36 -167 151 -204 20 -6 45 -20 56 -30 44 -39 89 -49 227 -49
93 0 150 -5 188 -16 93 -27 215 -29 302 -5 57 16 103 21 200 21 132 0 193 13
233 49 11 10 36 24 56 30 114 36 181 127 150 204 -5 13 5 31 36 65 69 75 134
219 178 398 2 7 69 13 192 18 315 12 702 35 767 46 88 16 209 57 234 81 28 25
35 57 30 123 -5 62 -43 147 -133 296 -36 59 -65 113 -65 119 0 7 20 46 44 89
83 146 156 302 156 331 0 25 -11 38 -77 86 -70 51 -281 165 -308 165 -5 0 -19
20 -29 43 -39 83 -110 139 -368 292 -208 122 -295 125 -326 12 -10 -34 -81
-151 -88 -145 -5 5 167 400 219 503 140 280 344 489 562 580 113 46 175 104
175 163 0 31 -23 38 -166 51 -179 16 -320 46 -489 103 -135 46 -161 52 -255
56 -90 3 -113 1 -163 -18 -69 -26 -111 -59 -148 -119 l-28 -44 -95 2 c-121 3
-158 -8 -237 -67 -35 -26 -76 -55 -91 -65 -20 -12 -28 -26 -28 -45 0 -25 10
-34 88 -77 268 -149 332 -237 332 -458 l0 -89 -39 31 c-21 17 -61 42 -90 56
-47 24 -51 29 -51 61 0 20 -5 45 -12 57 -6 12 -10 45 -9 74 2 56 -16 109 -55
160 -27 35 -67 44 -81 18 -7 -12 -15 -12 -53 -1 -41 12 -45 16 -52 54 -14 84
-73 161 -112 146 -14 -5 -31 -51 -51 -135 -6 -25 -7 -25 -93 -21 -48 2 -88 5
-90 7 -1 1 -11 33 -21 70 -26 91 -44 103 -90 58 -26 -26 -53 -86 -65 -143 -4
-20 -15 -28 -48 -37 -35 -10 -44 -9 -51 3 -4 8 -18 14 -31 14 -50 0 -108 -106
-105 -193 1 -29 -3 -62 -9 -74 -7 -12 -12 -37 -12 -56 0 -32 -5 -37 -44 -57
-25 -11 -65 -36 -89 -55 l-45 -34 -5 32 c-9 56 12 199 37 253 44 96 114 156
299 259 77 43 87 52 87 77 0 22 -9 33 -42 54 -23 15 -64 44 -91 65 -62 49
-106 61 -223 58 l-95 -2 -29 46 c-36 57 -97 102 -163 122 -68 20 -207 18 -282
-4z m292 -89 c48 -25 87 -72 107 -128 15 -44 2 -41 156 -28 93 7 139 -4 204
-52 l49 -36 -54 -30 c-203 -114 -262 -180 -308 -348 -64 -231 -8 -554 136
-783 22 -35 22 -39 8 -60 -8 -12 -15 -31 -15 -43 0 -31 -24 -48 -49 -35 -11 6
-33 11 -48 11 -15 0 -47 3 -71 6 -43 6 -43 6 -92 103 -26 54 -85 185 -130 292
-169 399 -246 534 -398 691 -110 113 -208 184 -324 234 -46 19 -90 42 -98 50
-12 12 -10 14 23 14 114 0 354 52 549 118 147 51 148 51 238 48 53 -2 87 -9
117 -24z m2173 -21 c190 -66 439 -121 557 -121 l38 0 -24 -19 c-14 -11 -54
-31 -90 -46 -101 -40 -218 -125 -322 -232 -153 -158 -221 -274 -380 -648 -56
-132 -123 -283 -150 -336 -48 -97 -48 -97 -91 -103 -24 -3 -56 -6 -71 -6 -15
0 -37 -5 -48 -11 -24 -12 -49 3 -49 30 0 9 -7 29 -15 44 -13 26 -12 31 16 78
43 70 95 196 118 287 46 182 49 327 11 478 -40 155 -104 233 -264 324 -106 60
-106 59 -23 112 50 32 55 33 147 31 52 -1 113 -3 134 -5 37 -3 39 -1 52 36 26
74 75 121 154 147 56 19 181 2 300 -40z m-1205 -443 c3 -3 3 -40 -1 -82 l-7
-76 -47 0 -47 0 -7 69 c-3 38 -9 77 -13 86 -5 16 0 17 55 13 34 -2 64 -7 67
-10z m2 -249 c15 -6 37 -12 47 -13 11 0 27 -17 39 -40 l21 -39 -24 -16 c-44
-30 -120 -108 -120 -124 0 -42 53 -59 103 -33 l27 15 0 -45 c0 -38 -3 -46 -25
-54 -22 -8 -25 -15 -25 -58 0 -38 -5 -53 -24 -71 -34 -32 -89 -45 -132 -31
-42 14 -54 40 -47 103 5 43 4 47 -21 57 -23 8 -26 15 -26 54 l0 45 28 -15 c49
-26 102 -9 102 33 0 16 -76 94 -120 124 l-24 16 21 39 c14 27 30 43 54 51 44
15 110 16 146 2z m-1322 -556 c9 -36 87 -155 146 -223 27 -31 65 -91 85 -134
30 -66 34 -83 25 -102 -6 -13 -14 -24 -18 -24 -5 0 -20 22 -35 48 -14 26 -65
94 -113 151 -83 100 -135 183 -135 216 0 9 -7 29 -15 45 -15 28 -14 30 12 44
33 17 39 15 48 -21z m810 12 c105 -62 93 -59 143 -39 37 14 47 15 50 4 3 -8
15 -24 27 -36 32 -32 13 -46 -32 -23 -58 29 -117 34 -150 13 -19 -13 -42 -18
-71 -16 -38 3 -43 6 -40 25 2 14 10 22 23 22 25 0 34 42 11 51 -16 6 -23 25
-8 23 4 0 25 -11 47 -24z m965 16 c0 -5 -7 -12 -16 -15 -23 -9 -14 -51 11 -51
13 0 21 -8 23 -22 3 -19 -2 -22 -40 -25 -29 -2 -52 3 -71 16 -33 21 -92 16
-150 -13 -45 -23 -64 -9 -32 23 12 12 24 28 27 36 3 11 13 10 50 -4 50 -20 38
-23 143 39 45 26 55 29 55 16z m815 -51 c-8 -16 -15 -36 -15 -45 0 -33 -52
-116 -135 -216 -48 -57 -99 -125 -113 -151 -15 -26 -30 -48 -35 -48 -4 0 -12
11 -18 24 -9 19 -5 36 25 102 20 43 58 103 84 134 64 73 108 139 138 205 l25
55 30 -15 c28 -15 29 -16 14 -45z m-1287 0 c9 0 12 -28 12 -105 l0 -105 -34 0
c-19 0 -41 -3 -50 -6 -14 -5 -16 8 -16 104 0 118 4 126 55 116 11 -2 26 -4 33
-4z m-1311 -234 c17 -20 21 -32 14 -39 -6 -6 -11 -26 -11 -43 0 -44 42 -78 87
-71 36 6 50 -8 93 -92 27 -54 22 -65 -59 -145 l-58 -57 -66 81 c-63 78 -66 83
-51 105 30 46 -16 114 -68 102 -20 -4 -32 8 -84 83 l-61 88 48 5 c51 6 117 35
139 62 11 14 15 12 33 -17 11 -18 31 -46 44 -62z m2681 40 c18 -10 55 -20 81
-23 l48 -5 -61 -88 c-55 -80 -64 -87 -88 -83 -20 4 -33 -2 -52 -20 -29 -29
-33 -53 -12 -83 14 -19 10 -27 -51 -103 l-66 -82 -57 56 c-85 84 -87 91 -55
156 39 77 51 88 88 82 45 -7 87 27 87 71 0 17 -5 37 -10 42 -7 7 3 28 30 64
22 29 40 58 40 64 0 5 10 0 23 -11 12 -11 37 -28 55 -37z m-3033 14 c3 -11 31
-55 62 -97 31 -43 78 -113 105 -157 27 -43 85 -125 129 -182 l80 -104 -18 -30
c-9 -16 -20 -30 -23 -30 -8 0 -95 116 -161 215 -29 44 -81 117 -116 163 -61
80 -113 169 -113 193 0 14 29 49 41 49 4 0 10 -9 14 -20z m3287 3 c10 -9 18
-22 18 -30 0 -26 -50 -113 -113 -195 -35 -46 -87 -119 -116 -163 -66 -99 -153
-215 -161 -215 -3 0 -14 14 -23 30 l-18 30 80 104 c44 57 102 139 129 182 27
44 74 114 105 157 31 42 59 86 62 97 8 24 13 25 37 3z m-2165 -99 c57 -66 60
-72 47 -95 -7 -13 -14 -37 -14 -54 0 -23 -8 -35 -34 -52 -18 -11 -41 -38 -50
-58 l-18 -37 -59 58 c-57 57 -115 129 -162 204 l-22 35 29 -19 c18 -12 38 -16
56 -12 40 7 51 -11 43 -71 -7 -64 16 -93 76 -93 69 0 103 69 61 123 -11 14
-29 29 -40 32 -26 8 -26 25 0 32 16 4 20 14 20 46 0 22 2 38 4 36 2 -2 30 -36
63 -75z m1094 -7 c26 -7 24 -26 -5 -37 -29 -11 -56 -47 -56 -76 0 -12 9 -33
21 -48 27 -34 88 -37 120 -5 18 18 21 29 16 72 -8 60 3 78 43 71 18 -4 38 0
56 12 l29 19 -22 -35 c-47 -75 -105 -147 -162 -204 l-59 -59 -21 41 c-11 22
-34 49 -51 59 -22 13 -30 25 -30 46 0 15 -7 41 -15 56 -13 27 -13 30 11 52 14
13 42 46 62 72 l37 48 3 -39 c2 -30 8 -41 23 -45z m-641 -10 c36 -1 148 1 250
6 l185 7 -45 -40 c-25 -22 -61 -51 -81 -65 l-36 -26 -76 26 c-41 14 -98 25
-126 25 -55 0 -174 -23 -214 -41 -23 -11 -31 -9 -64 15 -21 14 -58 44 -83 67
l-45 40 135 -6 c74 -4 164 -7 200 -8z m-780 -115 c0 -4 -21 -25 -46 -46 -55
-46 -104 -120 -104 -155 0 -68 97 -138 250 -180 96 -27 284 -45 378 -36 62 6
72 4 72 -9 0 -44 -475 7 -611 65 -26 11 -59 34 -75 50 -24 25 -28 38 -28 82 1
66 22 106 92 179 52 55 72 69 72 50z m1732 -50 c70 -73 91 -113 92 -179 0 -44
-4 -57 -28 -82 -16 -16 -49 -39 -75 -50 -94 -40 -358 -81 -526 -81 -69 0 -85
3 -85 15 0 13 12 14 78 9 42 -3 127 -1 187 5 252 25 435 114 435 212 0 35 -49
109 -104 155 -44 36 -56 54 -38 54 5 0 34 -26 64 -58z m-852 -7 c0 -16 13 -35
41 -57 40 -32 69 -74 69 -100 0 -7 -6 -2 -13 12 -7 13 -28 35 -46 47 -43 29
-128 31 -188 4 -68 -31 -79 -72 -37 -135 l26 -38 -24 13 c-32 17 -38 28 -38
74 0 28 11 56 35 95 19 30 35 62 35 72 0 10 9 20 23 22 12 3 31 7 42 9 11 3
32 5 48 6 22 1 27 -3 27 -24z m131 -32 c90 -76 90 -223 1 -307 l-31 -29 -143
1 c-79 1 -146 1 -150 2 -18 1 -73 59 -89 95 -36 78 -14 186 46 233 35 28 45
20 18 -16 -54 -73 -66 -132 -39 -197 17 -40 60 -65 115 -65 37 0 71 19 71 40
0 4 -16 27 -35 50 -37 44 -39 49 -27 66 25 38 114 46 156 13 33 -26 33 -39 1
-69 -55 -52 -3 -116 69 -86 86 36 97 171 19 257 -40 45 -30 52 18 12z m-2247
-56 c16 -28 59 -97 96 -152 37 -55 97 -146 134 -202 36 -56 93 -130 126 -164
56 -59 59 -65 45 -85 -19 -29 -51 -36 -74 -16 -10 10 -76 102 -147 206 -142
212 -253 428 -233 452 17 21 22 18 53 -39z m1211 9 c0 -36 6 -51 30 -77 52
-54 130 -74 189 -48 22 11 32 7 88 -29 35 -23 79 -48 98 -57 34 -16 33 -16
-57 -10 -95 6 -274 45 -328 72 -43 22 -85 64 -85 86 0 23 16 55 43 85 11 12
21 22 21 22 1 0 1 -20 1 -44z m1771 -42 c8 -31 -18 -70 -64 -97 -63 -37 -290
-87 -392 -87 l-45 1 35 15 c19 8 63 33 96 55 53 34 65 38 88 29 65 -24 140 -5
191 49 24 26 30 41 30 77 l0 45 27 -30 c15 -17 31 -43 34 -57z m1203 72 c21
-25 -91 -240 -240 -460 -74 -109 -140 -201 -147 -203 -20 -8 -61 6 -71 25 -8
15 1 30 50 81 32 34 89 108 125 164 37 56 99 152 139 212 40 61 83 129 96 152
26 47 31 50 48 29z m-3137 -263 c33 -34 33 -69 1 -59 -10 3 -49 10 -88 17 -38
6 -74 15 -79 19 -4 5 18 33 50 64 l58 55 14 -32 c7 -18 27 -46 44 -64z m2195
-3 c17 -24 16 -24 -77 -40 -36 -6 -73 -13 -83 -16 -34 -10 -30 25 7 66 19 22
38 51 42 65 l6 25 46 -40 c25 -23 52 -50 59 -60z m-2067 -142 c0 -76 16 -162
67 -363 33 -128 46 -205 34 -205 -11 0 -47 69 -65 125 -8 28 -29 114 -46 193
-31 145 -38 250 -20 296 18 47 30 28 30 -46z m1810 46 c18 -46 11 -151 -20
-296 -39 -185 -94 -337 -115 -317 -8 9 15 131 50 259 43 159 55 227 55 312 0
71 13 88 30 42z m-1680 -49 c0 -68 64 -113 191 -135 35 -6 104 -22 152 -36 83
-24 120 -27 157 -10 13 5 14 -3 12 -53 -2 -32 1 -74 6 -92 l9 -34 -48 3 c-27
2 -49 8 -49 13 0 15 38 87 50 94 16 10 12 35 -5 35 -21 0 -59 -42 -83 -92 -19
-41 -20 -42 -103 -58 -101 -21 -112 -17 -187 64 -43 47 -67 93 -88 164 -2 7
-9 10 -15 6 -18 -11 -3 -90 28 -146 15 -27 50 -71 78 -97 l52 -46 -22 -19
c-12 -10 -35 -24 -51 -31 l-29 -12 -33 121 c-46 171 -72 294 -72 347 0 52 4
59 31 52 14 -4 19 -14 19 -38z m1566 -46 c-3 -43 -18 -120 -31 -171 -14 -51
-35 -132 -47 -179 l-22 -87 -33 14 c-18 8 -41 22 -51 32 -17 16 -15 19 33 64
28 25 63 69 78 96 31 56 46 135 28 146 -6 4 -13 1 -15 -6 -21 -71 -45 -117
-88 -164 -65 -71 -99 -89 -141 -75 -18 5 -54 13 -80 17 -45 6 -50 10 -68 50
-25 51 -62 94 -84 94 -17 0 -21 -25 -5 -35 12 -7 50 -79 50 -94 0 -5 -22 -11
-49 -13 l-48 -3 9 34 c5 18 8 60 6 92 -2 50 -1 58 12 53 37 -17 74 -14 157 10
48 14 117 30 152 36 127 22 191 67 191 135 0 24 5 35 18 38 31 7 35 -5 28 -84z
m-2065 -5 c-6 -32 -11 -75 -11 -96 0 -21 -3 -38 -6 -38 -17 0 -190 43 -196 49
-4 4 17 37 48 73 l55 66 29 -15 c33 -16 62 -6 75 24 13 33 17 -4 6 -63z m2566
26 c4 0 20 6 35 14 26 14 28 13 82 -52 31 -36 52 -69 48 -73 -6 -6 -178 -49
-194 -49 -3 0 -8 30 -11 68 -4 37 -9 85 -13 107 l-7 40 26 -27 c14 -16 30 -28
34 -28z m-1689 25 l133 0 -6 -25 c-3 -14 -14 -36 -24 -50 -22 -29 -42 -30
-151 -6 -41 9 -101 21 -133 27 -40 7 -69 20 -90 40 l-32 28 85 -7 c47 -4 145
-7 218 -7z m457 0 c-52 -31 -52 -31 3 -59 28 -14 56 -35 62 -46 6 -11 15 -20
20 -20 18 0 10 60 -9 79 -17 17 -18 22 -6 38 15 20 13 23 35 -52 7 -22 18 -50
26 -62 12 -20 12 -22 -1 -17 -31 12 -66 -6 -81 -41 -8 -19 -14 -39 -14 -45 0
-16 32 -12 47 8 25 30 9 -56 -22 -127 -73 -163 -197 -163 -270 0 -31 71 -47
157 -22 127 15 -20 47 -24 47 -8 0 6 -6 26 -14 45 -15 35 -50 53 -81 41 -13
-5 -13 -3 -1 17 8 12 19 40 26 62 22 75 20 72 35 52 12 -16 11 -21 -6 -38 -10
-10 -19 -32 -19 -49 0 -32 17 -41 27 -14 3 8 30 29 59 46 30 16 54 32 54 34 0
2 -16 12 -36 22 l-36 18 97 0 c70 -1 92 -4 80 -11z m578 -14 c-21 -20 -50 -33
-90 -40 -32 -6 -92 -18 -133 -27 -109 -24 -129 -23 -150 6 -10 14 -21 36 -24
50 l-5 25 97 -3 c53 -1 140 2 192 6 158 15 150 16 113 -17z m-2618 -147 c-21
-72 -53 -137 -113 -231 -65 -101 -81 -96 -42 15 27 76 152 294 163 283 5 -5 2
-34 -8 -67z m4066 -169 c29 -66 47 -135 33 -135 -11 0 -93 127 -127 195 -32
65 -60 161 -51 176 7 12 100 -139 145 -236z m-3516 89 c61 -14 159 -29 220
-32 95 -6 110 -9 113 -25 3 -17 -3 -17 -75 -12 -111 10 -377 43 -396 51 -13 5
-14 9 -4 25 15 24 11 24 142 -7z m2972 7 c10 -17 10 -21 -5 -25 -58 -17 -460
-61 -470 -51 -3 2 -2 11 1 20 5 12 25 15 94 16 58 0 128 10 208 29 148 34 157
35 172 11z m-1787 -191 c39 -11 81 -58 58 -64 -97 -28 -186 -60 -209 -77 -16
-11 -45 -47 -65 -80 -24 -39 -40 -56 -45 -48 -5 9 -14 8 -33 -5 -23 -14 -26
-14 -26 -1 0 10 -10 15 -31 15 -25 0 -30 3 -25 16 5 13 1 15 -19 12 -30 -6
-32 5 -5 43 14 19 39 34 75 45 30 10 55 21 55 26 0 11 -48 10 -90 -2 -18 -5
-36 -6 -39 -2 -4 5 -15 12 -26 16 -18 7 -16 10 15 21 20 7 55 16 78 20 47 8
57 25 15 25 -15 0 -23 4 -17 8 9 9 108 38 154 46 36 6 139 -2 180 -14z m732
-8 c67 -21 82 -32 45 -32 -42 0 -32 -17 15 -25 23 -4 58 -13 78 -20 31 -11 33
-14 15 -21 -11 -4 -22 -11 -26 -16 -3 -4 -21 -3 -39 2 -42 12 -90 13 -90 2 0
-5 25 -16 55 -26 36 -11 61 -26 75 -45 26 -37 25 -41 -5 -41 -18 0 -23 -4 -19
-15 5 -11 -1 -15 -20 -15 -15 0 -29 -7 -32 -15 -5 -12 -9 -12 -31 2 -18 12
-27 13 -32 5 -4 -7 -24 15 -51 55 -50 75 -89 100 -200 129 -36 9 -68 20 -72
23 -4 3 2 17 13 30 41 51 196 62 321 23z m-1398 -140 c9 -17 16 -51 16 -75 0
-81 49 -208 113 -292 17 -22 62 -73 101 -112 56 -58 66 -73 50 -73 -26 0 -88
44 -135 97 -83 92 -126 200 -170 427 -16 82 -29 152 -28 155 0 3 9 -17 18 -45
10 -27 26 -64 35 -82z m1816 -33 c-46 -230 -86 -330 -169 -422 -46 -52 -109
-97 -133 -97 -15 0 4 25 70 95 123 130 192 267 192 382 0 24 8 60 19 81 10 20
24 56 31 80 24 78 20 36 -10 -119z m-662 31 c102 -36 161 -115 149 -198 -3
-24 -6 -21 -30 30 -29 62 -65 94 -148 133 -78 35 -126 41 -269 35 -108 -5
-133 -10 -185 -33 -88 -41 -123 -72 -150 -133 -13 -30 -27 -54 -31 -54 -4 0
-4 23 -1 52 12 96 65 146 197 182 42 12 96 15 230 12 152 -2 183 -6 238 -26z
m-938 -34 c0 -3 -4 -15 -9 -28 -4 -13 -11 -36 -15 -51 -6 -26 -5 -28 15 -22
18 6 21 4 16 -9 -5 -12 0 -16 24 -16 22 0 32 -6 41 -25 12 -26 20 -29 52 -16
27 11 53 -17 48 -52 -6 -36 22 -67 60 -67 35 0 35 6 3 32 -14 11 -25 24 -25
29 0 6 7 3 17 -6 11 -12 27 -15 52 -12 44 5 81 -7 81 -27 0 -8 11 -23 24 -33
13 -11 25 -28 27 -39 2 -10 14 -23 27 -29 27 -12 24 -22 -11 -49 -25 -19 -28
-19 -44 -3 -14 14 -15 21 -4 43 13 30 9 39 -14 30 -36 -13 -38 -95 -2 -118 21
-13 72 -9 97 9 24 16 24 16 11 -1 -25 -31 -72 -49 -113 -43 -41 5 -50 -6 -19
-23 32 -16 103 -12 137 9 18 11 40 37 50 59 9 22 25 43 36 45 24 7 23 1 -12
-59 -23 -41 -41 -58 -82 -78 -64 -32 -71 -32 -111 -2 -18 14 -70 39 -117 57
-88 34 -158 89 -233 184 -30 38 -28 37 26 -12 32 -29 68 -53 79 -53 16 0 8 13
-41 69 -65 74 -123 163 -141 217 -11 31 -9 36 17 63 24 26 53 40 53 27z m1412
-26 l30 -31 -17 -45 c-22 -57 -70 -128 -141 -210 -47 -53 -53 -64 -36 -64 11
0 47 24 79 53 54 49 56 50 26 12 -75 -95 -145 -150 -233 -184 -47 -18 -99 -43
-117 -57 -40 -30 -47 -30 -111 2 -41 20 -59 37 -82 78 -35 60 -36 66 -12 59
11 -2 27 -23 36 -45 10 -22 32 -48 50 -59 34 -21 105 -25 137 -9 32 18 22 31
-19 24 -42 -7 -87 10 -113 42 -13 17 -13 17 11 1 25 -18 76 -22 97 -9 33 21
33 95 1 116 -24 15 -31 3 -17 -28 11 -22 10 -29 -4 -43 -16 -16 -19 -16 -44 3
-35 27 -38 37 -11 49 13 6 24 20 26 32 2 12 14 29 28 37 13 9 24 23 24 31 0
21 37 33 81 28 25 -3 41 0 52 12 10 9 17 12 17 6 0 -6 -11 -18 -25 -27 -33
-21 -32 -34 3 -34 38 0 66 31 60 67 -5 35 21 63 48 52 31 -12 39 -10 49 14 7
15 20 23 42 25 23 2 30 7 26 18 -3 9 2 14 15 14 20 0 21 2 7 48 -18 57 -17 52
-4 52 6 0 24 -14 41 -30z m-512 -228 c53 -8 54 -9 28 -20 -18 -7 -28 -19 -28
-32 0 -17 -4 -20 -20 -15 -14 5 -20 2 -20 -9 0 -14 -6 -18 -27 -15 -3 0 -10
-7 -15 -16 -9 -15 -11 -15 -35 0 -19 13 -27 14 -33 5 -4 -6 -16 -10 -26 -9
-11 2 -25 0 -31 -4 -7 -4 -21 -3 -32 2 -14 8 -21 8 -25 -2 -3 -8 -9 -7 -20 6
-13 17 -16 17 -39 2 -24 -15 -26 -15 -35 0 -5 9 -12 16 -15 16 -21 -3 -27 1
-27 15 0 11 -6 14 -20 9 -16 -5 -20 -2 -20 15 0 13 -10 25 -27 32 -26 11 -24
12 36 19 34 4 68 10 75 13 16 8 290 -2 356 -12z m-197 -179 c20 -4 32 -16 43
-42 8 -20 29 -53 45 -74 17 -21 29 -40 27 -43 -9 -8 -225 -17 -262 -10 l-37 7
24 20 c29 22 73 93 83 133 5 22 11 26 28 22 11 -4 34 -9 49 -13z m-298 -264
c96 -10 145 -27 145 -50 0 -7 -10 -9 -27 -4 -16 4 -91 9 -168 10 -134 2 -185
11 -200 34 -18 30 32 32 250 10z m800 1 c0 -31 -55 -44 -200 -46 -77 -1 -152
-5 -167 -9 -34 -9 -37 8 -5 29 21 14 156 33 282 39 84 5 90 4 90 -13z"/>
<path d="M2663 5555 c-60 -16 -128 -49 -139 -66 -8 -14 41 -9 157 16 69 15 80
15 113 1 21 -9 45 -29 57 -51 23 -39 39 -45 39 -15 0 47 -29 90 -72 110 -50
23 -84 24 -155 5z"/>
<path d="M3190 5301 c-75 -23 -157 -83 -201 -148 -31 -45 -54 -103 -40 -103 4
0 48 39 97 88 63 62 108 97 157 120 37 18 67 37 67 43 0 11 -44 11 -80 0z"/>
<path d="M2370 5182 c0 -5 23 -47 52 -93 176 -286 185 -303 315 -604 66 -151
150 -324 177 -360 41 -56 18 19 -75 247 -163 403 -225 521 -374 718 -68 90
-95 116 -95 92z"/>
<path d="M2909 4973 c-6 -16 -15 -53 -21 -83 -16 -87 6 -240 35 -240 9 0 13
51 14 175 2 172 -5 208 -28 148z"/>
<path d="M4703 5551 c-44 -21 -73 -62 -73 -106 0 -35 14 -31 39 10 12 22 36
42 57 51 33 14 44 14 113 -1 42 -9 96 -19 121 -21 l45 -5 -23 20 c-31 27 -121
60 -185 66 -39 4 -62 1 -94 -14z"/>
<path d="M4250 5302 c0 -6 30 -26 68 -44 48 -23 91 -57 155 -120 49 -49 91
-88 93 -88 15 0 -2 53 -30 96 -38 56 -88 100 -153 133 -50 25 -133 39 -133 23z"/>
<path d="M5057 5093 c-71 -94 -124 -176 -179 -273 -60 -107 -305 -697 -293
-708 16 -16 85 117 220 423 108 244 147 320 246 477 66 104 99 161 99 173 0
21 -29 -8 -93 -92z"/>
<path d="M4583 4826 c1 -127 5 -176 14 -176 51 0 47 330 -5 348 -7 2 -10 -48
-9 -172z"/>
<path d="M3107 3183 c-4 -3 -7 -24 -7 -45 0 -28 7 -46 24 -63 22 -22 81 -45
119 -45 25 0 21 24 -5 36 -23 10 -19 10 28 -2 34 -9 30 10 -8 39 -52 39 -144
88 -151 80z"/>
<path d="M4334 3149 c-75 -44 -104 -67 -104 -82 0 -5 12 -7 28 -3 15 3 21 3
15 0 -19 -8 -16 -34 5 -34 37 0 96 23 118 45 17 17 24 35 24 64 0 22 -4 42 -8
45 -5 3 -40 -13 -78 -35z"/>
</g>
</svg>
