<?xml version="1.0" standalone="no"?>
<!DOCTYPE svg PUBLIC "-//W3C//DTD SVG 20010904//EN"
 "http://www.w3.org/TR/2001/REC-SVG-20010904/DTD/svg10.dtd">
<svg version="1.0" xmlns="http://www.w3.org/2000/svg"
 width="752.000000pt" height="752.000000pt" viewBox="0 0 752.000000 752.000000"
 preserveAspectRatio="xMidYMid meet">
<metadata>
Created by potrace 1.16, written by Peter Selinger 2001-2019
</metadata>
<g transform="translate(0.000000,752.000000) scale(0.100000,-0.100000)"
fill="#fff" stroke="none">
<path d="M3214 5961 c-84 -51 -183 -222 -253 -436 -65 -200 -84 -344 -62 -477
4 -27 7 -48 6 -48 -2 0 -18 7 -38 15 -64 27 -131 37 -236 36 -120 0 -201 -14
-233 -40 -20 -17 -22 -26 -19 -107 6 -210 43 -312 155 -431 97 -104 153 -126
319 -131 90 -3 127 -7 124 -16 -2 -6 -13 -12 -25 -14 -42 -6 -85 -92 -97 -198
-4 -33 -12 -67 -17 -77 -19 -37 -94 -78 -207 -113 -64 -20 -122 -43 -128 -52
-7 -9 -13 -34 -13 -57 0 -57 34 -76 150 -83 l88 -5 -63 -97 c-125 -194 -259
-369 -374 -491 l-61 -64 0 -86 c0 -100 20 -176 54 -208 35 -33 65 -22 103 36
17 27 46 65 65 86 30 34 40 39 103 48 69 10 226 5 280 -9 22 -6 32 -20 54 -79
16 -39 44 -101 64 -136 32 -59 34 -67 20 -79 -17 -14 -73 -125 -73 -145 0 -7
-12 -29 -26 -50 -20 -30 -24 -45 -19 -73 14 -75 67 -153 185 -270 131 -131
237 -206 356 -252 l81 -30 7 -61 c7 -68 25 -103 61 -117 14 -5 31 -25 39 -44
21 -51 63 -69 145 -62 36 3 102 7 146 9 92 4 164 34 210 88 25 31 27 38 23
103 -3 39 -8 78 -12 86 -5 11 8 21 52 38 97 37 210 120 332 242 118 117 171
195 185 270 5 28 1 43 -19 73 -14 21 -26 43 -26 50 0 20 -56 131 -73 145 -14
12 -12 20 20 79 20 35 48 97 64 136 34 88 35 89 224 90 105 1 147 -2 170 -13
16 -8 54 -49 83 -90 64 -90 90 -104 127 -70 35 33 55 108 55 207 l0 84 -83 92
c-114 127 -198 237 -315 412 l-100 150 88 6 c117 9 150 27 150 84 0 23 -6 48
-12 57 -7 9 -65 32 -129 52 -113 35 -188 76 -207 113 -5 10 -13 44 -17 77 -12
106 -55 192 -97 198 -12 2 -23 8 -25 14 -3 9 34 13 124 16 166 5 222 27 319
131 112 119 149 221 155 431 3 81 1 90 -19 107 -32 26 -113 40 -233 40 -106 0
-173 -10 -236 -36 -20 -8 -36 -15 -38 -15 -1 0 2 21 6 48 22 133 -1 302 -66
493 -72 210 -177 384 -256 424 -15 8 -51 15 -79 15 -44 0 -52 -3 -62 -24 -9
-22 -6 -32 24 -78 180 -272 231 -652 116 -869 -16 -31 -51 -77 -77 -103 l-48
-47 -36 73 c-53 107 -219 323 -275 359 -54 34 -132 39 -188 13 -76 -36 -201
-202 -287 -381 l-35 -72 -55 57 c-65 69 -92 118 -118 219 -55 216 11 527 159
751 30 46 33 56 24 78 -10 21 -18 24 -64 24 -34 0 -64 -7 -84 -19z m-23 -168
c-96 -193 -136 -467 -96 -658 26 -123 75 -208 180 -311 l92 -90 -18 -23 -19
-24 -41 29 c-55 38 -131 123 -167 187 -50 86 -72 167 -79 287 -6 113 -16 138
-27 73 -18 -114 7 -276 59 -372 42 -77 112 -158 174 -205 55 -40 58 -44 46
-65 -12 -23 -13 -22 -83 48 -127 127 -198 254 -229 406 -14 74 -15 101 -6 175
13 103 75 295 139 430 40 85 90 170 101 170 2 0 -10 -26 -26 -57z m1204 -98
c70 -143 134 -334 148 -445 25 -200 -57 -403 -235 -581 -70 -70 -71 -71 -83
-48 -12 21 -9 25 46 65 62 47 132 128 174 205 52 96 77 258 59 372 -11 65 -21
40 -27 -73 -7 -120 -29 -201 -79 -287 -36 -64 -112 -149 -166 -187 l-40 -27
-24 24 -24 24 39 29 c117 87 214 234 242 369 40 192 1 460 -97 660 -23 48 -25
55 -8 35 12 -14 46 -74 75 -135z m-586 -469 c21 -12 123 -137 117 -143 -1 -2
-39 2 -84 7 -56 7 -108 7 -164 0 -45 -5 -86 -10 -91 -10 -14 0 49 84 92 123
45 40 86 48 130 23z m114 -202 l74 -16 26 -53 25 -52 -56 14 c-95 23 -302 28
-411 9 -52 -9 -96 -15 -98 -12 -2 2 6 24 18 49 21 43 25 45 88 60 89 20 243
21 334 1z m-1123 -73 c124 -43 138 -53 186 -132 24 -41 51 -85 60 -99 9 -14
-16 9 -54 50 -74 78 -95 77 -42 -2 44 -66 136 -149 212 -192 114 -63 115 -63
-119 -71 -221 -8 -263 -3 -335 38 -39 21 -60 18 -40 -6 24 -29 111 -66 177
-77 65 -11 179 -8 328 6 34 4 57 2 57 -4 0 -16 -77 -30 -226 -42 -226 -18
-311 4 -410 106 -92 93 -134 209 -134 366 l0 67 33 5 c113 19 231 14 307 -13z
m2238 12 c20 -5 22 -11 22 -72 0 -157 -42 -272 -135 -367 -97 -98 -182 -120
-405 -104 -152 12 -230 26 -230 42 0 6 23 8 58 4 148 -14 262 -17 327 -6 66
11 153 48 177 77 20 24 -1 27 -40 6 -72 -41 -114 -46 -335 -38 -234 8 -233 8
-119 71 76 43 168 126 212 192 53 79 32 80 -42 2 -38 -41 -63 -64 -54 -50 9
14 36 58 60 99 38 61 52 77 93 95 51 24 132 52 173 60 28 5 203 -3 238 -11z
m-1143 -83 c111 -16 182 -39 188 -61 6 -24 -8 -33 -53 -32 -288 10 -382 11
-473 5 -59 -4 -112 -3 -116 1 -16 16 1 46 33 56 27 9 103 24 176 35 52 7 177
5 245 -4z m-152 -257 c16 -3 45 0 65 6 24 8 46 9 61 3 23 -8 23 -9 -13 -30
-25 -15 -38 -31 -42 -52 -6 -28 -9 -30 -53 -30 -44 0 -47 2 -56 33 -7 21 -20
37 -42 47 -37 17 -41 26 -15 33 16 5 26 4 95 -10z m65 -213 c49 -57 127 -106
184 -115 48 -8 88 14 88 49 0 20 8 26 44 35 24 6 49 17 55 25 10 12 18 11 51
-8 22 -11 40 -24 40 -28 0 -13 -17 -9 -30 7 -16 19 -30 19 -30 0 0 -11 -8 -13
-30 -8 -28 5 -30 4 -30 -26 0 -28 -3 -31 -31 -31 -30 0 -31 -2 -25 -31 l6 -32
-47 7 c-27 3 -81 22 -122 41 -41 20 -76 33 -79 30 -12 -12 53 -65 111 -91 45
-20 84 -29 140 -32 l77 -5 -10 27 c-9 24 -7 26 15 26 22 0 25 4 25 35 0 40 14
46 31 13 6 -13 20 -32 31 -44 19 -21 19 -21 -5 -37 -35 -23 -96 -47 -119 -47
-30 0 -230 59 -255 76 -15 10 -53 14 -122 14 -85 0 -111 -4 -178 -29 -43 -15
-111 -36 -152 -46 -81 -19 -109 -15 -179 27 -33 20 -33 20 -14 42 11 11 25 31
31 44 18 35 38 28 33 -13 -4 -32 -2 -35 22 -35 23 0 25 -2 16 -26 l-10 -27 77
5 c56 3 95 12 140 32 58 26 123 79 111 91 -3 3 -38 -10 -79 -30 -41 -19 -95
-38 -122 -41 l-47 -7 6 32 c6 29 5 31 -25 31 -28 0 -31 3 -31 31 0 30 -2 31
-30 26 -22 -5 -30 -3 -30 8 0 19 -14 19 -30 0 -13 -16 -30 -20 -30 -7 0 4 18
17 40 28 33 19 41 20 51 8 6 -8 31 -19 55 -25 36 -9 44 -15 44 -35 0 -35 40
-57 88 -49 57 9 135 58 184 115 24 27 45 50 48 50 3 0 24 -23 48 -50z m-601
-266 c-4 -4 -272 -73 -274 -70 -2 1 1 22 5 47 l7 44 98 6 c54 4 101 9 104 12
3 3 18 -4 34 -15 16 -12 28 -23 26 -24z m685 12 c57 -19 159 -46 228 -61 69
-14 193 -41 275 -60 83 -19 166 -37 186 -40 19 -4 40 -15 47 -25 11 -18 10
-19 -13 -10 -50 19 -184 50 -367 85 -103 19 -226 48 -275 64 -88 30 -115 32
-79 5 42 -30 178 -74 341 -109 217 -46 299 -67 408 -104 48 -16 109 -33 135
-36 66 -9 152 -37 146 -47 -17 -27 -323 17 -599 86 -93 24 -259 69 -367 101
l-197 58 -248 -71 c-310 -89 -457 -125 -648 -157 -152 -25 -260 -32 -269 -17
-6 10 79 38 144 47 25 3 92 22 150 40 126 41 174 53 395 100 162 35 299 79
341 109 36 27 8 25 -81 -5 -50 -16 -173 -45 -275 -65 -182 -34 -315 -65 -365
-84 -23 -9 -24 -8 -13 10 7 11 29 22 53 25 22 4 92 20 155 35 63 16 167 38
230 50 132 25 227 50 320 85 87 32 120 31 242 -9z m611 14 c72 0 72 1 80 -61
l5 -37 -51 12 c-29 7 -92 23 -140 36 l-88 23 27 22 c23 18 34 21 63 14 20 -5
67 -9 104 -9z m-480 -269 c135 -38 262 -73 282 -77 20 -3 34 -8 32 -10 -2 -2
-62 5 -133 16 -230 35 -212 34 -189 15 24 -19 82 -36 227 -66 100 -20 107 -23
97 -41 -6 -10 -21 -23 -34 -28 -32 -12 -379 -11 -428 2 -34 8 -38 12 -33 31
13 43 19 117 10 117 -5 0 -17 -26 -27 -58 -43 -134 -34 -138 372 -151 173 -6
317 -8 320 -5 10 9 -22 22 -85 34 l-62 12 15 30 c8 16 13 40 10 54 -9 49 31
23 112 -73 44 -53 81 -99 81 -102 0 -4 -373 -6 -830 -6 -456 0 -830 2 -830 6
0 3 37 49 81 102 81 96 121 122 112 73 -3 -14 2 -38 10 -54 l15 -30 -62 -12
c-63 -12 -95 -25 -85 -34 3 -3 147 -1 320 5 406 13 415 17 372 151 -10 32 -22
58 -27 58 -9 0 -3 -74 10 -117 5 -19 1 -23 -33 -31 -21 -6 -127 -9 -236 -9
-197 2 -199 2 -218 26 -11 13 -18 25 -17 26 2 2 67 17 145 33 131 28 212 56
199 69 -3 3 -45 -2 -93 -10 -210 -38 -215 -29 -18 27 105 30 226 66 270 79 44
14 85 24 91 22 6 -2 122 -35 257 -74z m-837 -428 c51 -49 129 -74 253 -80 129
-7 172 6 235 68 41 41 55 49 86 49 31 0 45 -8 86 -49 63 -62 106 -75 235 -68
124 6 202 31 253 80 56 53 69 47 45 -22 -8 -22 -14 -29 -19 -21 -11 18 -24 6
-58 -53 -34 -57 -107 -137 -125 -137 -7 1 -23 7 -37 15 -29 17 -100 20 -100 5
0 -6 11 -15 25 -22 29 -13 24 -28 -11 -28 -15 0 -24 6 -24 15 0 22 -30 77 -49
92 -9 7 -28 13 -43 13 -22 0 -32 8 -47 38 -28 56 -94 112 -131 112 -37 0 -103
-56 -131 -112 -16 -31 -25 -38 -48 -38 -36 0 -79 -42 -87 -86 -5 -27 -11 -34
-30 -34 -33 0 -38 15 -9 28 14 7 25 16 25 22 0 15 -71 12 -100 -5 -14 -8 -30
-14 -37 -15 -18 0 -91 80 -125 137 -34 59 -47 71 -58 53 -5 -8 -11 -1 -19 21
-24 69 -11 75 45 22z m624 -74 c25 -39 44 -83 51 -120 6 -32 15 -59 19 -59 4
0 15 11 24 25 9 14 21 25 26 25 17 0 42 -48 36 -68 -8 -25 -164 -102 -206
-102 -42 0 -198 77 -206 102 -6 20 19 68 36 68 5 0 17 -11 26 -25 23 -35 31
-31 39 18 12 73 79 197 106 197 5 0 27 -27 49 -61z m-808 -134 c20 -49 24 -72
20 -127 -6 -88 21 -177 88 -288 48 -81 97 -144 371 -482 64 -79 140 -178 168
-221 52 -77 52 -79 34 -100 -21 -25 -45 -46 -54 -47 -3 0 -35 39 -72 88 -36
48 -109 132 -163 187 -227 235 -374 459 -457 698 -29 85 -31 102 -32 222 0
114 3 137 24 190 l24 60 13 -60 c6 -33 23 -87 36 -120z m1599 82 c32 -102 24
-247 -20 -377 -77 -229 -230 -462 -455 -695 -53 -55 -122 -134 -153 -175 -32
-41 -60 -79 -63 -83 -9 -11 -100 15 -100 28 0 21 114 182 229 324 64 78 162
200 218 270 182 225 251 367 240 497 -4 54 0 76 23 137 16 39 31 94 35 121 9
57 16 50 46 -47z m-1188 -186 c63 -16 123 -34 134 -39 54 -29 143 -51 214 -51
61 0 91 6 155 30 43 17 130 44 193 60 107 27 151 30 151 9 0 -13 -34 -30 -60
-30 -16 0 -19 -4 -14 -24 6 -25 -13 -36 -63 -36 -14 0 -23 -6 -23 -15 0 -12
-8 -14 -40 -9 -33 5 -40 4 -40 -10 0 -12 -10 -16 -40 -16 -33 0 -40 -3 -40
-20 0 -15 -7 -20 -29 -20 -16 0 -31 -5 -33 -12 -3 -7 -23 -3 -61 15 l-57 26
-57 -26 c-38 -18 -58 -22 -61 -15 -2 7 -17 12 -33 12 -25 0 -29 4 -29 26 0 25
-2 25 -40 19 -34 -6 -40 -4 -40 10 0 15 -6 17 -40 11 -32 -5 -40 -3 -40 9 0 9
-9 15 -22 15 -51 0 -70 11 -64 36 5 20 3 24 -17 24 -13 0 -32 7 -43 15 -16 13
-17 16 -4 25 20 13 12 14 143 -19z m844 -210 c-116 -262 -282 -421 -442 -421
-77 0 -164 24 -258 70 -113 57 -130 72 -193 166 -101 152 -185 380 -126 343
10 -6 25 -24 34 -39 9 -16 31 -33 53 -40 55 -18 75 -39 75 -80 0 -76 69 -136
190 -164 80 -19 90 -20 90 -2 0 7 -27 24 -60 36 -34 13 -59 24 -58 25 2 2 28
-1 58 -7 30 -6 111 -8 180 -6 102 4 133 9 167 26 45 23 75 60 88 107 8 26 9
27 12 8 10 -55 -48 -107 -169 -154 -32 -12 -58 -28 -58 -35 0 -18 10 -17 90 2
121 28 190 88 190 164 0 41 20 62 74 80 20 6 44 24 53 38 10 15 24 34 33 43
14 14 15 12 18 -21 2 -27 -9 -66 -41 -139z m-1433 137 c3 -7 7 -25 10 -39 l5
-25 -77 9 c-42 4 -105 6 -139 4 l-62 -5 26 34 25 34 105 0 c74 0 105 -4 107
-12z m2108 -20 l25 -33 -111 -1 c-61 0 -123 -4 -139 -7 -26 -7 -27 -6 -21 20
3 16 7 34 10 41 2 8 33 12 107 12 l105 0 24 -32z m-1425 -557 c90 -56 335 -80
452 -45 29 8 55 13 57 11 3 -3 -8 -16 -24 -29 -25 -21 -48 -27 -150 -38 -193
-21 -284 0 -351 80 -23 28 -40 50 -37 50 2 0 26 -13 53 -29z m-372 -73 c16
-23 57 -72 90 -108 l62 -65 -23 -32 -22 -33 -80 78 -81 77 6 63 c3 34 8 62 12
62 3 0 19 -19 36 -42z m1293 10 c-1 -18 1 -47 6 -64 7 -30 3 -36 -75 -107
l-82 -76 -22 32 -22 32 62 65 c33 36 74 85 90 108 36 50 46 52 43 10z m-939
-438 c21 0 51 -30 51 -51 0 -20 -28 -39 -59 -39 -11 0 -47 12 -81 27 -47 20
-60 30 -55 42 4 9 9 28 12 42 l5 26 56 -23 c32 -13 63 -24 71 -24z m691 -36
c0 -3 -116 -52 -136 -58 -15 -5 -26 2 -42 24 -19 25 -20 33 -10 50 7 11 22 20
33 20 11 0 45 11 75 23 l55 22 12 -40 c7 -22 13 -41 13 -41z m-325 -43 c54
-25 82 -56 66 -75 -15 -17 -186 -89 -268 -112 -72 -20 -93 -11 -93 38 0 53 25
95 71 119 104 53 159 60 224 30z m175 -193 c0 -49 -32 -81 -96 -97 -26 -7 -48
-11 -49 -9 -1 2 -5 27 -7 55 l-5 52 41 16 c23 9 52 25 66 35 23 18 26 18 38 3
6 -9 12 -34 12 -55z"/>
<path d="M3404 2823 c14 -62 140 -143 221 -143 19 0 23 -7 28 -42 5 -40 49
-100 63 -86 3 4 0 29 -6 56 -10 36 -10 60 -3 89 l10 41 -66 4 c-74 6 -147 34
-203 78 -46 37 -52 37 -44 3z"/>
<path d="M4063 2815 c-56 -44 -141 -75 -207 -75 l-54 0 11 -41 c7 -31 7 -55
-3 -91 -13 -54 -9 -68 15 -48 23 19 45 65 45 95 0 21 5 25 28 25 80 0 204 81
218 143 8 35 -1 33 -53 -8z"/>
</g>
</svg>
