<?xml version="1.0" standalone="no"?>
<!DOCTYPE svg PUBLIC "-//W3C//DTD SVG 20010904//EN"
 "http://www.w3.org/TR/2001/REC-SVG-20010904/DTD/svg10.dtd">
<svg version="1.0" xmlns="http://www.w3.org/2000/svg"
 width="752.000000pt" height="752.000000pt" viewBox="0 0 752.000000 752.000000"
 preserveAspectRatio="xMidYMid meet">
<metadata>
Created by potrace 1.16, written by Peter Selinger 2001-2019
</metadata>
<g transform="translate(0.000000,752.000000) scale(0.100000,-0.100000)"
fill="#fff" stroke="none">
<path d="M3746 5945 c-20 -46 -143 -170 -253 -254 -51 -38 -83 -69 -83 -80 0
-10 15 -52 33 -92 91 -200 133 -389 152 -689 l6 -95 -68 -17 c-37 -9 -75 -19
-84 -23 -12 -4 -23 6 -43 38 -54 94 -158 151 -272 152 -70 0 -72 1 -119 43
-109 101 -240 124 -441 79 -117 -27 -221 -68 -278 -112 -65 -50 -96 -126 -62
-154 8 -7 70 -26 138 -42 68 -17 150 -45 183 -62 114 -61 305 -279 305 -349 0
-9 -22 -57 -49 -109 -49 -95 -72 -152 -90 -224 l-10 -40 -138 0 c-133 0 -140
-1 -198 -30 -38 -19 -66 -41 -77 -61 -54 -94 -38 -347 33 -510 16 -38 17 -49
7 -56 -7 -4 -15 -8 -18 -8 -3 0 -18 -20 -35 -45 -25 -38 -35 -45 -63 -45 -39
0 -72 -15 -72 -33 0 -7 -13 -40 -29 -74 -28 -58 -32 -62 -68 -65 -36 -3 -39
-6 -77 -80 -36 -71 -42 -78 -75 -84 -20 -4 -41 -11 -48 -16 -6 -5 -31 -63 -55
-129 -37 -101 -46 -119 -64 -119 -31 0 -38 -12 -83 -154 -45 -141 -48 -167
-26 -190 24 -24 186 -65 316 -80 68 -8 81 3 98 89 6 32 15 63 20 68 25 25 431
57 822 64 l336 6 94 -124 c52 -68 129 -159 172 -203 70 -73 76 -81 62 -96 -43
-48 -40 -132 8 -187 26 -30 28 -37 18 -59 -42 -92 41 -154 205 -154 87 0 174
29 204 67 23 29 25 74 6 118 -10 24 -10 34 1 55 20 40 17 123 -7 153 l-21 26
79 79 c43 44 120 135 172 202 l93 123 336 -6 c391 -7 797 -39 822 -64 5 -5 14
-36 20 -68 17 -86 30 -97 98 -89 130 15 292 56 316 80 22 23 19 49 -26 190
-45 142 -52 154 -83 154 -18 0 -27 16 -59 109 -47 134 -56 147 -105 155 -37 5
-41 10 -78 83 -38 75 -41 78 -77 81 -36 3 -40 7 -68 65 -16 34 -29 67 -29 74
0 18 -33 33 -72 33 -28 0 -37 6 -61 45 -16 25 -32 45 -35 45 -4 0 -13 4 -20 8
-10 7 -8 19 8 58 38 87 62 211 62 319 1 163 -22 215 -114 256 -47 21 -68 23
-191 24 l-138 0 -10 40 c-18 72 -41 129 -90 224 -27 52 -49 100 -49 109 0 70
191 288 305 349 33 17 115 45 183 62 68 16 130 35 138 42 34 28 3 104 -62 154
-57 44 -161 85 -278 112 -201 45 -332 22 -441 -79 -47 -42 -49 -43 -119 -43
-114 -1 -218 -58 -272 -152 -20 -32 -31 -42 -43 -38 -9 4 -45 14 -81 23 -36 9
-66 17 -68 18 -9 5 22 332 39 418 24 121 70 265 115 364 19 41 34 83 34 93 0
11 -32 42 -82 80 -113 85 -224 198 -247 250 l-19 42 -16 -38z m95 -219 c42
-41 96 -87 118 -102 23 -14 41 -30 41 -34 0 -4 -18 -52 -39 -106 -101 -256
-137 -517 -129 -932 3 -189 3 -191 -17 -178 -19 13 -20 25 -20 382 0 362 10
738 21 800 8 45 -10 74 -46 74 -16 0 -36 -7 -44 -16 -23 -23 -20 -70 5 -88 26
-18 25 6 14 -648 l-8 -467 -26 -25 -26 -25 3 191 c8 418 -28 677 -131 937
l-41 104 24 16 c33 22 148 121 184 160 17 17 32 31 34 31 3 0 40 -33 83 -74z
m-985 -807 c36 -14 75 -39 108 -71 l51 -49 -24 -13 c-26 -14 -50 -51 -51 -77
0 -9 9 -28 21 -43 24 -31 81 -36 118 -10 18 13 22 23 19 53 -3 20 -8 44 -12
53 -6 13 0 19 31 28 35 11 46 9 91 -10 68 -29 126 -93 146 -161 9 -29 16 -56
16 -60 0 -4 -21 -10 -47 -14 -69 -10 -124 -69 -148 -158 -23 -86 -17 -243 14
-337 l21 -65 -22 -42 c-20 -37 -21 -46 -11 -74 9 -24 10 -36 2 -46 -21 -25
-31 -14 -24 27 6 37 5 41 -27 60 -18 11 -45 20 -59 20 -25 0 -27 4 -49 112
-56 281 -109 397 -245 534 -105 105 -174 145 -338 195 -121 37 -121 35 -22 86
66 34 256 82 327 83 35 0 79 -8 114 -21z m2088 -9 c110 -28 186 -59 231 -94
11 -8 17 -16 14 -16 -4 0 -53 -14 -110 -31 -158 -47 -229 -88 -334 -193 -136
-137 -189 -253 -245 -534 -22 -108 -24 -112 -49 -112 -14 0 -41 -9 -59 -20
-32 -19 -33 -23 -27 -60 7 -42 -3 -52 -26 -24 -10 12 -10 20 -1 35 17 27 15
49 -8 87 l-20 33 21 67 c31 97 37 253 14 339 -24 89 -79 148 -147 158 -27 4
-48 10 -48 14 0 4 7 31 16 60 20 68 78 132 146 161 45 19 56 21 91 10 31 -9
37 -15 31 -28 -4 -9 -9 -33 -12 -53 -3 -30 1 -40 19 -53 37 -26 94 -21 118 10
12 15 21 34 21 43 -1 26 -25 63 -51 77 l-24 13 51 49 c99 96 197 112 388 62z
m-1433 -411 c-97 -115 -176 -292 -196 -439 l-8 -55 -14 34 c-13 32 -12 43 17
145 39 136 68 197 130 272 38 47 113 114 127 114 2 0 -24 -32 -56 -71z m530
-1 c90 -90 125 -156 173 -329 25 -88 26 -99 13 -130 l-14 -34 -8 55 c-20 148
-99 324 -196 440 -67 79 -48 78 32 -2z m-513 -133 c-26 -75 -50 -126 -69 -147
-40 -44 -63 -117 -53 -171 8 -47 6 -105 -4 -157 l-8 -34 -22 36 c-22 35 -22
41 -12 116 22 163 78 308 161 420 22 28 41 52 43 52 2 0 -15 -52 -36 -115z
m536 -45 c50 -96 80 -193 96 -312 10 -74 10 -81 -11 -114 -12 -19 -23 -34 -24
-32 -12 13 -22 142 -13 176 13 53 -10 135 -51 179 -20 22 -43 72 -70 150 l-39
118 34 -40 c19 -22 54 -78 78 -125z m-268 5 c26 -14 54 -25 63 -26 9 0 -2 -6
-24 -13 l-40 -12 -3 -91 c-3 -96 -14 -120 -49 -109 -16 5 -18 18 -18 103 l0
97 -39 11 -39 11 49 26 c27 14 50 26 51 27 1 0 23 -10 49 -24z m152 -465 c7
-42 -20 -50 -162 -49 -160 0 -210 8 -214 32 -8 41 -1 42 189 41 l184 0 3 -24z
m-1243 -130 c59 -31 83 -72 96 -169 9 -67 9 -72 -20 -129 -16 -32 -33 -76 -37
-98 -4 -21 -12 -42 -18 -46 -20 -13 -156 -9 -184 6 -68 36 -95 91 -112 229
-17 143 -5 189 56 222 45 24 157 16 219 -15z m2318 21 c68 -26 84 -82 67 -228
-17 -138 -44 -193 -112 -229 -28 -15 -164 -19 -184 -6 -6 4 -14 23 -18 42 -3
19 -20 64 -36 99 -29 61 -30 68 -21 132 15 113 43 152 129 184 43 16 140 19
175 6z m-1583 -63 c0 -17 -37 -58 -52 -58 -5 0 -7 -24 -6 -52 3 -52 2 -53 -24
-50 -19 2 -32 -5 -47 -24 l-21 -27 -36 29 c-20 16 -36 34 -35 39 0 6 29 12 63
15 58 5 63 7 66 30 7 65 14 90 33 114 17 22 23 24 40 13 10 -6 19 -20 19 -29z
m712 -1 c6 -12 13 -43 17 -71 l6 -51 55 -3 c85 -4 88 -8 50 -47 -39 -40 -56
-44 -65 -15 -7 21 -12 23 -55 24 -23 1 -25 4 -23 49 3 43 0 51 -27 74 -34 28
-38 50 -13 69 20 14 36 5 55 -29z m-632 -52 c0 -19 -9 -50 -21 -69 -15 -25
-19 -44 -14 -65 12 -57 93 -101 160 -89 14 3 25 1 25 -5 0 -19 -283 15 -321
39 -16 9 1 24 27 24 38 0 64 33 64 83 0 31 6 49 19 61 11 10 22 28 25 41 9 36
36 21 36 -20z m465 15 c-3 -6 -19 -17 -36 -25 -35 -19 -36 -29 -4 -67 31 -37
31 -53 0 -74 -18 -12 -31 -14 -52 -6 -27 8 -28 12 -25 61 3 35 -1 59 -12 76
-16 24 -15 24 22 30 20 4 44 8 52 10 34 7 61 4 55 -5z m95 -95 c0 -52 17 -75
60 -84 94 -19 -7 -60 -167 -68 -93 -5 -103 -4 -103 12 0 12 5 15 16 11 27 -10
82 4 109 30 29 27 34 77 9 112 -9 13 -11 22 -4 22 6 0 16 11 22 25 l11 25 24
-22 c17 -16 23 -32 23 -63z m-280 45 c28 -28 25 -54 -11 -84 -40 -34 -72 -33
-99 1 -24 30 -20 69 7 91 26 19 80 15 103 -8z m-580 -191 c29 -22 67 -43 83
-46 16 -3 31 -13 34 -22 31 -103 87 -128 241 -107 57 7 66 6 85 -12 66 -62
232 -65 288 -6 19 20 32 24 87 24 36 0 82 5 104 12 42 12 98 68 98 96 0 11 25
36 62 61 57 39 65 42 107 36 26 -3 61 -11 78 -16 30 -10 32 -12 19 -32 -8 -12
-17 -36 -21 -54 -8 -40 -17 -47 -85 -70 -46 -15 -58 -24 -73 -55 l-18 -36 -97
-7 c-53 -3 -140 -11 -192 -17 -55 -6 -158 -7 -245 -4 -82 4 -208 9 -280 11
-71 3 -203 12 -292 22 l-163 17 0 27 c0 14 -9 38 -20 52 -11 14 -20 32 -20 41
0 9 -6 32 -14 51 l-15 34 47 15 c109 35 138 33 202 -15z m1385 -56 c33 -49 32
-86 -1 -112 -28 -22 -49 -27 -157 -40 -81 -9 -85 4 -8 31 68 23 75 29 90 80
11 36 36 78 47 78 2 0 15 -17 29 -37z m-1105 -32 c36 -6 149 -13 252 -17 l187
-7 -14 -27 c-34 -65 -155 -64 -231 2 l-35 31 -79 -17 c-105 -23 -155 -13 -181
36 -9 16 -7 18 13 13 13 -2 52 -9 88 -14z m-726 -264 c21 -38 35 -71 33 -74
-3 -2 -73 0 -157 6 -83 6 -165 11 -181 11 l-29 0 42 63 41 63 107 -1 107 0 37
-68z m2264 6 l42 -63 -29 0 c-16 0 -98 -5 -181 -11 -84 -6 -154 -8 -157 -6 -2
3 12 36 33 74 l37 68 107 0 107 1 41 -63z m-2106 0 c4 -2 27 -41 50 -85 23
-45 70 -120 104 -167 33 -48 98 -149 144 -226 119 -201 165 -270 237 -357 68
-82 192 -202 254 -246 50 -35 51 -51 2 -21 -122 73 -208 159 -353 354 -198
266 -359 508 -464 698 l-38 68 28 -7 c16 -4 32 -9 36 -11z m1702 -15 c-70
-138 -234 -390 -413 -637 -147 -202 -239 -312 -311 -369 -85 -67 -78 -36 9 44
134 125 210 227 371 499 46 77 111 178 144 226 34 47 81 122 104 166 31 60 49
84 70 91 42 16 44 14 26 -20z m-529 -73 c64 -52 125 -79 228 -100 22 -4 26 -9
18 -18 -7 -9 -31 -11 -88 -6 -130 12 -331 10 -706 -7 l-358 -17 -21 21 -21 21
29 6 c104 22 165 48 229 100 22 18 51 35 65 37 14 2 151 2 305 -1 l280 -4 40
-32z m-1475 -75 c80 -5 168 -12 196 -15 52 -6 52 -7 82 -67 2 -5 -129 -8 -292
-8 l-296 0 31 50 c30 50 31 50 82 50 29 0 117 -5 197 -10z m2539 -40 l31 -50
-296 0 c-163 0 -294 3 -292 8 30 60 30 61 82 67 76 9 281 22 368 24 l76 1 31
-50z m-947 -99 l56 -6 -25 -42 -25 -43 -282 0 c-156 0 -364 -3 -463 -7 l-181
-6 -25 39 -24 39 29 3 c183 20 828 36 940 23z m-1224 -81 l23 -40 -28 0 c-15
0 -129 -7 -253 -15 -220 -14 -530 -20 -530 -10 0 3 12 27 28 55 l27 50 355 0
355 0 23 -40z m2285 -10 c15 -28 27 -52 27 -55 0 -10 -310 -4 -530 10 -124 8
-238 15 -253 15 l-28 0 23 40 23 40 355 0 355 0 28 -50z m-3282 -36 c33 -22
42 -24 74 -15 l36 10 -30 -52 -30 -52 -98 3 c-54 2 -100 6 -102 7 -3 4 27 101
36 118 10 17 78 6 114 -19z m3652 -37 c10 -32 17 -60 16 -62 -2 -1 -48 -5
-102 -7 l-98 -3 -30 52 -30 52 37 -10 c32 -9 40 -8 73 16 27 19 46 25 75 23
38 -3 40 -4 59 -61z m-1483 -25 c0 -4 -13 -29 -30 -55 l-30 -47 -350 0 -350 0
-31 48 -30 47 233 5 c415 10 588 10 588 2z m-1051 -69 l30 -48 -277 -6 c-291
-7 -360 -11 -610 -35 -85 -9 -156 -13 -158 -11 -3 3 7 30 23 61 l27 56 201 1
c110 0 288 7 395 13 107 7 227 14 266 15 l72 1 31 -47z m1636 32 c127 -8 316
-15 420 -15 l191 0 27 -56 c16 -31 26 -58 23 -61 -2 -2 -73 2 -158 11 -250 24
-319 28 -610 35 l-277 6 30 48 c37 56 12 54 354 32z m-2761 -142 c-13 -32 -29
-82 -35 -111 l-12 -53 -47 6 c-75 10 -185 40 -185 51 1 5 7 35 14 67 l14 57
42 0 c24 0 62 -7 86 -15 52 -19 84 -13 100 18 12 22 28 37 40 37 4 0 -4 -26
-17 -57z m3538 41 c50 -61 61 -64 121 -39 20 8 56 15 80 15 l44 0 14 -57 c7
-32 13 -62 14 -68 0 -10 -112 -41 -185 -51 l-46 -6 -13 53 c-6 30 -22 80 -35
112 -23 55 -20 73 6 41z m-1513 -96 c-47 -61 -245 -258 -260 -258 -16 0 -188
169 -245 242 l-45 58 291 0 292 0 -33 -42z m-253 -505 c27 -5 45 1 84 25 l50
31 6 -26 c9 -33 -4 -53 -47 -76 -49 -26 -176 -20 -216 9 -34 25 -41 59 -18 84
17 19 19 18 62 -11 24 -17 59 -33 79 -36z"/>
<path d="M2529 3716 c-36 -21 -59 -74 -59 -134 0 -63 12 -96 46 -127 22 -21
37 -25 86 -25 70 0 107 17 144 65 19 25 27 49 28 79 1 55 -17 89 -68 123 -50
33 -136 42 -177 19z"/>
<path d="M4845 3716 c-71 -31 -113 -102 -99 -164 9 -38 50 -89 84 -107 37 -19
123 -19 159 0 38 19 61 71 61 135 0 64 -23 116 -61 135 -35 18 -104 19 -144 1z"/>
</g>
</svg>
