<svg xmlns="http://www.w3.org/2000/svg" version="1.0" preserveAspectRatio="xMidYMid meet" viewBox="275 235.22 201.87 283.65">
<metadata>
Created by potrace 1.16, written by Peter Selinger 2001-2019
</metadata>
<g transform="translate(0.000000,752.000000) scale(0.100000,-0.100000)" fill="#000000" stroke="none">
<path d="M2865 5153 c-44 -23 -74 -53 -96 -95 -18 -36 -19 -79 -19 -1306 l0 -1269 23 -44 c16 -29 40 -54 72 -74 l48 -30 841 -3 c643 -2 852 0 886 10 66 18 125 81 140 149 8 40 10 382 8 1294 l-3 1240 -24 42 c-14 24 -42 55 -64 70 l-40 28 -871 2 c-780 2 -874 1 -901 -14z m1772 -34 c30 -15 52 -35 71 -67 l27 -47 3 -1220 c2 -830 -1 -1236 -8 -1269 -12 -58 -48 -109 -93 -134 -30 -16 -91 -17 -877 -17 -811 0 -847 1 -883 19 -22 11 -51 37 -65 59 l-27 41 -3 1245 c-1 685 0 1261 3 1279 7 39 58 100 100 118 24 11 198 13 869 14 832 0 840 0 883 -21z"/>
<path d="M3100 3750 l0 -1100 660 0 660 0 0 1100 0 1100 -660 0 -660 0 0 -1100z m421 1008 l85 -71 -15 -41 c-16 -45 -22 -215 -8 -254 7 -17 4 -24 -10 -28 -134 -47 -328 -146 -430 -220 l-23 -16 0 200 0 200 30 -30 c25 -24 36 -29 58 -23 15 3 35 14 45 23 18 16 18 15 11 -13 -4 -17 -11 -40 -15 -52 -8 -22 -6 -23 37 -23 50 0 48 -5 28 67 -6 22 -5 22 24 7 64 -31 112 7 112 90 0 66 -31 127 -100 199 l-56 57 71 0 70 0 86 -72z m879 -110 c-1 -129 -4 -178 -11 -165 -6 11 -22 17 -44 17 -39 0 -38 -4 -37 150 1 81 -14 120 -47 120 -37 0 -45 -26 -45 -151 l0 -119 -31 0 c-36 0 -55 -15 -55 -46 0 -29 24 -47 55 -42 25 5 25 4 25 -58 0 -35 -2 -64 -5 -64 -5 0 -66 29 -73 35 -1 1 -29 74 -61 163 l-58 161 55 91 55 90 138 0 139 0 0 -182z m-585 16 c15 -4 30 -31 59 -112 21 -59 41 -112 43 -119 5 -13 -133 -86 -184 -98 -48 -10 -100 11 -119 47 -31 61 -29 181 6 272 l10 29 83 -7 c45 -4 91 -10 102 -12z m581 -492 c-3 -3 -21 7 -41 22 l-35 27 0 98 0 98 30 -5 c22 -3 32 0 37 14 5 11 9 -41 11 -115 1 -73 0 -136 -2 -139z m-278 133 c52 -25 133 -71 180 -102 l85 -56 -34 -16 -34 -17 -80 55 c-44 30 -121 74 -172 99 -84 40 -91 46 -80 63 17 27 28 25 135 -26z m-554 -3 c15 -18 13 -20 -54 -46 -39 -16 -122 -59 -186 -97 -105 -64 -117 -69 -155 -63 l-40 7 53 38 c85 62 311 177 349 178 9 1 23 -7 33 -17z m429 -62 c-47 -46 -53 -76 -53 -270 0 -173 -1 -180 -20 -180 -11 0 -29 9 -40 20 -19 19 -20 33 -20 233 l1 212 42 20 c39 18 45 19 78 5 l37 -15 -25 -25z m-362 20 c18 -10 19 -23 19 -225 0 -137 -4 -215 -10 -215 -5 0 -10 -7 -10 -15 0 -9 -9 -15 -25 -15 l-25 0 0 178 c-1 168 -4 193 -34 263 -5 12 1 19 26 26 18 6 34 11 36 12 2 1 12 -4 23 -9z m209 -222 l0 -208 -85 0 -85 0 0 208 0 207 85 0 85 1 0 -208z m-220 -288 c0 -19 -7 -20 -250 -20 -243 0 -250 1 -250 20 0 19 7 20 250 20 243 0 250 -1 250 -20z m780 0 c0 -19 -7 -20 -255 -20 -248 0 -255 1 -255 20 0 19 7 20 255 20 248 0 255 -1 255 -20z m-764 -57 c10 -14 13 -69 14 -229 l0 -212 -42 -20 c-38 -19 -44 -20 -76 -6 l-35 14 26 28 c47 49 57 98 57 278 0 161 0 164 21 164 12 0 28 -8 35 -17z m304 -171 c0 -164 2 -192 19 -225 l18 -36 -32 -11 c-18 -6 -45 -8 -59 -4 l-26 6 0 211 c0 229 4 247 57 247 l23 0 0 -188z m-100 -51 l0 -210 -85 -3 -85 -3 0 213 0 212 85 0 85 0 0 -209z m519 -71 c25 -13 -149 -121 -298 -185 l-85 -36 -20 20 c-11 11 -18 22 -15 24 2 2 35 16 73 32 39 16 120 59 180 96 108 66 125 71 165 49z m-1078 -65 c45 -30 121 -74 170 -97 49 -24 89 -45 89 -48 -1 -3 -7 -14 -15 -24 -14 -19 -19 -17 -129 36 -144 71 -292 168 -256 168 14 0 32 5 40 10 8 5 16 10 17 10 1 0 39 -25 84 -55z m1119 -310 l0 -355 -156 0 -157 0 -69 58 c-39 31 -79 64 -90 73 -19 15 -19 17 -4 69 17 59 22 204 7 243 -9 22 -6 25 42 42 87 30 268 120 347 174 41 28 76 50 78 51 1 0 2 -160 2 -355z m-1235 283 l35 -23 0 -98 c0 -93 -1 -98 -20 -92 -10 3 -28 1 -40 -5 -20 -11 -20 -8 -20 115 0 69 2 125 5 125 3 0 21 -10 40 -22z m187 -114 c31 -14 37 -27 90 -176 l58 -160 -56 -94 -56 -94 -134 0 -134 0 0 175 c0 171 1 175 19 165 11 -5 30 -10 44 -10 24 0 24 0 22 -107 -2 -126 6 -153 46 -153 39 0 49 24 48 117 -2 139 -2 143 24 143 30 0 67 27 67 49 0 27 -35 54 -59 46 -20 -6 -21 -2 -21 54 0 34 2 61 5 61 2 0 19 -7 37 -16z m512 -35 c35 -16 56 -76 56 -157 0 -66 -22 -166 -39 -176 -4 -3 -51 0 -104 6 -72 8 -98 15 -102 27 -4 9 -24 64 -45 122 l-38 106 86 42 c90 43 140 51 186 30z"/>
<path d="M4185 3083 c3 -10 9 -31 12 -47 6 -26 4 -27 -15 -17 -37 20 -79 13 -101 -15 -28 -36 -27 -96 3 -159 23 -49 119 -165 137 -165 6 0 32 21 59 46 129 121 148 304 31 304 -20 0 -43 -6 -50 -12 -11 -11 -12 -8 -7 17 4 17 9 38 12 48 5 14 -2 17 -41 17 -41 0 -46 -2 -40 -17z"/>
</g>
</svg>