<svg xmlns="http://www.w3.org/2000/svg" version="1.0" preserveAspectRatio="xMidYMid meet" viewBox="275.16 235 201.66 283.5">
<metadata>
Created by potrace 1.16, written by Peter Selinger 2001-2019
</metadata>
<g transform="translate(0.000000,752.000000) scale(0.100000,-0.100000)" fill="#000000" stroke="none">
<path d="M2862 5153 c-44 -21 -100 -89 -107 -127 -3 -17 -4 -601 -3 -1297 l3 -1266 28 -40 c15 -22 46 -50 70 -64 l42 -24 860 0 860 0 45 25 c49 28 85 74 100 131 7 24 9 466 8 1286 l-3 1250 -30 48 c-20 32 -45 56 -74 72 l-44 23 -861 0 c-775 0 -864 -2 -894 -17z m1785 -38 c27 -16 51 -42 66 -68 l22 -42 3 -1220 c2 -864 -1 -1236 -9 -1273 -15 -74 -67 -126 -141 -141 -38 -8 -295 -11 -863 -9 l-810 3 -47 27 c-32 19 -52 41 -67 71 -21 43 -21 45 -21 1290 0 856 3 1255 11 1274 14 37 57 82 94 99 24 11 191 13 874 14 l844 0 44 -25z"/>
<path d="M3100 3755 l0 -1095 660 0 660 0 0 1095 0 1095 -660 0 -660 0 0 -1095z m396 991 l55 -85 -12 -45 c-10 -40 -8 -189 3 -249 2 -14 -14 -23 -82 -46 -105 -36 -241 -94 -297 -127 l-43 -25 0 188 c0 157 2 184 13 163 7 -13 24 -31 39 -39 24 -14 30 -14 64 2 30 15 35 15 31 3 -3 -8 -9 -30 -12 -48 l-6 -33 41 0 41 0 -6 33 c-3 18 -9 41 -12 50 -6 14 -4 14 17 -1 34 -24 67 -21 95 8 35 34 35 112 0 182 -27 53 -114 143 -138 143 -15 0 -92 -78 -122 -123 -9 -15 -23 -44 -31 -65 -12 -35 -13 -30 -14 81 l0 117 160 0 160 0 56 -84z m904 -212 l0 -295 -22 3 -23 3 -1 261 c0 143 -4 266 -8 272 -10 17 -52 15 -70 -4 -12 -11 -14 -26 -10 -55 9 -52 -3 -49 -27 6 -11 25 -24 45 -29 45 -5 0 -23 -17 -40 -37 -33 -40 -60 -116 -60 -168 0 -57 30 -135 68 -176 l36 -41 25 54 26 53 3 -89 c1 -49 1 -90 -1 -93 -3 -2 -37 4 -77 14 l-72 18 -60 165 c-32 91 -60 172 -60 180 -1 8 22 52 51 98 l53 82 149 0 149 0 0 -296z m-155 129 c21 -27 25 -43 25 -102 0 -38 -5 -73 -10 -76 -6 -4 -21 -27 -34 -53 l-23 -46 -26 40 c-57 87 -58 171 -5 264 30 52 31 53 40 30 5 -13 20 -39 33 -57z m-384 -132 l45 -129 -83 -41 c-45 -22 -100 -43 -121 -47 -53 -8 -106 16 -128 58 -23 43 -30 171 -14 237 l12 51 122 0 122 0 45 -129z m26 -274 c-40 -40 -87 -93 -103 -118 l-30 -46 -24 40 c-14 22 -61 73 -104 113 -44 41 -76 77 -73 80 9 10 81 -41 149 -106 l58 -55 20 27 c31 42 160 149 171 142 5 -3 -23 -38 -64 -77z m471 -35 c9 -6 5 -12 -14 -22 -40 -22 -102 -116 -124 -189 -12 -36 -23 -98 -27 -138 l-6 -73 -53 0 -54 0 6 48 c20 165 85 291 181 352 48 31 69 36 91 22z m-629 -135 l29 -49 22 44 c12 24 37 62 56 83 l35 40 -6 -30 c-10 -46 -24 -202 -25 -271 l0 -62 -63 5 c-37 3 -72 1 -84 -5 -19 -11 -20 -7 -27 106 -3 64 -13 148 -21 187 -8 38 -15 72 -15 75 1 11 73 -78 99 -123z m-454 55 c80 -55 133 -158 151 -292 l7 -50 -55 0 -55 0 -6 73 c-9 124 -63 231 -134 265 -32 15 -33 17 -16 30 23 17 57 8 108 -26z m1125 -387 l0 -25 -190 0 -190 0 0 25 0 25 190 0 190 0 0 -25z m-970 -72 c0 -49 -29 -163 -54 -219 -27 -58 -104 -147 -148 -170 -23 -12 -78 -20 -78 -11 0 2 24 28 54 58 73 76 116 194 116 320 l0 49 55 0 c53 0 55 -1 55 -27z m764 -40 c8 -80 30 -154 62 -204 23 -37 73 -79 93 -79 22 0 10 -20 -16 -26 -19 -5 -40 0 -70 16 -97 51 -154 156 -177 323 l-5 37 53 0 53 0 7 -67z m-439 13 c11 0 34 3 51 6 l30 7 12 -137 c7 -75 19 -162 27 -192 l14 -55 -35 40 c-20 22 -49 61 -66 88 -16 26 -31 47 -33 47 -2 0 -11 -14 -19 -31 -16 -33 -88 -130 -92 -126 -2 1 1 20 7 42 5 22 12 104 16 182 l6 142 31 -7 c17 -3 40 -6 51 -6z m128 -388 c49 -49 83 -88 74 -88 -16 0 -147 100 -180 137 -17 20 -18 19 -94 -53 -75 -71 -118 -102 -128 -92 -3 3 28 38 70 79 42 40 88 93 103 117 l27 43 20 -28 c10 -15 59 -67 108 -115z m517 -258 l0 -330 -86 0 -86 0 50 45 c62 55 112 150 112 209 0 76 -55 120 -112 91 l-30 -15 5 28 c3 15 9 35 12 45 6 15 1 17 -40 17 -41 0 -46 -2 -40 -17 3 -10 9 -31 12 -47 6 -26 4 -27 -15 -17 -32 17 -80 13 -102 -9 -49 -49 -13 -172 79 -272 l53 -58 -70 0 -71 0 -54 83 c-49 75 -53 85 -44 116 10 38 5 237 -7 262 -6 14 5 21 65 39 83 25 278 107 329 138 19 12 36 22 38 22 1 0 2 -148 2 -330z m-1255 254 c14 -6 16 -34 14 -264 -1 -142 2 -263 5 -269 10 -16 61 -14 75 3 8 10 10 31 6 63 l-7 48 21 -30 c11 -16 23 -42 27 -57 8 -37 17 -35 53 11 65 82 80 196 37 286 -21 46 -71 104 -80 94 -2 -2 -14 -26 -27 -54 l-24 -50 -3 94 c-1 51 -1 95 0 97 4 3 148 -32 153 -38 1 -2 31 -81 65 -175 l62 -173 -54 -84 -53 -85 -147 -1 -148 0 0 295 c0 162 2 295 4 295 2 0 12 -3 21 -6z m763 -91 c13 -8 30 -30 38 -48 17 -41 19 -178 3 -241 l-11 -44 -118 0 -119 0 -19 53 c-46 123 -75 208 -71 211 2 2 38 21 79 42 109 55 163 62 218 27z m-556 -122 c20 -38 28 -68 28 -105 0 -52 -27 -125 -57 -158 -15 -17 -17 -16 -33 19 -9 21 -24 44 -33 52 -13 10 -17 30 -17 76 0 52 5 71 33 118 17 31 36 55 42 53 5 -1 22 -26 37 -55z"/>
<path d="M3721 4003 c-39 -49 -40 -100 -1 -110 11 -3 20 -9 20 -14 0 -5 9 -9 21 -9 11 0 18 4 14 9 -3 5 5 11 17 13 36 5 37 66 3 107 -33 38 -47 39 -74 4z"/>
<path d="M3740 3626 c0 -8 -7 -13 -16 -12 -23 2 -38 -26 -30 -57 9 -36 54 -87 71 -81 23 9 55 68 55 102 0 30 -22 48 -43 35 -6 -4 -8 0 -4 10 5 12 1 17 -13 17 -11 0 -20 -6 -20 -14z"/>
</g>
</svg>