<svg xmlns="http://www.w3.org/2000/svg" version="1.0" preserveAspectRatio="xMidYMid meet" viewBox="275 234.07 202.02 283.93">
<metadata>
Created by potrace 1.16, written by Peter Selinger 2001-2019
</metadata>
<g transform="translate(0.000000,752.000000) scale(0.100000,-0.100000)" fill="#000000" stroke="none">
<path d="M2885 5168 c-49 -17 -92 -55 -114 -101 l-21 -43 0 -1268 c0 -1226 1 -1268 19 -1304 24 -47 56 -77 103 -97 33 -13 142 -15 885 -15 799 0 850 1 888 19 51 23 101 79 114 128 15 54 15 2478 0 2537 -14 56 -62 114 -113 137 -39 18 -85 19 -886 18 -562 0 -855 -4 -875 -11z m1740 -37 c46 -20 91 -69 103 -109 9 -36 9 -2489 -1 -2524 -10 -38 -65 -98 -104 -114 -26 -11 -188 -14 -863 -14 -725 0 -835 2 -867 15 -48 20 -71 41 -94 87 -18 36 -19 80 -19 1288 0 1226 0 1252 20 1290 21 41 64 77 108 90 15 5 398 9 852 9 780 1 827 0 865 -18z"/>
<path d="M3098 4068 c-2 -436 -2 -931 0 -1100 l2 -308 660 0 660 0 0 1100 0 1100 -660 0 -660 0 -2 -792z m458 700 c-3 -40 -18 -118 -31 -173 -14 -55 -25 -116 -25 -135 -1 -34 -2 -36 -120 -99 -66 -35 -149 -83 -185 -107 -36 -24 -68 -44 -70 -44 -3 0 -5 78 -5 173 1 153 2 169 14 141 21 -47 71 -59 115 -28 22 16 23 16 18 -2 -3 -11 -8 -34 -12 -51 -7 -33 -6 -33 34 -33 44 0 47 5 32 58 -9 29 -8 31 9 22 24 -13 66 -13 90 0 11 6 24 28 30 50 14 52 -1 108 -47 177 -33 50 -98 113 -116 113 -5 0 -31 -23 -58 -51 -48 -49 -84 -106 -100 -159 -4 -15 -8 25 -8 98 l-1 122 221 0 222 0 -7 -72z m844 -58 l0 -130 -25 12 c-14 6 -25 17 -25 24 0 22 -37 36 -60 24 -11 -6 -20 -16 -20 -23 0 -7 -10 -17 -22 -22 -17 -7 -23 -18 -23 -40 0 -22 6 -33 23 -40 12 -5 22 -15 22 -21 0 -6 9 -19 20 -29 20 -18 27 -55 13 -69 -4 -4 -18 10 -31 31 -32 52 -112 210 -112 222 0 14 65 31 90 24 32 -8 24 5 -21 33 -38 23 -40 28 -35 58 6 31 4 34 -24 39 -18 4 -30 13 -30 22 0 13 20 15 130 15 l130 0 0 -130z m-563 34 c25 -5 34 -17 67 -96 l38 -90 -38 -39 c-50 -51 -116 -83 -152 -74 -67 16 -120 110 -138 243 l-6 47 45 12 c25 7 57 23 72 36 l27 23 29 -28 c15 -16 41 -31 56 -34z m283 -345 c0 -15 -113 -89 -169 -111 -47 -18 -76 -22 -176 -23 -112 0 -124 2 -175 28 -50 25 -127 84 -118 91 1 2 17 11 35 20 31 15 32 15 82 -18 71 -48 141 -62 233 -47 76 13 156 44 198 78 23 19 26 20 57 5 18 -9 33 -19 33 -23z m86 -141 c11 -18 -50 -64 -153 -114 -50 -25 -98 -52 -105 -61 -9 -12 -12 -45 -10 -119 l3 -103 -28 -6 c-15 -4 -34 -8 -41 -11 -10 -3 -12 27 -10 137 l3 141 73 19 c80 20 152 56 204 100 36 31 53 35 64 17z m-753 -42 c58 -39 161 -86 187 -86 6 0 10 -57 10 -141 l0 -140 -32 3 -33 3 -6 110 c-3 61 -9 118 -13 128 -5 9 -38 33 -75 52 -37 20 -83 49 -102 65 -28 25 -32 31 -19 40 8 5 16 10 16 10 1 0 31 -20 67 -44z m387 -236 l0 -140 -85 0 -85 0 0 140 0 140 85 0 85 0 0 -140z m-280 -220 c0 -19 -7 -20 -220 -20 -213 0 -220 1 -220 20 0 19 7 20 220 20 213 0 220 -1 220 -20z m840 0 c0 -19 -7 -20 -220 -20 -213 0 -220 1 -220 20 0 19 7 20 220 20 213 0 220 -1 220 -20z m-560 -220 l0 -140 -85 0 -85 0 0 140 0 140 85 0 85 0 0 -140z m-190 -9 l0 -138 -40 -7 c-65 -10 -147 -45 -218 -93 -52 -35 -71 -42 -86 -35 -19 8 -16 12 24 42 25 18 87 53 138 78 66 32 97 53 103 69 5 14 9 66 9 118 0 98 2 103 48 104 22 1 22 0 22 -138z m268 133 c21 -6 22 -11 22 -118 0 -75 4 -117 13 -128 6 -8 39 -30 72 -48 70 -39 125 -79 125 -92 0 -23 -32 -16 -77 15 -61 44 -116 72 -171 86 l-42 12 0 139 c0 152 -1 149 58 134z m482 -664 l0 -320 -226 0 -226 0 7 73 c4 39 18 115 31 167 13 52 24 109 24 126 0 16 6 37 13 46 6 8 60 40 120 71 59 31 140 79 180 106 39 28 73 50 75 50 1 1 2 -143 2 -319z m-494 226 c34 -15 76 -43 94 -61 l33 -34 -36 -17 c-36 -17 -36 -17 -71 10 -58 44 -105 59 -182 59 -87 -1 -161 -21 -235 -66 -53 -32 -57 -33 -87 -18 -18 8 -32 18 -32 21 0 10 78 64 128 89 73 37 141 51 237 48 74 -2 101 -7 151 -31z m-596 -268 l49 -96 -31 -11 c-17 -6 -45 -11 -62 -11 -31 0 -31 -1 17 -28 26 -16 46 -30 44 -33 -3 -2 -7 -16 -11 -31 -5 -23 -2 -27 24 -33 17 -4 30 -13 30 -21 0 -11 -24 -14 -125 -14 l-125 0 0 124 c0 119 1 124 20 119 11 -3 20 -11 20 -18 0 -39 73 -44 85 -5 3 10 15 22 26 25 33 11 24 52 -21 95 -33 32 -40 45 -40 77 l1 38 25 -40 c14 -22 47 -83 74 -137z m507 78 c37 -35 69 -117 79 -198 l6 -54 -40 -12 c-23 -7 -54 -24 -71 -37 l-29 -25 -30 30 c-17 17 -44 33 -59 36 -25 5 -34 17 -68 97 l-38 91 44 39 c55 49 116 78 149 70 14 -3 40 -19 57 -37z"/>
<path d="M3733 4087 c-35 -39 -39 -87 -8 -87 20 0 26 -27 8 -41 -33 -28 -38 -89 -7 -89 8 0 14 -4 14 -10 0 -5 7 -10 15 -10 8 0 15 4 15 9 0 5 9 11 20 14 11 3 20 13 20 22 0 20 -31 75 -42 75 -4 0 -5 7 -2 15 4 8 13 15 20 15 22 0 28 27 14 61 -19 44 -43 53 -67 26z"/>
<path d="M3740 3660 c0 -5 -6 -10 -14 -10 -31 0 -26 -61 7 -89 18 -14 12 -41 -8 -41 -31 0 -27 -48 8 -87 27 -30 34 -29 57 10 25 41 25 67 1 74 -20 5 -38 33 -21 33 12 0 40 53 40 75 0 9 -9 19 -20 22 -11 3 -20 9 -20 14 0 5 -7 9 -15 9 -8 0 -15 -4 -15 -10z"/>
<path d="M4186 3090 c13 -34 16 -70 6 -70 -6 0 -14 5 -17 10 -12 19 -65 11 -90 -15 -33 -32 -33 -92 0 -163 25 -55 119 -162 141 -162 23 0 110 96 138 151 49 98 26 199 -45 199 -17 0 -40 -5 -51 -11 -22 -12 -22 -14 -3 56 5 18 1 20 -40 20 -36 0 -44 -3 -39 -15z"/>
</g>
</svg>