<?xml version="1.0" standalone="no"?>
<!DOCTYPE svg PUBLIC "-//W3C//DTD SVG 20010904//EN"
 "http://www.w3.org/TR/2001/REC-SVG-20010904/DTD/svg10.dtd">
<svg version="1.0" xmlns="http://www.w3.org/2000/svg"
 width="752.000000pt" height="752.000000pt" viewBox="0 0 752.000000 752.000000"
 preserveAspectRatio="xMidYMid meet">
<metadata>
Created by potrace 1.16, written by Peter Selinger 2001-2019
</metadata>
<g transform="translate(0.000000,752.000000) scale(0.100000,-0.100000)"
fill="#fff" stroke="none">
<path d="M3775 5918 c-41 -123 -99 -260 -202 -473 -165 -343 -276 -566 -286
-572 -4 -2 -13 0 -20 5 -7 5 -23 12 -37 15 -21 5 -30 -1 -57 -37 -18 -24 -33
-47 -33 -52 0 -6 16 -16 35 -23 19 -7 48 -23 64 -37 l29 -24 21 55 c12 31 21
60 21 65 0 6 5 10 10 10 6 0 19 9 29 19 52 52 161 47 290 -14 40 -19 76 -35
79 -35 3 0 -12 19 -33 41 -75 78 -202 119 -278 90 -22 -9 -20 -3 25 87 114
232 308 644 338 719 l32 82 22 -31 c40 -59 65 -69 194 -84 142 -15 180 -31
246 -105 80 -89 146 -258 162 -418 8 -73 12 -79 60 -96 33 -11 39 -11 42 0 7
28 -41 273 -69 358 -72 216 -164 294 -387 326 -46 7 -100 18 -121 26 -59 21
-121 63 -131 90 -10 26 -38 34 -45 13z"/>
<path d="M4727 5305 c-32 -7 -60 -15 -63 -18 -3 -2 6 -22 21 -42 14 -21 25
-48 25 -60 0 -12 3 -24 6 -28 19 -18 115 68 149 132 l16 31 -48 -1 c-27 -1
-74 -7 -106 -14z"/>
<path d="M4235 5012 c-60 -38 -204 -127 -320 -198 -115 -72 -277 -170 -358
-218 -136 -80 -147 -89 -130 -101 31 -24 56 -17 149 41 49 32 213 132 364 224
151 92 293 179 314 194 22 14 49 29 61 32 24 6 64 94 42 94 -7 0 -61 -31 -122
-68z"/>
<path d="M4242 4847 c-37 -34 -92 -80 -122 -102 -114 -81 -255 -208 -261 -234
-4 -15 -7 -19 -8 -8 -1 14 -15 7 -68 -32 -45 -32 -87 -53 -123 -61 -89 -21
-93 -24 -88 -84 4 -51 14 -70 71 -129 15 -16 27 -32 27 -35 1 -23 93 -62 146
-62 34 0 34 0 34 49 0 41 4 51 25 65 34 22 61 20 79 -6 16 -22 17 -22 49 -5
82 45 169 146 297 347 50 80 99 153 108 163 15 17 14 20 -17 44 -37 29 -61 77
-61 123 0 16 -5 30 -10 30 -6 0 -41 -28 -78 -63z"/>
<path d="M3387 4855 c-9 -8 -19 -36 -24 -62 -13 -70 -10 -260 3 -273 13 -13
75 16 224 108 94 58 95 59 98 101 4 59 -15 84 -92 115 -77 30 -184 36 -209 11z"/>
<path d="M3790 4849 c-50 -20 -80 -59 -80 -106 l0 -43 78 47 c98 58 106 66 97
92 -7 23 -50 28 -95 10z"/>
<path d="M4486 4523 c-14 -547 -53 -670 -321 -1003 -51 -63 -107 -137 -124
-165 -40 -62 -73 -171 -69 -221 3 -39 3 -38 50 58 56 118 83 157 200 295 289
341 369 605 337 1108 l-14 210 -26 3 -26 3 -7 -288z"/>
<path d="M3145 4588 c-73 -153 -85 -188 -62 -188 26 0 47 12 47 26 0 8 15 35
34 62 54 74 91 168 80 199 -18 52 -33 37 -99 -99z"/>
<path d="M3510 4460 c-63 -13 -76 -19 -78 -37 -2 -12 -21 -38 -43 -57 -41 -38
-48 -56 -25 -75 11 -9 28 -4 78 24 36 19 72 35 81 35 9 0 17 8 17 18 0 9 12
37 25 61 14 24 24 45 23 45 -2 1 -37 -5 -78 -14z"/>
<path d="M3218 4405 c-114 -54 -128 -63 -128 -86 0 -14 5 -30 11 -36 8 -8 8
-17 0 -31 -16 -29 -14 -40 9 -47 20 -6 72 29 220 148 48 39 60 53 46 55 -16 4
-16 5 4 27 l21 23 -28 4 c-20 3 -66 -14 -155 -57z"/>
<path d="M3023 4350 c-14 -6 -23 -19 -24 -32 -1 -17 -2 -18 -6 -5 -7 25 -17
21 -52 -18 -56 -64 -36 -129 43 -142 45 -7 66 9 66 52 0 19 5 35 10 37 11 3 2
119 -9 117 -3 0 -16 -4 -28 -9z"/>
<path d="M3442 4283 c-70 -43 -166 -122 -158 -131 3 -3 -3 -11 -14 -19 -13 -9
-20 -26 -20 -46 0 -18 -3 -56 -7 -85 -5 -50 -7 -51 -21 -31 -8 11 -18 17 -23
12 -18 -18 -30 -183 -19 -266 7 -45 13 -83 15 -85 2 -2 16 5 31 14 20 14 29
15 32 6 12 -38 74 -58 86 -27 3 8 10 15 16 15 5 0 10 -7 10 -15 0 -8 8 -15 18
-15 9 0 28 -3 41 -7 22 -6 24 -4 18 23 -3 16 -9 38 -12 49 -4 11 5 2 20 -20
15 -22 31 -44 35 -48 5 -5 39 6 76 25 64 31 76 33 167 33 53 0 97 3 97 7 0 4
-6 13 -13 19 -20 19 -5 98 22 118 20 16 22 23 19 136 l-3 120 -50 6 c-27 4
-67 14 -88 23 -55 23 -151 124 -169 178 -8 23 -21 44 -29 46 -8 1 -42 -14 -77
-35z"/>
<path d="M3885 4118 c4 -40 6 -101 6 -135 -1 -50 2 -62 17 -66 16 -4 16 -5 0
-6 -14 -1 -17 -10 -14 -51 2 -46 0 -53 -26 -71 -21 -15 -28 -29 -28 -53 0 -50
30 -71 99 -71 78 0 111 22 111 74 0 42 -12 57 -49 63 -29 4 -30 8 -32 156 0
61 -4 112 -8 112 -4 0 -5 15 -3 33 2 17 -1 44 -7 60 -8 21 -17 27 -42 27 l-31
0 7 -72z"/>
<path d="M3086 4165 c7 -17 -49 -45 -90 -45 -23 0 -25 -3 -20 -32 19 -116 85
-249 142 -286 22 -14 23 -14 22 14 -1 16 4 54 10 84 5 30 11 65 12 78 2 13 17
41 35 62 39 45 42 58 10 37 -22 -14 -23 -13 -25 10 -3 39 -21 64 -57 79 -43
18 -46 17 -39 -1z"/>
<path d="M3627 3626 c-52 -19 -183 -100 -230 -141 -31 -26 -38 -39 -35 -62 5
-47 42 -43 97 10 25 25 64 56 86 69 55 34 161 75 215 83 80 12 123 26 113 36
-17 17 -204 21 -246 5z"/>
<path d="M3093 3584 c-31 -7 -45 -28 -41 -61 l3 -28 105 -7 c89 -6 110 -5 137
9 30 16 54 65 39 80 -7 7 -215 13 -243 7z"/>
<path d="M3601 3501 c-32 -17 -32 -17 -14 -39 26 -32 400 -143 413 -122 4 7 6
18 4 24 -10 26 -174 99 -303 135 -63 18 -69 18 -100 2z"/>
<path d="M3467 3400 c-15 -17 -30 -31 -34 -32 -32 -4 -53 -25 -61 -62 -42
-179 -115 -344 -191 -431 -87 -100 -63 -114 108 -61 64 19 142 42 173 51 88
24 91 32 85 227 -4 152 -26 310 -46 331 -5 5 -20 -6 -34 -23z"/>
<path d="M3550 3413 c1 -4 29 -64 63 -133 58 -118 64 -125 94 -128 20 -2 51 7
87 27 31 16 81 35 110 42 41 9 56 17 60 33 9 33 8 36 -21 37 -22 0 -24 2 -10
8 13 5 -25 20 -125 50 -78 23 -150 43 -158 44 -8 2 -19 5 -25 9 -19 11 -75 20
-75 11z"/>
<path d="M3299 3319 c-29 -16 -38 -28 -43 -57 -4 -20 -32 -86 -62 -145 -31
-60 -53 -114 -51 -121 3 -6 21 -17 40 -23 l35 -11 40 97 c42 99 96 282 84 280
-4 0 -23 -9 -43 -20z"/>
<path d="M3576 3183 c4 -54 8 -107 10 -118 1 -11 3 -37 3 -57 1 -33 6 -40 47
-64 72 -42 119 -56 151 -43 15 6 55 36 88 68 33 31 77 67 98 80 46 28 47 35 2
27 -30 -6 -42 -2 -82 29 -64 49 -83 52 -137 20 -42 -25 -46 -25 -75 -11 -21
11 -41 38 -67 91 -20 41 -39 75 -41 75 -3 0 -1 -44 3 -97z"/>
<path d="M4035 3164 c-9 -25 -15 -47 -12 -50 3 -3 29 2 58 10 65 20 79 20 79
2 0 -9 18 -16 51 -20 29 -4 73 -18 100 -32 54 -27 59 -28 59 -15 0 23 -55 72
-93 83 -23 6 -46 15 -52 19 -10 7 -92 31 -146 43 -24 5 -28 1 -44 -40z"/>
<path d="M4074 3066 c-49 -16 -99 -50 -187 -129 -36 -32 -79 -62 -96 -67 -39
-11 -106 8 -162 44 -21 14 -41 26 -43 26 -2 0 -7 -13 -11 -29 -9 -42 -39 -68
-87 -76 -84 -13 -122 -26 -107 -36 10 -6 7 -9 -13 -9 -37 0 -142 -115 -275
-301 -106 -149 -169 -219 -199 -219 -22 0 -66 25 -89 50 -11 12 -33 29 -48 37
-26 13 -31 13 -49 -4 -75 -68 -61 -182 31 -266 46 -41 76 -47 86 -17 14 44
122 140 158 140 31 0 120 65 162 117 78 98 96 113 215 173 138 70 286 158 283
170 -2 8 84 26 102 20 75 -22 165 -21 165 1 0 6 17 33 39 62 21 29 48 70 59
92 53 105 160 153 243 109 17 -8 33 -14 35 -12 6 7 -22 108 -34 120 -16 16
-132 19 -178 4z"/>
<path d="M3037 2946 c-51 -60 -55 -71 -31 -104 24 -35 47 -26 104 39 51 58 53
62 35 75 -10 8 -25 14 -32 14 -7 0 -13 7 -13 15 0 26 -15 17 -63 -39z"/>
<path d="M4130 2929 c-37 -15 -61 -40 -55 -59 3 -9 -2 -25 -10 -36 -14 -19
-14 -19 -15 1 0 16 -5 12 -22 -15 -11 -19 -33 -53 -48 -75 -43 -64 -44 -74
-11 -104 21 -20 32 -43 39 -82 21 -114 54 -178 180 -360 33 -48 40 -67 45
-126 8 -80 24 -133 40 -133 15 0 239 69 245 75 10 9 -17 144 -37 185 -12 24
-21 60 -21 79 0 99 -75 410 -101 419 -5 2 -9 14 -9 26 0 12 -14 48 -31 80 -29
54 -30 57 -9 46 38 -20 33 -4 -12 35 -64 55 -109 67 -168 44z"/>
<path d="M3045 2785 c-16 -7 -34 -11 -40 -9 -6 3 -29 -17 -51 -43 -21 -26 -53
-63 -70 -83 -50 -56 -144 -182 -160 -212 -14 -27 -14 -28 22 -43 20 -8 54 -31
75 -50 75 -68 99 -53 247 157 45 65 109 150 142 189 33 40 59 74 56 76 -2 2
-22 -3 -44 -12 -23 -10 -60 -15 -88 -13 -47 3 -49 4 -46 31 3 30 0 31 -43 12z"/>
<path d="M3626 2610 c-44 -22 -82 -43 -85 -48 -3 -5 -63 -37 -133 -71 -150
-74 -163 -83 -225 -164 -64 -83 -74 -91 -178 -141 -93 -44 -155 -99 -155 -136
0 -27 47 -26 158 0 97 23 144 46 232 110 36 26 97 65 135 86 39 21 73 43 77
48 4 6 8 8 8 4 0 -4 24 4 53 17 l54 23 28 -25 c34 -32 58 -89 51 -119 -8 -30
-78 -96 -87 -82 -4 6 -9 -7 -11 -27 -4 -31 -1 -39 18 -47 30 -14 98 3 191 48
71 34 72 35 79 79 4 32 0 74 -15 138 -11 50 -28 128 -36 172 -22 116 -43 175
-63 175 -10 0 -53 -18 -96 -40z"/>
<path d="M4419 1951 c-143 -47 -146 -48 -153 -100 -8 -59 -1 -93 21 -106 10
-5 45 -36 78 -67 34 -32 78 -64 98 -73 42 -17 150 -20 195 -4 30 10 73 59 52
59 -5 0 -10 6 -10 13 0 10 -64 102 -100 145 -6 6 -9 12 -7 12 13 0 -16 107
-34 126 -28 30 -35 30 -140 -5z"/>
</g>
</svg>
