<?xml version="1.0" standalone="no"?>
<!DOCTYPE svg PUBLIC "-//W3C//DTD SVG 20010904//EN"
 "http://www.w3.org/TR/2001/REC-SVG-20010904/DTD/svg10.dtd">
<svg version="1.0" xmlns="http://www.w3.org/2000/svg"
 width="752.000000pt" height="752.000000pt" viewBox="0 0 752.000000 752.000000"
 preserveAspectRatio="xMidYMid meet">
<metadata>
Created by potrace 1.16, written by Peter Selinger 2001-2019
</metadata>
<g transform="translate(0.000000,752.000000) scale(0.100000,-0.100000)"
fill="#fff" stroke="none">
<path d="M4103 5820 c-10 -12 -33 -30 -50 -41 -35 -22 -43 -53 -17 -63 9 -4
14 -9 10 -13 -3 -4 -17 4 -31 17 -21 20 -28 21 -52 11 -15 -7 -39 -21 -52 -31
l-23 -20 28 -34 c16 -19 35 -33 42 -30 7 2 10 -1 7 -6 -3 -5 -1 -28 6 -50 12
-39 14 -40 55 -40 24 0 73 10 110 22 54 18 72 29 95 61 31 43 38 87 15 87 -8
0 -12 7 -10 18 4 19 -22 54 -48 64 -9 4 -18 19 -20 35 -4 36 -40 43 -65 13z"/>
<path d="M3835 5637 c-11 -8 -60 -26 -110 -42 -98 -30 -162 -60 -212 -98 l-33
-24 20 -22 c10 -13 20 -27 22 -32 2 -6 35 4 73 22 75 34 115 38 199 18 30 -7
51 -8 55 -2 3 5 14 12 24 16 9 3 17 13 17 21 0 7 7 13 16 12 45 -4 39 65 -12
119 -27 29 -32 30 -59 12z"/>
<path d="M4275 5620 c-9 -41 -41 -78 -83 -96 -35 -14 -36 -15 -16 -34 19 -19
20 -19 78 10 32 17 72 30 87 30 32 0 34 6 19 45 -10 26 -56 75 -71 75 -4 0
-10 -13 -14 -30z"/>
<path d="M4297 5485 c-72 -25 -110 -81 -71 -103 13 -7 17 -27 18 -90 0 -44 3
-83 6 -85 3 -3 23 -8 45 -10 22 -2 51 -9 65 -14 14 -6 28 -9 33 -6 4 2 7 0 7
-5 0 -5 25 -17 56 -28 l56 -19 23 29 c30 37 45 91 45 158 0 53 -1 55 -47 90
-59 43 -88 59 -97 51 -3 -3 -6 -1 -6 5 0 22 -29 12 -44 -15 l-16 -28 3 25 c1
14 6 28 11 31 14 11 -3 29 -27 29 -12 -1 -39 -7 -60 -15z"/>
<path d="M3739 5418 c-1 -17 -3 -18 -6 -5 -5 19 -57 24 -68 6 -4 -5 -12 -8
-18 -6 -15 5 -77 -26 -99 -49 -9 -11 -21 -31 -27 -47 -9 -24 -8 -27 12 -28
l22 0 -23 -11 c-23 -12 -39 -49 -27 -67 3 -6 8 -35 11 -65 3 -42 1 -55 -12
-60 -8 -3 -12 -10 -9 -16 3 -5 0 -7 -9 -4 -17 7 -92 -41 -78 -50 21 -12 296
-11 317 1 44 27 46 30 39 56 -6 27 -7 27 -97 27 -50 0 -88 2 -85 5 3 4 51 6
107 6 113 0 99 -10 120 86 4 22 14 47 20 55 6 7 27 34 46 59 l34 47 -39 26
c-50 33 -89 43 -101 25 -7 -11 -9 -11 -9 3 0 26 -20 32 -21 6z"/>
<path d="M3924 5313 c-43 -43 -85 -129 -92 -189 -4 -41 -3 -44 20 -44 35 0 53
18 73 73 10 26 37 76 60 112 33 50 39 65 28 69 -8 4 -19 4 -24 0 -5 -3 -9 0
-9 5 0 20 -19 11 -56 -26z"/>
<path d="M3356 5333 c-27 -4 -28 -6 -21 -51 7 -51 52 -192 64 -205 5 -5 15 -1
24 8 9 9 19 15 22 15 3 0 12 3 19 7 11 6 13 27 7 101 -3 50 -3 92 1 92 5 0 8
6 8 14 0 7 -14 16 -31 20 -32 6 -44 6 -93 -1z"/>
<path d="M3269 5314 c-21 -25 -25 -142 -6 -178 17 -32 43 -182 51 -296 3 -36
8 -102 12 -148 6 -89 13 -97 25 -29 7 38 8 37 5 -15 -1 -32 0 -58 4 -58 4 0
15 19 26 41 10 23 20 37 21 32 4 -10 73 -5 73 6 0 3 23 4 51 2 l52 -3 -7 28
c-4 16 -13 32 -19 36 -7 4 -9 8 -5 8 4 0 -4 24 -17 53 -14 28 -25 63 -25 76 0
14 -8 42 -17 62 -15 32 -23 39 -48 39 -40 0 -75 25 -75 54 0 13 -11 54 -25 91
-14 37 -33 99 -41 138 -8 39 -16 72 -18 74 -2 2 -9 -4 -17 -13z"/>
<path d="M4198 5073 c-68 -145 -67 -136 -7 -173 28 -17 57 -29 65 -26 8 3 13
0 11 -6 -2 -10 129 -65 138 -56 2 2 20 58 39 123 19 66 37 128 41 137 6 14 -5
23 -50 43 -31 14 -61 22 -66 19 -5 -3 -9 0 -9 7 0 7 -11 10 -29 7 -17 -2 -28
-1 -25 4 3 4 -4 8 -15 8 -10 0 -26 2 -33 5 -11 4 -28 -23 -60 -92z"/>
<path d="M4527 5084 c-22 -39 -82 -262 -97 -366 -27 -183 -30 -197 -56 -257
-13 -29 -21 -57 -18 -62 3 -5 20 -9 38 -9 31 0 36 5 71 73 29 55 85 196 85
213 0 1 -8 5 -17 7 -15 4 -14 5 3 6 17 1 26 18 52 108 22 72 28 109 21 114 -7
4 -5 8 4 12 14 5 45 142 35 152 -9 9 -116 17 -121 9z"/>
<path d="M3211 5054 c-23 -16 -23 -21 -18 -103 6 -98 32 -195 49 -185 7 4 8 3
4 -4 -7 -11 34 -142 44 -142 9 0 -12 235 -21 238 -5 2 -7 8 -3 13 7 11 -17
199 -26 199 -3 0 -16 -7 -29 -16z"/>
<path d="M3999 5066 c-2 -2 -37 -9 -77 -14 -41 -6 -76 -12 -78 -15 -7 -6 36
-117 77 -199 29 -57 43 -77 53 -71 18 11 57 59 83 103 20 34 20 44 3 85 -9 23
-23 58 -25 65 -11 43 -23 58 -36 46z"/>
<path d="M3760 4997 c-29 -18 -52 -22 -142 -26 l-107 -3 13 -27 c7 -14 16 -43
19 -63 3 -20 19 -65 36 -100 17 -34 31 -68 31 -75 0 -20 31 -30 116 -37 96 -7
118 4 154 80 l22 47 -40 86 c-22 47 -43 98 -47 114 -9 33 -11 33 -55 4z"/>
<path d="M4656 4899 c-2 -8 -11 -36 -20 -63 -22 -67 -20 -78 13 -128 16 -24
47 -86 69 -138 109 -256 200 -429 214 -408 13 21 9 120 -8 183 -20 78 -78 214
-170 400 -80 159 -91 177 -98 154z"/>
<path d="M4090 4858 c-17 -29 -23 -57 -23 -93 0 -39 0 -41 -4 -12 -5 45 -19
48 -37 7 -7 -17 -15 -28 -18 -24 -4 3 -18 -2 -32 -11 -14 -9 -30 -14 -36 -10
-5 3 -10 0 -10 -7 0 -10 -3 -9 -10 2 -5 8 -10 12 -12 10 -2 -3 -16 -22 -31
-42 l-28 -37 39 -20 c64 -33 67 -40 68 -183 l0 -128 35 -36 c70 -75 165 -95
211 -46 32 33 98 137 103 160 2 9 15 42 28 73 14 31 30 82 36 115 22 127 30
187 26 195 -3 4 -19 11 -36 14 -45 10 -116 43 -177 81 -29 19 -56 34 -60 34
-5 0 -19 -19 -32 -42z"/>
<path d="M3805 4633 c-6 -18 -11 -20 -29 -13 -39 14 -154 23 -221 15 -54 -5
-65 -10 -65 -25 0 -16 9 -20 53 -23 l52 -3 -57 -2 c-56 -2 -58 -1 -58 23 0 14
-2 25 -4 25 -16 0 -56 -21 -56 -29 0 -6 -11 -22 -25 -37 -14 -15 -25 -30 -25
-34 0 -5 -16 -32 -36 -61 l-36 -54 33 -6 34 -6 -35 -4 c-26 -3 -35 -9 -34 -21
1 -10 -1 -16 -5 -13 -6 3 -51 -76 -51 -90 0 -3 15 3 34 12 20 9 44 13 59 9 30
-7 147 -112 200 -179 l38 -48 48 7 c43 6 50 4 65 -17 9 -13 16 -37 16 -54 0
-37 44 -105 69 -105 22 0 46 46 28 54 -7 2 -5 5 4 5 11 1 19 14 24 39 3 20 20
75 35 122 28 82 37 117 46 170 2 14 8 45 13 70 5 24 7 53 4 65 -3 11 -4 44 -4
73 1 51 -12 94 -27 90 -18 -6 -71 26 -75 45 l-4 22 -8 -22z"/>
<path d="M3272 4248 c-32 -32 -1 -97 49 -99 17 -1 19 -3 7 -6 -10 -2 -18 -8
-18 -13 0 -16 51 -49 68 -43 12 3 13 2 5 -4 -9 -6 3 -24 42 -62 30 -30 55 -62
55 -73 0 -25 -16 -23 -42 7 -12 14 -28 25 -35 25 -7 0 -12 4 -10 9 4 16 -162
179 -167 164 -3 -7 -5 -59 -5 -116 l0 -103 98 -32 c118 -39 125 -39 117 -8 -3
14 -2 27 3 30 14 9 43 -43 36 -64 -4 -12 -2 -20 4 -20 6 0 11 4 11 9 0 5 7 17
16 25 14 14 17 14 37 -5 16 -15 30 -19 52 -14 17 3 54 9 83 12 28 3 52 8 52
10 0 3 -18 25 -39 50 -35 39 -39 48 -30 71 7 19 6 29 -4 40 -12 12 -21 11 -61
-2 -45 -15 -89 -22 -54 -8 14 6 2 23 -65 94 -121 129 -171 160 -205 126z"/>
<path d="M3902 4138 c-22 -68 -48 -148 -57 -178 -9 -30 -18 -60 -21 -67 -3 -8
14 -14 53 -18 32 -3 74 -8 93 -11 35 -5 36 -4 60 53 14 32 24 64 24 71 -1 6 4
12 11 12 18 0 28 32 13 43 -9 6 -8 7 5 3 14 -5 23 6 44 50 14 30 23 56 22 58
-2 1 -29 10 -60 19 -30 9 -74 33 -96 52 -23 19 -43 35 -46 35 -3 0 -23 -55
-45 -122z"/>
<path d="M3206 3874 c-3 -9 -6 -21 -6 -28 0 -16 121 -76 152 -76 29 0 89 57
67 64 -8 2 -50 16 -94 30 -93 30 -111 32 -119 10z"/>
<path d="M3464 3810 c-73 -52 -80 -39 138 -263 22 -23 42 -36 49 -31 8 5 9 3
4 -5 -13 -22 385 -411 421 -411 4 0 17 8 28 18 l21 17 -19 -23 c-12 -13 -16
-26 -10 -31 5 -4 86 -56 181 -114 177 -109 313 -183 313 -170 0 5 4 3 8 -3 12
-20 166 -87 198 -88 77 -1 115 72 52 99 -18 7 -37 11 -42 8 -5 -4 -6 -1 -2 6
7 11 -72 53 -101 54 -7 0 -13 4 -13 8 0 4 -9 11 -21 14 -11 4 -60 31 -110 61
-49 31 -94 52 -99 49 -6 -3 -10 0 -10 7 0 8 -30 31 -67 53 -178 104 -224 139
-388 296 -85 81 -92 86 -130 84 -28 -2 -30 -1 -7 2 17 2 32 7 32 11 0 3 -27
34 -61 68 -57 57 -64 61 -102 59 -26 -1 -29 -1 -9 2 17 2 32 10 32 17 0 18
-47 59 -59 52 -6 -4 -9 -1 -6 6 5 13 -154 178 -171 178 -5 -1 -28 -14 -50 -30z"/>
<path d="M3668 3831 c-52 -8 -75 -21 -37 -22 20 0 21 -2 6 -7 -14 -6 -8 -12
30 -31 38 -19 44 -25 30 -30 -17 -6 -17 -8 3 -26 18 -17 39 -21 124 -23 68 -2
114 1 141 11 37 13 41 18 49 61 4 26 6 50 2 53 -19 19 -246 28 -348 14z"/>
<path d="M3124 3763 c-126 -223 -153 -262 -285 -396 -55 -56 -99 -104 -99
-107 0 -10 53 -46 78 -54 18 -6 25 -2 40 25 9 17 59 88 110 158 52 69 112 156
134 193 39 66 91 206 81 220 -11 20 -34 4 -59 -39z"/>
<path d="M3210 3739 c-7 -23 -22 -66 -35 -95 -13 -29 -21 -55 -17 -58 3 -3 1
-6 -5 -6 -17 0 -76 -98 -67 -111 4 -7 3 -9 -4 -6 -5 4 -29 -17 -51 -45 -22
-29 -46 -59 -53 -67 -7 -8 -32 -44 -56 -79 -33 -50 -40 -67 -30 -73 10 -7 9
-9 -3 -9 -9 0 -19 -9 -22 -20 -4 -15 12 -35 61 -81 90 -85 235 -150 245 -110
4 14 5 14 6 -1 1 -12 9 -18 25 -18 33 0 41 36 38 178 -3 125 28 388 59 511 10
41 19 78 19 82 0 7 -83 49 -96 49 -2 0 -8 -19 -14 -41z"/>
<path d="M3359 3728 c-3 -12 -10 -47 -23 -128 -9 -52 -22 -124 -31 -160 -8
-36 -18 -113 -22 -172 l-6 -107 89 -4 89 -3 -89 -2 c-86 -2 -88 -3 -82 -24 3
-13 6 -31 6 -40 0 -10 10 -18 28 -21 24 -4 24 -4 -7 -6 -31 -1 -33 -3 -29 -31
3 -16 2 -30 -1 -30 -11 0 -30 -75 -22 -83 5 -5 28 -11 51 -14 l43 -6 -6 31
c-4 19 -2 32 3 32 6 0 10 -13 10 -30 l0 -30 89 0 c119 0 154 7 148 31 -3 12
-1 17 6 12 7 -4 8 9 4 42 -4 26 -7 54 -7 61 0 7 -10 15 -22 17 -23 4 -23 4 1
6 17 1 21 5 17 17 -3 9 -6 31 -6 50 0 28 -4 34 -22 35 -17 1 -19 2 -5 6 12 3
17 15 17 39 0 41 -4 42 -33 10 -25 -28 -47 -33 -93 -22 -25 5 -31 11 -27 26 5
18 6 18 48 -2 38 -19 46 -20 61 -7 14 11 15 24 10 79 -4 36 -11 108 -15 160
-8 99 -28 161 -43 138 -5 -9 -8 -7 -8 7 0 25 -115 141 -121 123z"/>
<path d="M3880 3579 c121 -112 232 -199 272 -211 75 -22 123 20 77 69 -13 13
-54 40 -90 59 -37 20 -99 62 -137 95 -70 59 -71 59 -134 59 l-63 -1 75 -70z"/>
<path d="M3598 3418 c3 -40 7 -74 11 -76 4 -1 5 -18 3 -37 -2 -19 -1 -51 2
-69 5 -28 12 -36 34 -39 l27 -4 -28 -2 -28 -1 7 -62 c3 -35 9 -66 13 -70 3 -4
38 -9 76 -11 l70 -3 -73 -2 -74 -2 7 -62 c4 -35 9 -65 11 -67 11 -12 255 -1
309 14 33 10 66 17 73 18 9 0 12 18 10 66 -3 64 -4 66 -28 63 -16 -1 -21 1
-12 6 9 6 -5 24 -50 63 -35 29 -128 120 -209 201 -80 82 -147 148 -150 148 -2
0 -3 -33 -1 -72z"/>
<path d="M4275 3370 c-30 -59 -85 -65 -175 -20 -33 17 -60 26 -60 21 0 -23
245 -215 261 -205 5 3 9 1 9 -4 0 -5 22 -23 49 -40 l49 -30 20 21 c23 26 38
54 57 107 l14 39 -42 30 c-23 17 -46 34 -52 39 -21 17 -104 72 -109 72 -3 0
-12 -13 -21 -30z"/>
<path d="M2777 3114 c-22 -25 -35 -48 -31 -57 4 -11 0 -14 -13 -11 -26 7 -74
-55 -66 -84 3 -13 32 -37 77 -61 39 -22 91 -54 116 -70 l44 -30 12 27 12 27 2
-30 c1 -16 2 -33 1 -37 -1 -8 69 -58 81 -58 14 0 68 52 62 61 -3 5 0 8 6 7 6
-2 36 25 66 59 l55 61 -48 11 c-26 6 -59 14 -72 17 -17 5 -22 4 -17 -5 4 -6
-20 6 -54 28 -34 22 -71 43 -82 47 -12 3 -16 9 -10 13 6 3 -15 32 -47 67 l-57
60 -37 -42z"/>
<path d="M4090 3001 c0 -16 -4 -41 -10 -55 -13 -36 -116 -67 -247 -73 -57 -3
-103 -9 -103 -12 0 -12 61 -164 78 -195 9 -17 30 -46 47 -64 26 -29 30 -30 37
-15 6 17 7 17 7 1 1 -27 42 -22 87 9 60 40 314 153 437 192 45 15 47 25 7 41
-25 10 -33 10 -48 -1 -15 -13 -16 -12 -3 4 12 15 12 19 -5 32 -10 8 -25 15
-31 15 -7 0 -13 3 -13 8 0 9 -71 48 -82 45 -4 -2 -8 1 -8 6 0 8 -131 91 -144
91 -3 0 -6 -13 -6 -29z"/>
<path d="M3149 2807 c-42 -45 -91 -91 -110 -101 l-35 -18 -84 60 c-112 80
-199 132 -214 126 -7 -3 -20 -18 -29 -34 l-18 -29 49 -25 c44 -22 97 -71 119
-110 4 -8 40 -24 78 -35 39 -11 60 -20 47 -20 -23 -1 -23 -2 7 -27 28 -23 34
-25 66 -14 37 12 85 62 85 88 0 9 18 27 40 40 54 31 108 79 126 113 18 36 18
46 -3 52 -10 2 -25 7 -33 11 -10 4 -39 -21 -91 -77z"/>
<path d="M2599 2763 c-19 -51 16 -166 65 -212 23 -22 23 -22 5 -59 -23 -44
-24 -56 -3 -76 8 -9 12 -16 9 -16 -4 0 0 -12 9 -27 l17 -28 -20 23 c-10 12
-22 22 -25 22 -13 0 -5 -60 10 -74 22 -22 44 -20 44 5 0 11 5 17 10 14 7 -4 7
-12 0 -25 -18 -34 -12 -68 13 -73 l22 -4 -22 -2 c-15 -1 -23 -7 -23 -18 0 -37
22 -148 30 -159 6 -6 7 -13 4 -16 -3 -3 1 -31 9 -62 17 -63 16 -92 -3 -88 -7
2 -34 -17 -59 -42 -25 -25 -77 -69 -116 -99 -59 -45 -70 -58 -70 -83 0 -24 4
-29 22 -27 15 2 21 -2 17 -11 -12 -31 105 -46 196 -25 55 12 180 69 180 81 0
5 -7 11 -16 15 -11 4 -4 12 28 31 24 14 61 43 83 63 l40 38 -20 56 c-13 39
-23 54 -32 50 -11 -4 -13 1 -7 18 3 12 10 27 14 32 5 6 9 60 9 120 1 61 5 146
10 190 4 44 7 94 6 110 -1 17 -3 45 -3 63 -1 21 -6 31 -13 26 -6 -3 -3 5 6 20
10 14 16 26 14 26 -2 0 -19 -4 -37 -9 -19 -6 -30 -6 -27 -1 9 15 -75 70 -117
77 -29 4 -43 13 -53 33 -27 52 -68 91 -126 121 -32 16 -61 29 -64 29 -3 0 -10
-12 -16 -27z"/>
<path d="M4305 2706 c-162 -65 -259 -111 -275 -131 -11 -13 -11 -20 0 -41 16
-29 130 -108 140 -97 16 20 29 63 19 63 -46 0 116 88 229 125 50 16 52 18 52
53 0 49 -10 82 -24 81 -6 0 -69 -24 -141 -53z"/>
<path d="M4410 2586 c-127 -44 -203 -111 -198 -174 4 -45 28 -54 48 -18 7 14
17 23 22 20 5 -3 14 -2 21 3 7 4 -1 -4 -18 -19 -23 -22 -27 -30 -16 -37 10 -6
10 -10 1 -13 -8 -2 -6 -11 8 -28 41 -51 191 -19 245 52 28 36 54 127 39 137
-5 3 -12 17 -15 31 -7 30 -42 70 -60 69 -7 0 -41 -10 -77 -23z"/>
<path d="M4580 2440 c0 -49 -37 -124 -71 -144 -22 -13 -29 -24 -26 -37 3 -11
1 -17 -4 -13 -5 3 -9 11 -9 17 0 8 -28 13 -86 15 l-86 2 22 -30 c12 -16 26
-30 31 -30 5 0 9 -8 9 -18 0 -20 65 -119 107 -163 13 -15 32 -26 41 -24 9 1
11 0 5 -2 -27 -9 3 -52 38 -54 17 -1 19 -3 7 -6 -10 -2 -18 -5 -18 -6 0 -1 24
-49 53 -107 37 -73 63 -111 85 -126 17 -12 29 -24 25 -27 -10 -11 87 -65 138
-77 108 -26 209 27 170 89 -5 7 -13 11 -19 7 -6 -3 -8 1 -5 12 3 14 -17 37
-76 86 -77 66 -107 110 -95 141 5 11 -2 15 -22 16 -24 1 -25 2 -6 6 12 2 22 8
22 13 0 16 -74 81 -86 76 -7 -3 -14 3 -16 12 -3 14 -8 13 -31 -10 -15 -15 -27
-21 -27 -14 0 7 14 25 30 41 36 35 37 44 6 104 -14 25 -30 71 -36 101 -7 30
-18 69 -26 85 -7 17 -14 43 -16 59 -4 41 -28 46 -28 6z"/>
</g>
</svg>
