<?xml version="1.0" standalone="no"?>
<!DOCTYPE svg PUBLIC "-//W3C//DTD SVG 20010904//EN"
 "http://www.w3.org/TR/2001/REC-SVG-20010904/DTD/svg10.dtd">
<svg version="1.0" xmlns="http://www.w3.org/2000/svg"
 width="752.000000pt" height="752.000000pt" viewBox="0 0 752.000000 752.000000"
 preserveAspectRatio="xMidYMid meet">
<metadata>
Created by potrace 1.16, written by Peter Selinger 2001-2019
</metadata>
<g transform="translate(0.000000,752.000000) scale(0.100000,-0.100000)"
fill="#fff" stroke="none">
<path d="M4140 5928 c0 -22 -7 -40 -21 -51 -26 -22 -22 -59 9 -72 12 -5 22
-13 22 -17 0 -3 -10 -8 -22 -10 -45 -6 -19 -97 46 -157 l25 -24 -4 54 c-4 55
-1 51 9 -11 11 -63 20 -66 62 -21 29 31 52 44 93 54 l53 14 -47 41 c-26 23
-51 42 -54 42 -23 2 -102 29 -85 29 61 2 59 91 -2 91 -18 0 -23 6 -26 33 -2
27 -8 33 -30 35 -26 3 -28 0 -28 -30z"/>
<path d="M4591 5879 c-26 -15 -43 -19 -72 -14 -21 4 -42 4 -48 1 -5 -3 -1 -31
10 -67 10 -33 19 -80 19 -104 0 -66 51 -185 79 -185 9 0 37 147 51 272 6 48
13 95 16 103 9 21 -15 19 -55 -6z"/>
<path d="M3956 5841 c-17 -19 -21 -19 -47 -6 -15 8 -49 15 -75 15 l-47 0 45
-48 c24 -26 70 -83 103 -127 65 -90 183 -215 202 -215 7 0 22 9 33 20 11 11
20 16 20 11 0 -6 -10 -17 -22 -26 -23 -16 -23 -16 -3 -32 38 -29 141 -73 198
-83 61 -12 120 -2 165 28 41 27 70 122 38 122 -8 0 -21 9 -29 21 -14 20 -15
19 -33 -18 -28 -56 -78 -86 -133 -80 -38 4 -52 13 -94 56 -27 28 -55 51 -61
51 -18 0 -119 108 -141 150 -10 19 -28 67 -41 105 -24 77 -46 92 -78 56z"/>
<path d="M4323 5610 c-47 -28 -56 -50 -33 -85 32 -49 90 -86 76 -48 -6 16 -6
16 11 0 15 -13 23 -14 43 -4 37 19 58 62 42 87 -9 15 -9 20 0 20 6 0 1 11 -12
25 -29 31 -81 33 -127 5z"/>
<path d="M3815 5436 c-23 -7 -49 -17 -60 -23 -18 -10 -17 -12 15 -27 19 -9 26
-14 15 -10 -56 16 -71 15 -89 -5 -11 -12 -15 -21 -10 -21 5 0 -2 -7 -14 -16
-29 -20 -28 -26 9 -48 17 -10 58 -46 90 -79 55 -56 61 -59 84 -49 14 6 25 18
25 26 0 9 6 13 13 11 6 -3 36 15 64 40 48 42 52 49 46 78 -8 44 -20 67 -56
105 -34 36 -63 40 -132 18z"/>
<path d="M4611 5401 c-19 -27 -20 -31 -6 -65 22 -52 19 -72 -17 -99 -27 -22
-30 -28 -19 -41 18 -21 30 -20 60 7 l26 22 -24 -27 -24 -28 23 -25 c13 -14 27
-25 32 -25 27 0 118 141 118 181 0 33 -23 69 -57 90 -18 11 -37 18 -42 15 -5
-3 -11 1 -15 9 -9 24 -33 18 -55 -14z"/>
<path d="M4070 5343 c-23 -4 -25 -8 -25 -58 0 -51 1 -54 29 -59 16 -4 57 -4
90 -1 34 3 128 10 209 15 163 9 187 18 187 72 0 15 -2 28 -4 28 -2 0 -23 -9
-47 -20 -56 -25 -142 -26 -217 -1 -57 19 -176 32 -222 24z"/>
<path d="M3650 5173 c-26 -43 -27 -49 -12 -54 14 -5 12 -7 -7 -10 -32 -5 -51
-36 -31 -50 12 -8 11 -9 -5 -5 -16 5 -25 -2 -39 -25 -10 -17 -16 -33 -13 -35
3 -3 -6 -16 -19 -29 -13 -13 -24 -30 -24 -38 0 -17 73 -77 94 -77 20 0 39 36
33 61 -3 10 0 17 7 16 20 -4 20 82 -1 107 l-18 21 23 -19 c17 -15 22 -30 22
-65 l0 -46 20 25 c12 15 20 43 21 70 1 25 4 35 6 23 6 -33 14 -28 50 27 l31
50 -29 39 c-25 35 -56 61 -73 61 -3 0 -19 -21 -36 -47z"/>
<path d="M4370 5190 c-30 -5 -117 -8 -192 -9 -76 -1 -138 -3 -138 -6 0 -4 7
-19 15 -35 9 -17 13 -30 10 -30 -2 0 -14 18 -25 40 -26 52 -49 53 -52 3 0 -21
0 -45 1 -53 1 -8 2 -32 1 -52 -1 -31 7 -46 41 -83 60 -65 149 -87 149 -37 0
10 -13 31 -30 47 -16 16 -39 47 -50 69 -15 31 -16 35 -3 16 77 -107 140 -158
218 -174 28 -6 32 -3 50 36 11 24 34 52 52 63 36 23 53 73 53 159 0 63 6 60
-100 46z"/>
<path d="M4940 5177 c-36 -12 -98 -44 -138 -70 l-73 -47 33 -41 c30 -38 33
-47 33 -110 0 -67 1 -69 29 -79 34 -12 56 -13 55 -2 -3 17 2 32 10 32 4 0 6
-11 4 -24 -6 -28 15 -36 101 -36 41 0 74 7 104 21 49 24 106 94 99 121 -3 10
0 18 8 18 28 0 34 103 8 157 -18 39 -69 76 -95 69 -10 -2 -18 0 -18 5 0 17
-95 9 -160 -14z"/>
<path d="M3876 5124 c-50 -27 -66 -44 -103 -104 -24 -40 -43 -74 -41 -75 2 -2
17 -5 34 -6 21 -2 46 6 80 28 27 17 61 35 75 38 26 6 26 8 22 73 -3 37 -5 70
-6 73 -1 4 -29 -8 -61 -27z"/>
<path d="M4635 5023 c-48 -10 -172 -57 -196 -74 -34 -24 -52 -69 -47 -113 3
-28 1 -33 -9 -24 -15 12 -16 5 -3 -42 5 -19 10 -57 12 -85 l3 -50 52 -14 c47
-12 55 -12 78 3 31 20 32 40 3 61 l-23 17 23 -7 c23 -7 23 -7 7 25 -9 18 -14
34 -12 36 2 3 10 -9 17 -26 7 -18 20 -30 31 -30 12 0 16 -5 13 -15 -9 -21 9
-19 42 7 19 15 24 17 15 5 -20 -25 -8 -30 33 -13 42 18 51 43 43 129 -3 33 -2
55 3 48 10 -17 40 25 40 57 0 32 -19 64 -32 56 -7 -5 -8 -2 -4 5 5 7 0 21 -10
32 -16 18 -36 22 -79 12z"/>
<path d="M3905 4954 c-16 -8 -36 -21 -44 -29 -11 -11 -9 -16 16 -28 41 -22
103 -93 103 -118 0 -18 5 -14 26 17 14 21 35 46 47 55 20 17 20 17 -34 68 -59
55 -70 58 -114 35z"/>
<path d="M3713 4884 c-3 -11 -36 -50 -72 -88 -36 -37 -65 -74 -65 -81 1 -10
-8 -12 -30 -8 -31 5 -33 3 -49 -39 -23 -59 -22 -61 18 -56 19 2 35 1 35 -3 0
-6 101 20 139 37 9 4 23 8 31 9 20 2 81 15 103 22 15 4 16 7 5 21 -12 16 -11
16 7 0 13 -10 30 -14 48 -11 37 7 35 38 -5 83 l-33 35 33 -30 c30 -27 33 -28
49 -12 16 16 15 19 -17 53 -42 43 -94 71 -149 80 -34 5 -42 3 -48 -12z"/>
<path d="M4105 4838 c-22 -13 -46 -35 -55 -50 -13 -25 -13 -30 1 -55 36 -62
40 -143 10 -208 -23 -49 -35 -99 -22 -91 5 3 11 0 14 -8 3 -8 -1 -17 -9 -20
-39 -15 10 -53 83 -66 35 -5 40 -8 18 -9 -17 0 -45 3 -63 8 -37 11 -44 -5 -14
-31 32 -29 100 -28 209 1 31 9 44 18 54 43 8 20 9 33 3 35 -6 2 -9 17 -6 33 3
20 -1 32 -11 35 -13 5 -12 14 5 68 20 65 32 184 22 224 -4 14 -14 23 -28 24
-16 1 -17 2 -3 6 24 6 22 15 -13 48 -26 25 -40 30 -93 32 -51 3 -69 0 -102
-19z"/>
<path d="M3947 4744 c-13 -14 -7 -43 12 -53 20 -11 41 -60 41 -96 0 -12 -9
-34 -20 -47 -16 -21 -17 -28 -7 -42 31 -42 77 28 77 116 0 73 -25 122 -65 126
-17 2 -34 0 -38 -4z"/>
<path d="M3730 4624 c-248 -64 -571 -191 -1250 -494 -113 -50 -257 -112 -320
-137 -247 -97 -358 -187 -348 -281 l3 -30 85 56 c107 70 412 218 663 321 106
44 245 105 310 135 274 130 682 280 915 336 86 21 93 25 88 44 -3 11 -6 33 -6
49 0 34 -13 34 -140 1z"/>
<path d="M4572 4605 c-27 -22 -29 -29 -22 -55 5 -18 5 -28 0 -25 -5 3 -19 -5
-31 -17 -21 -23 -21 -23 -10 -1 6 12 11 31 11 43 0 17 -4 21 -17 15 -40 -16
-49 -18 -34 -7 11 8 5 13 -25 21 -21 6 -44 11 -50 11 -18 0 -28 -52 -12 -61
10 -7 9 -9 -4 -9 -10 0 -18 -4 -18 -9 0 -5 -3 -17 -6 -26 -6 -15 1 -16 62 -13
57 2 70 0 71 -12 0 -8 3 -28 5 -45 3 -16 3 -24 1 -17 -3 9 -8 10 -17 3 -9 -8
-11 -2 -8 24 l4 35 -52 0 c-43 0 -51 -3 -46 -16 3 -9 6 -26 6 -39 0 -17 7 -25
23 -28 22 -4 22 -4 0 -6 -23 -1 -41 -37 -26 -51 4 -5 22 -11 38 -13 17 -2 9
-3 -17 -1 -54 3 -48 16 -69 -146 -11 -88 -37 -204 -63 -278 -12 -32 -12 -42
-3 -42 33 0 134 33 152 50 27 25 75 42 101 36 16 -4 33 5 63 32 l42 37 5 195
c4 132 10 209 20 239 14 41 11 111 -5 111 -4 0 -6 12 -3 28 2 18 -3 33 -16 45
-19 17 -21 17 -50 -8z"/>
<path d="M3771 4494 c-24 -7 -50 -21 -58 -31 -8 -10 -12 -12 -8 -5 10 20 -22
14 -159 -29 -81 -25 -125 -44 -117 -49 10 -6 10 -9 1 -12 -13 -4 -20 -196 -8
-239 9 -31 21 -37 91 -45 l52 -6 0 61 c-1 34 3 61 7 61 4 0 8 -17 9 -37 0 -37
0 -38 16 -15 8 12 21 22 28 22 26 0 47 134 24 157 -7 7 -6 12 6 17 9 3 14 2
10 -3 -10 -17 6 -40 23 -34 29 10 51 34 81 87 16 28 41 62 55 75 46 43 29 51
-53 25z"/>
<path d="M3876 4463 c-55 -54 -80 -97 -72 -126 3 -14 2 -17 -6 -9 -13 13 -48
-26 -48 -55 0 -14 -2 -15 -9 -4 -15 23 -28 3 -35 -53 -8 -57 6 -102 26 -90 7
4 8 2 4 -5 -4 -6 -2 -20 6 -29 12 -15 11 -16 -5 -3 -16 13 -20 13 -28 0 -13
-20 -11 -34 9 -68 9 -17 23 -29 30 -26 7 3 10 0 6 -6 -6 -10 52 -79 67 -79 4
0 12 14 18 31 8 24 8 36 0 46 -9 10 -9 12 2 8 10 -4 25 15 47 60 37 76 38 81
15 109 -18 21 -18 21 4 2 l22 -18 28 57 28 57 -22 18 -22 17 24 23 c18 17 23
29 18 50 -3 15 0 31 6 34 19 12 13 54 -9 61 -11 3 -25 15 -30 26 -6 10 -14 19
-19 19 -4 0 -29 -21 -55 -47z"/>
<path d="M3995 4188 c-115 -248 -140 -351 -98 -406 15 -19 29 -27 49 -25 16 0
23 -1 17 -4 -22 -8 -14 -23 21 -40 33 -15 36 -15 63 2 28 18 28 18 11 -2 -54
-60 26 -18 84 45 70 76 112 193 143 399 20 136 20 136 -7 128 -13 -4 -29 -14
-35 -23 -7 -9 -13 -12 -13 -6 0 13 -113 13 -122 0 -5 -7 -8 -5 -8 5 0 17 -19
29 -44 29 -7 0 -35 -46 -61 -102z"/>
<path d="M4747 3979 c-38 -22 -82 -150 -71 -207 11 -53 96 -81 140 -46 10 8
15 17 9 20 -66 29 -80 41 -83 70 -3 30 -2 30 30 25 32 -5 32 -6 6 -9 -35 -4
-39 -39 -5 -51 79 -29 97 -19 56 33 -12 15 -19 29 -17 31 2 3 17 -15 32 -39
29 -47 72 -68 87 -44 7 10 9 9 9 -3 0 -16 39 -39 65 -39 8 0 15 -7 15 -15 0
-8 5 -15 10 -15 6 0 10 6 10 13 0 8 3 8 8 2 4 -6 22 -21 40 -34 40 -28 51 -21
59 36 5 37 3 41 -25 52 -17 7 -36 10 -41 6 -6 -3 -8 0 -5 8 3 10 -5 18 -25 25
-17 6 -31 9 -31 6 0 -3 -7 2 -16 10 -22 23 -62 30 -79 16 -8 -7 -13 -16 -10
-20 2 -4 -8 -5 -23 -1 -24 5 -25 6 -5 9 12 2 27 9 33 17 9 11 5 17 -20 30 -30
15 -33 15 -53 -2 -19 -16 -20 -16 -8 -1 12 16 10 19 -14 28 -14 5 -32 10 -38
11 -7 0 -2 4 11 9 12 5 29 7 37 4 23 -9 19 32 -5 56 -22 22 -55 25 -83 9z"/>
<path d="M4580 3902 c-22 -22 -40 -36 -40 -31 0 13 -74 11 -88 -3 -7 -7 -13
-28 -13 -48 -1 -23 -3 -27 -6 -12 -5 26 -40 31 -50 6 -4 -10 -8 -12 -12 -5 -5
7 -18 8 -41 1 -19 -6 -51 -10 -70 -10 -30 -1 -40 -7 -65 -43 -40 -56 -40 -55
-13 -60 19 -3 17 -5 -7 -5 -32 -2 -124 -42 -125 -54 0 -13 89 -9 218 9 93 13
121 21 117 31 -3 9 1 9 17 -3 50 -34 68 -15 49 53 -7 21 -6 30 0 26 6 -3 22 5
36 17 l26 24 -14 -25 c-8 -13 -19 -29 -26 -35 -6 -6 -9 -24 -6 -43 4 -24 10
-31 22 -28 9 2 30 7 47 11 18 3 40 15 50 26 16 17 16 22 4 30 -11 7 -8 8 11 3
34 -7 38 1 30 58 -4 26 -4 51 1 56 14 14 14 84 0 89 -7 3 -30 -13 -52 -35z"/>
<path d="M3723 3883 c4 -33 1 -54 -9 -67 -17 -24 -18 -60 -1 -73 20 -16 200
-90 230 -95 41 -8 34 16 -15 51 -73 52 -85 66 -92 107 -6 31 -18 49 -56 82
-27 23 -52 42 -56 42 -4 0 -4 -21 -1 -47z"/>
<path d="M4612 3668 c-31 -25 -39 -38 -35 -53 3 -11 9 -21 13 -23 4 -2 6 -12
3 -22 -9 -33 6 -73 24 -66 13 5 14 4 3 -9 -9 -11 -10 -25 0 -65 7 -27 16 -50
21 -50 4 0 6 -6 4 -12 -3 -7 1 -35 9 -63 10 -40 16 -49 32 -47 18 3 18 3 2
-10 -16 -12 -17 -18 -4 -78 11 -54 16 -65 32 -62 18 2 18 2 2 -8 -10 -6 -18
-22 -18 -35 0 -20 6 -24 38 -28 l37 -4 -37 -1 c-35 -2 -38 -4 -38 -33 0 -28 3
-31 23 -25 12 3 58 11 102 17 44 5 104 21 133 34 47 22 53 27 46 47 -3 13 -11
25 -15 26 -5 2 -7 7 -4 12 3 4 0 22 -6 39 -8 22 -17 31 -32 31 -17 0 -19 2 -8
9 22 14 -14 91 -43 91 -17 0 -18 2 -6 10 12 8 11 17 -13 65 -17 35 -33 55 -44
55 -14 0 -15 2 -5 9 21 13 -35 121 -63 121 -15 0 -17 2 -6 9 20 13 -16 71 -44
71 -16 0 -17 2 -5 10 12 8 10 14 -15 40 -16 16 -32 30 -36 30 -4 0 -25 -15
-47 -32z"/>
<path d="M4740 3696 c0 -20 119 -200 163 -246 29 -30 35 -39 15 -20 -21 18
-38 29 -38 22 0 -17 53 -122 62 -122 4 0 14 10 22 22 9 12 17 20 18 17 2 -2
23 -27 48 -54 l45 -50 -48 45 c-47 44 -47 44 -67 25 -19 -20 -19 -21 25 -110
48 -96 49 -99 79 -133 19 -22 19 -22 1 -16 -15 6 -17 4 -13 -14 11 -42 -68
-85 -195 -107 -39 -6 -39 -6 -21 -28 l19 -22 -25 22 c-23 20 -30 21 -68 11
-23 -6 -42 -14 -42 -18 0 -4 25 -29 56 -55 30 -26 78 -78 106 -114 27 -36 55
-65 61 -63 34 10 250 165 312 223 66 63 133 145 124 152 -2 2 -19 15 -38 31
-19 15 -39 25 -46 22 -7 -2 -12 1 -11 8 0 6 -27 38 -62 70 -61 57 -63 58 -83
40 -20 -18 -19 -18 38 -78 l58 -61 -60 58 c-50 47 -63 55 -75 45 -12 -11 -12
-10 -2 3 6 9 10 19 7 22 -3 4 -2 5 2 2 8 -6 43 24 43 37 0 5 -25 43 -56 85
l-56 75 -26 -24 -27 -23 25 28 25 29 -105 101 c-103 100 -190 175 -190 163z"/>
<path d="M3608 3595 c-71 -42 -128 -80 -128 -85 0 -6 -6 -10 -14 -10 -10 0
-109 -68 -156 -107 -2 -2 2 -8 10 -13 12 -8 9 -10 -11 -10 -16 0 -44 -17 -80
-50 l-54 -49 30 -2 c27 -1 26 -2 -11 -10 -47 -11 -123 -79 -88 -79 13 -1 9 -5
-14 -15 -21 -9 -38 -27 -47 -49 -16 -37 -21 -136 -7 -136 4 0 16 21 26 47 25
59 68 109 119 135 34 17 46 19 77 9 21 -6 52 -21 71 -34 19 -12 61 -39 94 -59
73 -44 138 -107 210 -202 29 -39 67 -84 84 -100 l31 -29 39 17 c40 18 106 82
154 148 30 40 31 39 -41 53 -20 4 -38 2 -48 -6 -12 -9 -13 -9 -9 3 4 10 -9 19
-45 32 -30 11 -73 39 -103 66 l-52 48 1 64 c1 54 -2 67 -18 77 -16 10 -23 9
-36 -1 -15 -11 -15 -11 -5 3 10 12 10 18 0 28 -9 10 -8 11 5 6 13 -5 27 8 57
56 28 44 37 67 30 75 -7 8 -5 11 8 10 12 -1 28 25 59 99 43 99 46 116 21 99
-7 -5 -5 -1 6 8 10 10 16 22 12 28 -14 22 -55 7 -177 -65z"/>
<path d="M3825 3603 c-8 -20 -15 -37 -15 -39 0 -1 19 -5 43 -7 l42 -4 -46 -1
c-39 -2 -48 -6 -57 -27 -16 -35 -15 -43 6 -48 12 -3 11 -5 -6 -6 -16 -1 -27
-11 -38 -36 -20 -48 -18 -55 16 -55 17 0 30 5 30 10 0 6 6 5 14 -2 11 -11 5
-14 -37 -18 -50 -5 -52 -6 -63 -45 -9 -34 -9 -41 5 -47 14 -6 14 -7 -1 -7 -19
-1 -28 -35 -27 -108 1 -60 15 -77 98 -119 43 -21 306 -84 353 -84 4 0 7 30 7
68 -1 37 2 93 6 125 6 50 5 60 -11 73 -17 12 -17 13 -1 8 15 -5 17 1 17 48 0
47 -3 57 -22 67 l-23 11 23 -6 c21 -5 22 -2 22 44 0 27 -3 52 -7 55 -3 4 -5
37 -4 73 2 64 2 67 -20 61 -34 -9 -184 11 -239 32 l-50 19 -15 -35z"/>
<path d="M4420 3623 c-62 -4 -199 -23 -216 -30 -12 -4 -13 -18 -8 -67 4 -33
12 -64 18 -68 8 -5 7 -8 -1 -8 -9 0 -13 -19 -13 -61 0 -59 1 -61 23 -54 12 3
59 12 104 18 70 9 83 14 86 31 4 19 4 19 6 -1 1 -19 7 -23 35 -23 24 0 36 5
39 18 4 16 5 16 6 0 1 -11 9 -18 20 -18 11 0 22 8 24 18 4 16 5 16 6 0 1 -20
41 -25 41 -5 0 6 -6 32 -14 57 -11 40 -17 46 -47 51 l-34 6 33 2 c30 1 32 3
26 29 -4 15 -13 32 -21 38 -9 8 -10 13 -3 16 7 2 9 14 5 31 -8 29 -4 28 -115
20z"/>
<path d="M4319 3340 c-121 -12 -118 -9 -119 -153 0 -67 -2 -159 -5 -204 l-6
-81 70 -16 c93 -21 267 -21 343 0 53 15 58 19 58 45 0 21 -6 29 -22 32 l-23 4
23 2 c19 1 22 7 22 40 0 39 -1 40 -37 44 l-38 4 38 1 c36 2 38 4 33 30 -3 15
-8 49 -12 75 -4 28 -13 51 -21 54 -9 4 -11 8 -4 12 7 5 6 25 -6 64 l-16 57
-101 -1 c-56 -1 -135 -5 -177 -9z"/>
<path d="M3162 3113 c-7 -3 -22 -23 -33 -45 -26 -51 -28 -191 -4 -273 13 -46
14 -63 5 -91 -7 -20 -9 -38 -6 -41 3 -3 -5 -13 -17 -23 -18 -15 -19 -20 -8
-34 12 -14 12 -16 -1 -11 -34 13 -63 -184 -70 -466 l-3 -116 90 -21 c162 -38
150 -39 168 10 24 63 22 96 -5 101 -13 2 -7 3 13 1 l35 -4 47 120 c26 65 55
154 66 197 34 137 34 136 16 130 -11 -5 -10 1 6 22 25 34 19 90 -9 92 -10 0
-5 5 11 11 17 6 30 20 34 36 3 15 21 49 40 76 18 26 33 55 33 62 0 12 4 12 21
3 17 -9 20 -8 14 3 -83 140 -350 298 -443 261z"/>
<path d="M5290 2887 c-82 -77 -107 -96 -198 -156 -45 -30 -85 -58 -88 -63 -3
-4 14 -17 38 -28 24 -11 37 -20 30 -20 -27 0 -41 -29 -51 -103 -10 -70 -9 -83
14 -159 14 -46 37 -127 53 -180 26 -95 28 -98 57 -99 l30 -2 -27 -4 c-36 -5
-40 -42 -5 -44 l22 -1 -23 -6 c-37 -11 -6 -39 63 -57 74 -19 106 -19 150 -1
29 13 35 20 35 46 0 30 0 30 -24 15 -14 -9 -51 -18 -83 -21 l-58 -4 68 13 c38
7 72 19 77 27 13 21 0 41 -32 47 -26 5 -28 7 -13 16 11 6 25 5 41 -2 l24 -11
0 185 c0 137 -3 185 -12 185 -9 0 -9 3 0 12 16 16 15 43 -4 79 -13 26 -18 29
-32 18 -9 -7 -3 2 15 21 24 27 30 41 26 62 -3 14 2 58 11 97 22 95 21 153 -2
174 -28 26 -43 21 -102 -36z"/>
<path d="M4633 2852 c-24 -9 -43 -20 -43 -24 0 -4 21 -22 47 -39 26 -18 64
-48 84 -66 46 -41 102 -65 134 -57 14 3 25 10 25 14 0 14 -74 103 -123 148
-51 46 -61 48 -124 24z"/>
<path d="M2975 1935 c-40 -45 -90 -137 -100 -185 -3 -19 -9 -43 -11 -52 -3
-10 2 -18 13 -21 17 -4 17 -5 1 -6 -33 -2 -18 -29 24 -46 23 -9 72 -19 108
-22 55 -5 74 -2 116 17 34 16 44 24 32 27 -27 7 -21 16 21 36 41 19 65 58 55
89 -4 13 -2 18 4 14 14 -9 22 18 22 78 l0 51 -67 14 c-38 7 -77 14 -88 15 -11
0 -22 4 -25 7 -3 4 -20 10 -38 14 -29 6 -36 3 -67 -30z"/>
<path d="M5125 1907 c-13 -31 -13 -32 18 -44 l32 -13 -32 6 c-31 5 -33 4 -33
-24 0 -18 6 -32 16 -36 9 -4 14 -9 11 -12 -3 -3 -19 2 -37 11 -18 9 -34 14
-37 11 -8 -7 115 -95 179 -127 l57 -29 4 23 c4 19 4 19 6 -4 1 -23 8 -28 44
-37 140 -36 269 -22 324 33 54 54 42 95 -26 95 -23 0 -74 31 -146 87 -72 57
-94 73 -102 73 -5 0 -20 -11 -33 -25 -20 -21 -21 -27 -10 -41 9 -10 24 -14 42
-12 22 4 25 2 17 -9 -7 -7 -16 -13 -22 -13 -6 0 -18 -6 -26 -14 -9 -7 -29 -16
-46 -20 -26 -5 -27 -5 -10 5 43 25 56 41 44 56 -7 8 -20 11 -33 7 -17 -5 -16
-3 7 15 15 13 27 27 27 32 0 5 -29 9 -63 9 -35 0 -85 6 -111 14 l-48 15 -13
-32z"/>
</g>
</svg>
