<?xml version="1.0" standalone="no"?>
<!DOCTYPE svg PUBLIC "-//W3C//DTD SVG 20010904//EN"
 "http://www.w3.org/TR/2001/REC-SVG-20010904/DTD/svg10.dtd">
<svg version="1.0" xmlns="http://www.w3.org/2000/svg"
 width="752.000000pt" height="752.000000pt" viewBox="0 0 752.000000 752.000000"
 preserveAspectRatio="xMidYMid meet">
<metadata>
Created by potrace 1.16, written by Peter Selinger 2001-2019
</metadata>
<g transform="translate(0.000000,752.000000) scale(0.100000,-0.100000)"
fill="#fff" stroke="none">
<path d="M2804 5913 c10 -34 25 -179 41 -378 8 -110 20 -234 25 -275 5 -41 19
-176 30 -300 12 -123 23 -226 25 -228 2 -2 21 0 42 5 l39 8 -17 165 c-18 170
-40 407 -64 685 -16 183 -33 251 -76 300 -34 38 -53 46 -45 18z"/>
<path d="M3195 5336 c-21 -54 -17 -89 20 -175 32 -77 65 -225 65 -298 l0 -53
33 0 c18 0 41 6 51 13 17 12 16 20 -15 137 -32 127 -42 243 -26 306 7 29 5 33
-47 72 -30 23 -57 42 -60 42 -2 0 -12 -20 -21 -44z"/>
<path d="M3505 5135 c-22 -8 -41 -15 -42 -15 -1 0 -9 -12 -17 -28 -10 -20 -13
-50 -9 -113 5 -73 3 -90 -16 -127 -50 -99 -169 -94 -222 9 -21 42 -22 85 -4
145 6 18 -1 25 -37 43 -42 20 -127 29 -141 15 -4 -4 7 -22 23 -41 36 -41 75
-115 85 -163 37 -173 197 -221 330 -99 57 53 92 122 111 220 9 46 22 99 30
117 8 19 14 38 14 43 0 14 -60 10 -105 -6z"/>
<path d="M3015 4950 c4 -36 12 -127 19 -204 l11 -138 53 61 54 61 -20 43 c-11
23 -34 76 -51 117 -17 41 -41 86 -52 100 l-20 25 6 -65z"/>
<path d="M3526 4799 c-26 -43 -108 -105 -166 -124 -58 -19 -106 -14 -157 15
-28 16 -33 17 -33 4 0 -8 7 -28 15 -44 13 -24 22 -30 49 -30 48 0 130 17 221
45 77 24 81 27 108 75 33 61 33 64 4 77 -21 10 -26 8 -41 -18z"/>
<path d="M3591 4729 l-33 -61 29 -36 c17 -20 36 -37 44 -37 18 0 68 84 76 127
5 33 2 38 -25 52 -17 9 -37 16 -44 16 -7 0 -28 -27 -47 -61z"/>
<path d="M3430 4623 c-41 -13 -104 -27 -139 -30 l-63 -6 5 -44 c6 -58 61 -167
95 -191 15 -11 39 -22 54 -26 24 -5 27 -3 33 33 6 34 11 41 36 45 16 3 43 9
60 12 24 5 34 15 46 42 28 66 3 194 -37 191 -8 -1 -49 -12 -90 -26z"/>
<path d="M2866 4489 c-27 -32 -34 -76 -16 -109 11 -21 60 -40 101 -40 l29 0 0
68 c0 59 -3 72 -23 90 -32 30 -61 27 -91 -9z"/>
<path d="M3685 4425 c-38 -7 -95 -20 -125 -28 -30 -8 -67 -18 -82 -21 -23 -5
-28 -12 -28 -37 0 -28 3 -31 23 -25 56 17 314 76 330 76 11 0 17 8 17 25 0 22
-4 25 -32 24 -18 0 -64 -7 -103 -14z"/>
<path d="M3775 4359 c-160 -35 -305 -73 -305 -79 0 -4 15 -21 33 -36 63 -57
111 -197 128 -382 7 -70 13 -128 14 -129 1 -1 38 6 83 17 112 27 240 78 252
100 17 31 20 171 5 253 -23 129 -100 268 -148 266 -12 -1 -40 -5 -62 -10z"/>
<path d="M3050 4295 c0 -15 9 -38 20 -52 11 -14 20 -38 20 -53 0 -23 7 -31 41
-44 23 -10 45 -13 49 -9 14 15 41 126 33 133 -9 9 -84 35 -130 45 -31 6 -33 5
-33 -20z"/>
<path d="M3030 4220 c-8 -6 -37 -10 -65 -10 -73 0 -92 -8 -104 -42 -16 -47
-13 -82 10 -112 28 -35 65 -35 74 2 10 39 49 87 84 102 30 12 38 33 23 57 -5
8 -13 9 -22 3z"/>
<path d="M3445 4167 c-22 -12 -82 -38 -134 -59 -86 -35 -95 -36 -120 -23 -16
8 -52 23 -81 34 -47 18 -56 19 -80 6 -27 -14 -52 -55 -64 -107 -5 -23 2 -33
56 -80 35 -29 72 -61 82 -70 36 -33 101 -51 168 -46 67 4 144 37 260 111 l57
37 -16 52 c-18 62 -70 169 -81 167 -4 -1 -25 -11 -47 -22z"/>
<path d="M3535 3898 c-27 -17 -80 -48 -118 -68 -37 -20 -65 -39 -62 -41 2 -3
-18 -6 -46 -6 -27 0 -52 -3 -55 -6 -6 -5 15 -217 23 -230 9 -16 81 -45 126
-52 26 -4 95 -4 153 0 131 9 135 24 22 67 -76 29 -78 30 -78 64 0 28 6 38 33
54 17 11 43 20 55 20 23 0 24 1 18 73 -3 39 -5 91 -6 115 0 23 -3 42 -7 42 -5
0 -30 -15 -58 -32z"/>
<path d="M3795 3735 c-38 -13 -80 -24 -92 -24 -61 -2 -5 -41 58 -41 17 0 42
-12 61 -29 18 -15 43 -31 56 -35 22 -7 22 -6 22 73 0 94 4 92 -105 56z"/>
<path d="M3930 3667 l0 -73 57 -26 58 -27 17 27 c10 15 18 41 18 58 0 54 -65
114 -125 114 -24 0 -25 -1 -25 -73z"/>
<path d="M3562 3659 c-21 -8 -39 -35 -30 -44 2 -3 19 -8 36 -11 27 -5 33 -3
42 17 10 22 10 22 7 -8 -3 -31 -1 -33 43 -48 43 -14 46 -18 42 -44 -3 -22 2
-33 23 -50 34 -26 59 -27 85 -1 27 27 28 108 1 141 -20 25 -71 34 -83 15 -5
-8 -8 -7 -8 2 0 25 -114 48 -158 31z"/>
<path d="M3870 3548 c0 -53 -20 -96 -50 -108 -31 -13 -34 -18 -22 -37 5 -7 29
-9 73 -6 l66 6 29 56 c16 31 30 59 32 62 4 8 -91 49 -112 49 -10 0 -16 -9 -16
-22z"/>
<path d="M3195 3496 c-9 -13 -18 -39 -22 -58 l-5 -35 63 -7 c35 -3 68 -11 73
-16 6 -6 28 -10 49 -10 35 0 39 2 34 21 -5 19 -4 20 12 5 24 -22 32 -21 80 15
l42 30 -22 -30 c-27 -37 -21 -46 34 -44 27 0 52 -6 69 -18 35 -25 72 -24 133
4 l50 23 -30 20 c-17 10 -41 29 -55 42 -24 21 -31 22 -183 20 -86 -2 -158 -1
-160 2 -5 11 -108 60 -127 60 -11 0 -27 -11 -35 -24z"/>
<path d="M3986 3434 c-10 -27 -7 -34 17 -34 12 0 38 -13 57 -28 69 -57 309
-186 505 -272 77 -34 173 -80 213 -102 80 -44 107 -46 107 -8 0 19 -17 36 -85
81 -160 107 -356 206 -647 325 -143 59 -158 62 -167 38z"/>
<path d="M3850 3364 c-8 -3 -42 -17 -75 -32 -33 -14 -61 -27 -62 -27 -1 0 16
-54 37 -120 22 -66 40 -123 40 -128 0 -17 42 -99 60 -117 18 -18 19 -18 58 1
26 13 76 23 153 29 168 14 195 19 223 41 33 26 33 45 -3 100 -36 57 -162 183
-204 203 -18 8 -45 24 -62 36 -22 15 -45 20 -90 19 -33 0 -67 -3 -75 -5z"/>
<path d="M3134 3331 c-82 -60 -374 -395 -374 -429 0 -12 45 -21 135 -28 l70
-5 55 83 c30 46 54 89 54 95 -1 7 2 11 6 8 15 -9 180 262 180 294 0 6 -19 11
-43 11 -33 0 -54 -8 -83 -29z"/>
<path d="M3304 3332 c-14 -9 -34 -68 -27 -76 4 -3 1 -6 -5 -6 -7 0 -12 -5 -12
-11 0 -6 -13 -44 -30 -86 -16 -41 -30 -78 -30 -83 0 -5 24 -11 53 -13 l52 -3
-56 -2 c-66 -2 -66 -3 -104 -149 -33 -126 -33 -165 2 -192 50 -40 217 -70 395
-71 94 0 118 11 118 53 0 49 -19 97 -38 97 -12 0 -13 3 -5 8 9 5 9 18 0 52 -6
25 -14 47 -17 50 -7 7 -15 171 -15 307 l0 111 -86 11 c-98 13 -179 14 -195 3z"/>
<path d="M3633 3293 c-16 -6 -18 -169 -3 -208 6 -15 6 -24 1 -20 -6 3 -7 -18
-4 -52 4 -44 22 -92 74 -198 89 -183 134 -253 165 -261 31 -8 67 16 102 68 92
138 149 170 309 178 89 4 116 9 130 23 16 16 17 20 2 45 -8 15 -22 26 -30 25
-9 -2 -20 11 -28 32 -14 41 -15 41 -104 16 -37 -10 -67 -15 -67 -11 0 19 -242
-13 -278 -36 -21 -14 -25 -13 -52 6 -44 31 -64 72 -120 243 -52 159 -57 167
-97 150z"/>
<path d="M3044 2930 c-75 -113 -65 -108 -196 -86 l-78 12 -28 -35 c-16 -20
-36 -50 -45 -67 l-16 -31 73 -5 c63 -4 90 -13 207 -68 74 -34 155 -78 180 -96
26 -19 49 -34 51 -34 9 0 69 102 64 108 -3 2 -29 4 -58 4 -29 0 -64 6 -78 13
-14 8 -21 14 -17 15 5 0 1 10 -7 22 -28 40 -16 136 40 326 5 16 2 22 -10 22
-9 0 -44 -42 -82 -100z"/>
<path d="M4186 2759 c-70 -17 -117 -51 -168 -124 -45 -64 -48 -71 -32 -82 33
-24 57 -13 135 61 96 92 127 103 225 81 59 -14 69 -14 82 -1 13 12 13 20 2 45
l-12 31 -97 -1 c-53 -1 -113 -5 -135 -10z"/>
<path d="M2730 2677 c0 -25 46 -72 87 -90 175 -75 264 -100 308 -89 l29 8 -35
26 c-54 40 -289 146 -341 154 -39 5 -48 4 -48 -9z"/>
<path d="M4208 2648 c-20 -13 -57 -47 -83 -76 -44 -49 -47 -55 -35 -77 17 -33
72 -57 107 -49 70 17 234 121 251 159 20 44 15 50 -35 51 -27 1 -75 4 -108 8
-53 6 -64 4 -97 -16z"/>
<path d="M2723 2582 c3 -24 18 -69 34 -100 l28 -57 60 -8 c74 -10 171 -4 208
13 35 17 34 24 -5 38 -220 73 -257 90 -302 131 l-29 26 6 -43z"/>
<path d="M4330 2475 c-41 -25 -77 -45 -80 -45 -4 0 -13 -12 -20 -27 -11 -23
-14 -25 -17 -10 -3 9 -10 17 -18 17 -15 0 -26 -22 -31 -64 -6 -43 26 -104 94
-179 37 -40 79 -101 103 -150 23 -45 46 -85 51 -88 5 -3 9 -9 9 -13 -3 -14 50
-106 61 -106 33 0 124 38 151 62 26 25 29 33 24 66 -4 20 -35 96 -71 167 -36
72 -71 153 -78 180 -7 28 -17 53 -22 56 -5 4 -6 12 -2 17 8 14 -13 102 -25
102 -5 0 -9 6 -9 13 0 13 -30 47 -41 47 -2 0 -38 -21 -79 -45z"/>
<path d="M3086 2411 c-37 -24 -47 -26 -158 -26 l-119 0 5 -29 c3 -16 6 -32 6
-37 0 -5 8 -9 18 -9 13 0 14 -2 3 -9 -11 -7 -8 -28 18 -117 68 -236 63 -227
112 -252 34 -18 56 -22 97 -19 89 6 92 11 98 229 3 127 2 188 -6 193 -6 3 -8
11 -4 16 6 10 -13 76 -24 83 -4 2 -25 -8 -46 -23z"/>
<path d="M2907 1897 c-10 -7 -39 -32 -64 -56 -25 -24 -78 -58 -118 -76 -40
-18 -74 -39 -77 -47 -7 -19 6 -50 31 -72 27 -25 103 -23 204 5 39 11 128 24
197 29 117 8 126 10 147 35 28 32 28 40 2 111 -19 49 -24 55 -43 49 -55 -19
-104 -16 -179 9 -43 14 -78 26 -80 25 -1 0 -10 -6 -20 -12z"/>
<path d="M4635 1829 c-16 -10 -54 -27 -82 -36 -50 -16 -53 -19 -53 -50 0 -18
1 -33 3 -33 1 0 22 6 47 13 26 8 56 11 70 6 14 -4 41 -8 60 -9 27 -2 30 -4 11
-7 -19 -4 -21 -7 -10 -14 9 -6 0 -7 -27 -3 -44 7 -154 -12 -154 -26 0 -5 10
-21 23 -35 19 -23 33 -27 117 -35 142 -14 148 -13 153 13 l4 22 2 -22 c1 -27
9 -28 39 -7 42 29 20 104 -51 176 -36 36 -92 69 -114 67 -4 0 -21 -9 -38 -20z"/>
</g>
</svg>
