<?xml version="1.0" standalone="no"?>
<!DOCTYPE svg PUBLIC "-//W3C//DTD SVG 20010904//EN"
 "http://www.w3.org/TR/2001/REC-SVG-20010904/DTD/svg10.dtd">
<svg version="1.0" xmlns="http://www.w3.org/2000/svg"
 width="752.000000pt" height="752.000000pt" viewBox="0 0 752.000000 752.000000"
 preserveAspectRatio="xMidYMid meet">
<metadata>
Created by potrace 1.16, written by Peter Selinger 2001-2019
</metadata>
<g transform="translate(0.000000,752.000000) scale(0.100000,-0.100000)"
fill="#fff" stroke="none">
<path d="M3081 5807 c-16 -35 -54 -105 -84 -156 -70 -115 -92 -178 -91 -261 0
-113 66 -220 166 -271 40 -21 42 -21 56 -3 13 18 13 18 10 -1 -2 -15 3 -21 22
-23 20 -2 31 6 53 40 40 62 36 74 -23 87 -28 6 -63 17 -79 25 -30 16 -101 90
-101 106 0 6 -4 10 -9 10 -8 0 1 -75 14 -115 3 -11 -2 -6 -11 10 -21 35 -22
97 -6 215 9 70 22 105 66 195 55 108 81 205 57 205 -7 0 -25 -29 -40 -63z"/>
<path d="M3600 5845 c0 -21 47 -90 87 -126 125 -116 138 -132 156 -196 19 -69
22 -130 8 -152 -6 -10 -8 1 -4 30 l5 44 -31 -51 c-16 -29 -52 -70 -78 -92
l-48 -41 28 -56 c15 -30 30 -55 34 -55 21 0 111 81 138 124 27 45 30 58 33
150 3 97 2 103 -28 161 -41 76 -52 89 -125 138 -33 22 -81 60 -107 84 -42 38
-68 53 -68 38z"/>
<path d="M3353 5366 c-52 -71 -62 -93 -68 -139 l-7 -56 38 -11 c22 -6 55 -10
74 -8 32 3 35 6 38 38 3 24 -2 38 -14 47 -10 7 -12 13 -6 13 8 0 12 28 14 93
l1 92 7 -105 c4 -58 10 -120 14 -137 7 -31 10 -33 54 -34 43 -2 40 -3 -23 -11
-93 -12 -129 -11 -169 6 l-32 13 -23 -43 c-17 -32 -22 -52 -17 -77 l6 -34 58
5 c31 2 98 12 149 22 93 18 146 15 190 -8 34 -19 43 -14 43 21 0 25 -7 39 -30
55 -16 12 -33 34 -36 48 -4 16 -11 23 -20 20 -37 -15 -46 -16 -21 -1 35 20 34
43 -4 116 -28 53 -126 159 -146 159 -4 0 -36 -38 -70 -84z"/>
<path d="M3475 5004 c-22 -8 -60 -15 -85 -15 -25 -1 -60 -3 -78 -6 -31 -4 -33
-7 -28 -31 5 -26 5 -26 -6 -4 -14 28 -32 24 -36 -10 -4 -36 36 -138 55 -138
12 0 15 8 10 43 -2 23 -8 51 -11 62 -3 11 1 4 10 -15 9 -19 24 -40 35 -48 10
-7 19 -19 19 -25 0 -7 -5 -4 -11 6 -12 21 -29 22 -29 2 0 -8 -5 -24 -12 -34
-10 -16 -6 -25 21 -60 42 -53 103 -85 147 -78 37 6 129 72 161 115 17 23 19
32 10 41 -9 9 -8 11 4 6 19 -7 29 29 29 106 0 54 -16 72 -38 43 -13 -18 -14
-18 -7 4 5 19 1 25 -29 37 -44 19 -80 18 -131 -1z"/>
<path d="M3135 4950 c-3 -15 -5 -31 -4 -36 1 -5 -1 -17 -6 -27 -4 -9 -5 -26
-2 -37 3 -11 1 -23 -4 -26 -5 -3 -9 -18 -9 -35 0 -22 5 -29 20 -29 17 0 20 7
22 43 l1 42 4 -37 c4 -38 5 -38 49 -38 24 0 44 3 43 8 -2 25 -56 171 -62 166
-4 -4 -7 0 -7 8 0 9 -9 18 -19 21 -15 4 -21 -2 -26 -23z"/>
<path d="M3655 4703 c-4 -11 -9 -13 -12 -6 -4 12 -113 -62 -113 -77 0 -20 29
-31 52 -20 22 11 22 10 4 -4 -25 -20 -28 -20 -52 2 -12 12 -34 18 -64 17 -25
0 -56 4 -70 9 l-25 8 25 -28 25 -29 -28 24 -27 25 -16 -22 c-22 -32 -53 -28
-67 8 -6 17 -14 30 -17 30 -14 0 -72 -69 -66 -79 11 -17 77 -31 154 -31 47 0
72 -4 72 -11 0 -19 -156 -3 -203 20 -38 19 -41 19 -53 3 -8 -9 -14 -20 -14
-23 0 -10 34 -37 60 -49 24 -10 24 -10 -5 -4 -16 3 -38 12 -47 21 -15 13 -18
13 -28 -7 -21 -39 -9 -74 30 -87 l35 -12 -40 0 -41 -1 -1 -122 c0 -68 -5 -192
-11 -277 -6 -85 -7 -164 -2 -175 l7 -21 7 21 c3 11 17 31 30 43 22 21 26 21
57 8 19 -8 56 -33 84 -56 31 -26 56 -39 65 -35 8 4 64 9 125 12 69 3 123 11
146 21 36 16 194 179 219 227 13 24 12 31 -20 90 -19 35 -37 64 -41 64 -17 0
11 -86 36 -107 14 -13 23 -23 19 -23 -4 0 -18 10 -31 22 -13 12 -23 17 -23 10
0 -6 -7 -18 -16 -26 -17 -17 -103 -21 -139 -7 -11 5 9 6 47 3 85 -6 98 3 98
69 0 48 0 49 -32 50 -23 1 -26 3 -11 6 12 2 27 11 33 19 10 11 6 17 -21 30
-20 8 -24 13 -11 10 28 -5 28 1 -4 58 -20 35 -32 46 -50 46 -24 0 -24 -1 -10
-35 8 -19 13 -35 10 -35 -5 0 -34 64 -34 75 0 3 11 5 25 5 14 0 25 5 25 10 0
23 -51 110 -64 110 -8 0 -18 9 -21 21 -5 14 -12 18 -23 13 -60 -25 -104 -36
-157 -40 l-60 -4 70 14 c85 17 156 42 167 59 12 19 10 39 -4 30 -7 -4 14 23
46 60 60 67 85 90 47 41 -31 -40 -26 -45 24 -23 25 11 68 23 95 26 56 6 62 14
25 31 -34 16 -88 15 -104 0 -11 -10 -13 -10 -7 0 5 8 -1 12 -18 12 -13 0 -31
3 -39 6 -8 3 -18 -2 -22 -13z"/>
<path d="M3809 4532 c-82 -43 -97 -54 -102 -74 -6 -22 190 -408 207 -408 1 0
29 11 62 24 32 13 93 31 134 41 41 10 79 21 83 25 22 20 -117 302 -184 372
-43 45 -48 48 -96 48 -37 0 -66 -8 -104 -28z"/>
<path d="M3001 4429 c-50 -76 -97 -185 -120 -275 -23 -90 -31 -185 -16 -191 6
-2 25 42 43 97 18 55 59 163 92 241 33 78 60 150 60 160 0 34 -25 20 -59 -32z"/>
<path d="M3031 4281 c-23 -57 -40 -109 -37 -116 2 -7 -1 -16 -9 -18 -13 -5
-65 -147 -65 -178 0 -12 12 -15 63 -13 l62 2 -58 -6 c-32 -4 -62 -13 -66 -21
-5 -7 -11 -12 -15 -12 -3 1 -10 1 -15 1 -4 0 -11 -39 -15 -87 -3 -49 -9 -101
-12 -118 l-5 -30 21 28 c12 15 28 27 36 27 10 0 14 16 16 63 l2 62 3 -59 4
-58 31 6 c17 3 46 6 64 6 l34 0 0 83 c0 51 -5 88 -12 95 -8 8 -8 12 -1 12 14
0 25 128 12 151 -5 10 -22 25 -37 33 -15 9 -22 15 -17 16 6 0 21 -7 33 -16 13
-9 26 -14 28 -11 11 10 16 193 7 226 -9 35 -9 35 -52 -68z"/>
<path d="M4125 4081 c-101 -25 -175 -51 -175 -62 0 -17 54 -31 101 -26 27 2
60 14 79 27 18 13 46 26 64 29 22 5 32 13 34 29 4 26 -5 27 -103 3z"/>
<path d="M3832 3944 c-36 -47 -41 -57 -31 -75 l11 -21 26 24 c21 18 23 19 9 2
-20 -24 -21 -38 -6 -66 10 -19 14 -18 67 33 l57 54 -54 -56 c-43 -46 -52 -61
-47 -80 7 -22 6 -23 -5 -4 -7 11 -13 22 -15 24 -2 2 -13 -7 -24 -20 l-21 -24
16 27 c16 26 16 30 -5 73 -12 25 -25 45 -29 45 -4 0 -22 -15 -40 -34 l-33 -34
27 -46 c15 -26 26 -49 23 -51 -2 -2 -14 16 -27 41 -21 39 -26 43 -39 31 -11
-12 -12 -19 -2 -38 l11 -24 -19 25 c-18 21 -23 23 -46 12 -32 -14 -32 -23 -1
-70 13 -20 27 -52 31 -70 4 -17 11 -32 16 -32 19 0 48 21 48 35 0 9 6 12 16 8
10 -4 17 1 21 16 3 11 9 19 13 16 7 -4 158 103 209 149 29 25 81 105 81 123 0
21 -26 15 -62 -14 -25 -21 -28 -22 -14 -5 24 27 18 33 -32 35 -22 1 -38 5 -36
8 3 6 -40 40 -48 38 -2 0 -22 -25 -46 -55z"/>
<path d="M3877 3684 c-21 -14 -37 -28 -34 -30 2 -3 40 -9 83 -14 44 -5 140
-18 214 -29 74 -11 159 -22 188 -25 l52 -7 0 30 c0 16 -3 36 -6 45 -7 19 -34
22 -34 4 0 -7 -5 -5 -12 5 -10 12 -48 20 -148 32 -201 23 -257 21 -303 -11z"/>
<path d="M3500 3687 c-35 -18 -53 -60 -45 -107 8 -48 13 -52 79 -57 38 -3 59
1 83 16 l31 20 -14 47 c-22 73 -39 94 -77 94 -17 0 -43 -6 -57 -13z"/>
<path d="M2831 3598 c-6 -29 -15 -79 -18 -110 -5 -48 -3 -58 9 -58 9 0 29 -3
45 -6 27 -5 30 -2 53 45 13 28 27 51 32 51 4 0 8 6 8 13 0 8 9 22 20 32 11 10
20 26 20 36 0 15 -7 16 -61 12 -55 -5 -61 -4 -66 16 -10 37 -29 23 -42 -31z"/>
<path d="M3061 3579 c-19 -34 -21 -43 -10 -50 11 -7 10 -9 -3 -9 -34 0 -18
-27 20 -34 62 -11 302 -20 302 -11 0 20 -40 34 -97 35 -59 0 -63 1 -62 23 1
16 2 18 6 5 4 -14 15 -18 58 -18 l54 0 -9 29 c-4 16 -6 32 -3 35 12 11 -20 36
-47 36 -22 0 -29 -6 -38 -32 l-11 -33 5 33 c8 47 -20 42 -46 -8 -11 -22 -23
-40 -25 -40 -3 0 4 18 15 40 l20 40 -53 0 c-52 0 -54 -1 -76 -41z"/>
<path d="M3488 3485 c-7 -8 17 -133 43 -222 l22 -73 123 0 c67 0 129 3 138 6
19 7 21 47 5 109 -10 41 -14 44 -70 66 -49 18 -64 20 -85 10 -68 -31 -133 0
-137 64 -1 27 -7 41 -17 43 -9 1 -19 0 -22 -3z"/>
<path d="M2928 3403 c-49 -107 -68 -167 -68 -213 0 -55 26 -54 41 3 6 23 26
80 44 127 42 109 53 160 33 160 -9 0 -30 -32 -50 -77z"/>
<path d="M2997 3367 c-46 -131 -70 -224 -64 -241 5 -12 22 -16 75 -16 l68 0 0
83 c-1 71 -3 82 -18 81 -15 -1 -16 2 -7 19 9 15 13 17 20 6 11 -18 15 -12 23
33 6 32 5 36 -13 31 -10 -2 -22 0 -25 6 -4 7 -1 9 8 5 16 -6 56 29 56 50 0 15
-30 26 -70 26 -22 -1 -28 -10 -53 -83z"/>
<path d="M3861 3419 c-16 -46 -15 -48 32 -69 40 -18 43 -18 56 -2 12 16 13 15
7 -4 -6 -18 -1 -24 25 -33 18 -6 34 -9 36 -7 3 2 13 -4 24 -15 22 -22 55 -25
62 -6 3 6 6 3 6 -9 1 -17 26 -31 139 -77 240 -99 370 -141 532 -172 47 -9 95
-18 107 -20 15 -4 23 1 26 12 4 17 5 17 6 1 1 -21 61 -26 61 -5 0 27 -18 40
-49 35 -17 -2 -31 -1 -31 3 0 4 -24 13 -52 19 -157 37 -301 90 -538 195 -93
41 -174 75 -179 75 -5 0 -12 -10 -14 -22 -4 -19 -4 -19 -6 5 -1 21 -9 31 -33
42 -33 13 -33 13 -39 -18 l-6 -32 -2 37 c-1 30 -6 38 -30 46 -27 9 -30 8 -34
-11 -4 -19 -4 -18 -6 4 -1 21 -9 30 -41 43 -22 9 -42 16 -44 16 -2 0 -9 -14
-15 -31z"/>
<path d="M3150 3400 c-33 -124 -46 -244 -31 -282 l11 -28 122 -2 123 -2 -123
-6 c-121 -5 -123 -5 -108 -25 13 -18 28 -20 134 -23 100 -3 122 -1 135 13 25
24 21 43 -10 48 l-28 4 27 2 27 1 0 168 0 167 -135 0 -135 0 -9 -35z"/>
<path d="M2765 3308 c-51 -108 -55 -177 -11 -215 31 -26 63 -27 79 -2 7 12 5
21 -11 37 -12 12 -26 22 -32 22 -18 0 -28 33 -19 63 13 45 17 43 12 -8 -5 -37
-3 -45 11 -45 9 0 18 11 22 28 3 15 17 61 30 102 14 41 26 80 27 85 1 6 -14
11 -34 13 -35 3 -35 3 -74 -80z"/>
<path d="M3876 3255 c29 -79 31 -136 6 -158 -46 -42 -223 -85 -282 -70 -16 4
-20 0 -21 -18 -1 -21 -2 -21 -6 -4 -4 19 -40 54 -54 55 -9 0 23 -139 66 -290
23 -83 42 -131 56 -142 26 -22 80 -23 174 -3 39 8 124 25 190 36 66 12 121 22
123 24 2 1 0 14 -3 28 -6 22 -11 25 -48 21 -40 -3 -40 -3 -9 5 18 5 35 11 37
13 6 6 -89 297 -96 298 -4 0 -11 -30 -17 -67 -9 -61 -9 -56 -5 48 5 100 3 126
-16 187 -20 65 -23 71 -61 86 -22 9 -44 16 -49 16 -5 0 2 -29 15 -65z"/>
<path d="M3830 3158 c-14 -5 -85 -8 -158 -6 l-133 3 6 -25 c12 -48 40 -65 103
-63 116 3 220 45 210 86 -2 11 -9 12 -28 5z"/>
<path d="M3431 3009 c-19 -16 -40 -19 -121 -19 l-97 0 -6 -47 c-3 -27 -2 -95
1 -153 l7 -105 21 45 c12 25 40 65 63 90 l43 45 -35 -45 c-38 -49 -100 -169
-111 -212 -10 -42 -67 -93 -120 -108 -31 -8 -71 -10 -125 -6 -48 5 -81 3 -85
-3 -3 -5 -9 -30 -12 -56 -6 -39 -4 -49 15 -66 29 -27 84 -42 124 -34 30 6 45
14 123 59 27 16 27 16 7 1 -13 -10 -23 -21 -23 -26 0 -15 158 -10 189 6 18 9
36 32 50 64 22 52 29 131 11 131 -7 0 -7 6 0 19 11 22 14 101 3 101 -4 0 -23
-15 -43 -32 -20 -18 -12 -9 17 20 40 41 57 68 74 120 12 37 32 91 45 121 38
84 31 127 -15 90z"/>
<path d="M2915 2962 c-3 -31 -8 -72 -11 -89 -3 -21 -1 -33 6 -33 7 0 5 -6 -4
-15 -8 -8 -18 -37 -21 -63 -3 -26 -10 -55 -16 -64 -13 -25 -11 -62 4 -77 10
-10 8 -11 -7 -5 -17 6 -18 4 -12 -22 12 -47 29 -57 110 -62 95 -6 158 15 187
62 17 28 19 52 19 218 0 175 -1 188 -19 198 -30 16 -31 14 -31 -47 -1 -32 -7
-94 -15 -138 -8 -44 -15 -102 -15 -130 -1 -91 -46 -136 -118 -117 l-37 10 50
1 c28 1 55 5 61 9 19 12 34 49 34 82 l0 31 -34 -35 c-28 -30 -40 -36 -72 -35
l-39 2 44 7 c81 13 107 87 54 152 -15 18 -19 26 -9 18 11 -8 27 -28 38 -45 10
-16 18 -28 19 -25 0 3 6 50 14 105 22 156 25 146 -43 139 -40 -5 -68 -2 -94 9
l-37 15 -6 -56z"/>
<path d="M4174 2675 c8 -21 -18 -31 -97 -39 -37 -4 -142 -20 -232 -36 -91 -17
-179 -30 -196 -30 l-32 0 5 -83 c8 -128 42 -176 109 -157 36 10 51 26 100 99
16 25 29 40 29 35 0 -6 -7 -19 -15 -30 -27 -36 -18 -44 29 -24 24 11 97 27
162 35 111 15 172 34 114 36 -14 0 -41 7 -60 15 -19 8 -24 12 -10 8 58 -14
140 -16 155 -4 23 19 18 35 -17 54 -30 15 -21 15 17 0 25 -10 18 26 -17 83
-30 49 -58 73 -44 38z"/>
<path d="M4172 2430 c-13 -6 -64 -15 -115 -20 -91 -11 -180 -32 -205 -48 -10
-7 -10 -15 -2 -37 10 -27 11 -28 33 -9 22 19 22 19 5 -2 -21 -24 -24 -49 -5
-41 119 53 134 56 207 55 l75 -2 -67 -3 c-62 -4 -68 -6 -69 -26 -1 -17 -2 -18
-6 -4 -2 9 -12 17 -21 17 -18 0 -122 -46 -122 -54 0 -2 20 -46 44 -96 25 -50
52 -125 61 -165 16 -71 18 -74 48 -78 l32 -4 -34 -1 c-29 -2 -33 -5 -27 -24 3
-13 9 -40 12 -61 l7 -38 66 6 c111 10 141 16 156 32 28 27 18 38 -32 36 l-48
-1 45 6 c59 9 62 34 5 43 -22 3 -30 7 -18 8 46 3 50 9 42 64 -5 29 -11 114
-15 189 l-6 137 -26 4 -27 4 28 2 c17 0 27 7 27 16 0 9 -10 16 -27 16 -24 2
-25 2 -5 6 18 4 22 11 22 44 0 41 -2 43 -38 29z"/>
<path d="M3078 2313 c-23 -4 -28 -10 -28 -31 0 -32 -51 -244 -58 -238 -2 3 8
50 22 106 39 153 41 148 -51 152 -43 2 -79 3 -80 3 -2 -1 -9 -53 -18 -116 -8
-63 -22 -139 -30 -169 -8 -30 -13 -56 -11 -58 2 -2 27 -9 54 -16 38 -10 54
-11 63 -2 11 9 11 8 1 -5 -12 -15 -18 -16 -65 -3 -63 17 -67 17 -67 4 0 -20
65 -50 105 -49 22 1 57 -2 78 -6 30 -6 37 -4 37 8 0 11 -12 17 -42 20 -42 3
-42 4 8 5 45 2 52 5 64 30 30 66 109 327 110 365 0 7 -43 7 -92 0z"/>
<path d="M2765 1801 c-3 -5 -20 -13 -38 -17 -17 -3 -43 -11 -57 -17 l-25 -10
30 -7 30 -8 -31 -1 c-35 -1 -49 -14 -56 -52 -5 -26 -4 -26 70 -33 110 -9 157
-7 170 6 9 9 12 9 12 0 0 -20 41 -14 87 13 39 23 43 30 43 63 l0 38 -70 0 -70
1 5 -26 c5 -26 5 -26 -6 2 -7 17 -25 33 -46 42 -42 18 -40 17 -48 6z"/>
<path d="M4185 1765 c-5 -2 -36 -6 -68 -10 -39 -4 -57 -11 -54 -18 16 -37 16
-48 1 -23 l-17 30 -23 -28 c-27 -30 -31 -58 -11 -75 10 -8 17 -7 25 1 8 8 10
6 6 -9 -4 -16 2 -22 33 -31 59 -18 139 -13 168 10 21 16 25 28 25 68 0 27 -4
51 -9 54 -5 3 -23 -7 -40 -23 -22 -21 -31 -39 -32 -63 l-1 -33 -10 28 c-9 25
-6 32 26 63 41 40 47 64 14 63 -13 0 -27 -2 -33 -4z"/>
</g>
</svg>
