<?xml version="1.0" standalone="no"?>
<!DOCTYPE svg PUBLIC "-//W3C//DTD SVG 20010904//EN"
 "http://www.w3.org/TR/2001/REC-SVG-20010904/DTD/svg10.dtd">
<svg version="1.0" xmlns="http://www.w3.org/2000/svg"
 width="752.000000pt" height="752.000000pt" viewBox="0 0 752.000000 752.000000"
 preserveAspectRatio="xMidYMid meet">
<metadata>
Created by potrace 1.16, written by Peter Selinger 2001-2019
</metadata>
<g transform="translate(0.000000,752.000000) scale(0.100000,-0.100000)"
fill="#fff" stroke="none">
<path d="M4013 5908 c3 -13 14 -83 24 -155 14 -104 21 -133 33 -133 37 1 40
12 25 105 -8 50 -15 116 -15 148 l0 57 -36 0 c-32 0 -36 -2 -31 -22z"/>
<path d="M3805 5813 c25 -32 69 -90 98 -130 46 -63 56 -72 85 -72 17 -1 32 1
32 4 0 6 -126 190 -156 228 -18 22 -30 27 -64 27 l-42 0 47 -57z"/>
<path d="M3774 5678 c-30 -27 -35 -29 -25 -10 21 39 -6 25 -69 -37 -63 -62
-76 -87 -37 -77 12 3 55 11 95 18 39 6 72 14 72 17 0 4 23 6 50 7 28 1 53 4
57 7 7 8 -46 87 -58 87 -4 0 -14 -19 -21 -41 -6 -23 -14 -37 -16 -31 -1 5 4
27 12 47 20 47 20 45 -4 45 -10 0 -36 -15 -56 -32z"/>
<path d="M4740 5674 c-268 -29 -359 -40 -555 -69 -126 -19 -286 -41 -355 -49
-69 -9 -205 -36 -304 -61 -98 -25 -190 -45 -205 -45 -43 0 -53 -13 -46 -54 6
-29 11 -36 24 -31 63 25 170 57 249 75 103 22 554 88 1037 150 171 22 326 43
345 46 l35 7 -30 12 c-34 14 -142 24 -195 19z"/>
<path d="M2878 5420 c-37 -29 -38 -77 -2 -119 14 -17 33 -31 41 -31 9 0 13 -6
9 -15 -4 -11 3 -19 20 -25 79 -30 182 9 176 66 -5 39 -10 42 -28 16 -17 -24
-43 -29 -62 -10 -9 9 -16 8 -30 -5 -10 -9 -30 -17 -44 -17 -23 0 -26 6 -37 58
-6 31 -12 68 -13 80 l-3 24 -27 -22z"/>
<path d="M3615 5412 c-49 -9 -83 -18 -73 -20 14 -3 13 -7 -8 -29 -13 -14 -24
-29 -24 -33 0 -5 17 -13 38 -19 l37 -10 -41 5 c-37 5 -44 2 -63 -24 -11 -16
-18 -32 -14 -36 3 -3 1 -6 -5 -6 -6 0 -18 -12 -26 -27 -14 -27 -13 -29 17 -46
18 -10 23 -15 12 -11 -51 17 -55 16 -65 -11 -5 -14 -10 -32 -10 -39 0 -26 109
-48 261 -53 145 -5 146 -5 163 18 31 45 25 48 -116 52 l-133 3 136 2 136 2 5
44 c3 25 3 56 1 70 -5 23 -11 25 -62 29 l-56 3 58 2 c52 2 57 4 57 25 0 18
-10 26 -49 40 -27 9 -68 18 -92 19 l-44 1 38 4 c30 3 37 8 33 19 -3 9 -6 22
-6 30 0 8 -3 13 -7 13 -5 -1 -48 -9 -98 -17z"/>
<path d="M4007 5345 c-9 -13 -40 -34 -67 -47 l-50 -23 0 -55 c0 -30 -7 -80
-15 -110 -8 -30 -15 -56 -15 -58 0 -7 72 -32 94 -32 40 0 80 43 120 130 l39
82 -18 58 c-13 42 -24 61 -42 69 -29 14 -25 15 -46 -14z"/>
<path d="M2386 5261 c-8 -12 21 -41 40 -41 21 0 159 -65 191 -89 24 -20 26
-20 39 -4 22 29 17 37 -40 72 -77 46 -217 84 -230 62z"/>
<path d="M2352 5173 c2 -10 23 -28 48 -40 53 -27 210 -74 222 -67 19 12 5 32
-44 61 -79 48 -122 63 -178 63 -44 0 -51 -3 -48 -17z"/>
<path d="M3160 5175 c-36 -7 -68 -13 -72 -14 -5 -1 -8 -16 -8 -33 l0 -33 93
-25 92 -25 22 20 c14 14 24 39 29 73 l7 52 -49 -1 c-27 -1 -78 -7 -114 -14z"/>
<path d="M2723 5137 c-43 -45 -65 -93 -67 -145 -1 -43 1 -47 39 -69 23 -14 51
-22 67 -20 22 3 25 1 17 -9 -8 -10 13 -25 95 -66 90 -45 108 -51 116 -38 8 13
10 12 10 -3 0 -21 58 -49 225 -109 l109 -39 75 17 c41 9 93 22 114 30 22 8 42
12 44 10 3 -2 -35 -17 -84 -32 -48 -16 -92 -31 -96 -35 -8 -6 203 -60 288 -74
22 -3 52 -8 67 -11 22 -4 27 -1 31 18 4 21 4 22 6 2 2 -36 110 -50 131 -16 10
15 11 15 6 0 -7 -23 13 -28 105 -28 l79 0 0 40 0 40 -84 0 c-72 0 -85 -3 -89
-17 -4 -17 -5 -17 -6 0 -1 14 -11 17 -71 17 l-70 0 1 83 c1 45 4 72 6 60 4
-21 10 -23 69 -23 67 0 70 2 54 46 -6 15 -8 29 -6 31 3 3 10 -13 17 -36 l12
-41 71 -2 71 -2 -67 -3 -68 -4 0 -44 0 -45 76 0 77 0 -6 53 c-9 71 -35 144
-58 161 -10 7 -17 15 -14 18 3 2 -8 17 -23 31 -28 27 -30 27 -81 14 -28 -7
-50 -15 -49 -18 2 -2 -2 1 -8 8 -6 7 -32 13 -57 13 l-46 0 11 -31 c6 -16 8
-32 5 -35 -3 -3 -8 8 -12 25 -3 16 -12 34 -18 39 -13 11 -287 31 -287 21 0 -4
18 -18 40 -33 22 -14 40 -28 40 -31 0 -3 -25 11 -55 31 -31 19 -60 32 -65 29
-6 -3 -10 -1 -10 5 0 18 -156 86 -250 109 -124 31 -270 46 -282 29 -7 -9 -8
-4 -4 14 6 28 -11 46 -80 81 -31 16 -32 15 -61 -16z"/>
<path d="M4092 5020 c-50 -32 -92 -65 -92 -72 1 -24 50 -70 67 -64 13 5 14 4
4 -8 -10 -12 -9 -20 6 -43 9 -15 22 -31 28 -35 5 -4 7 -8 3 -8 -4 0 -2 -13 3
-30 9 -24 17 -30 42 -31 31 -2 31 -2 5 -6 -29 -5 -32 -11 -22 -61 l6 -31 87
-4 86 -3 -87 -2 -88 -2 0 -39 c0 -36 3 -40 28 -44 l27 -4 -27 -2 c-25 -1 -28
-5 -28 -33 0 -18 -3 -43 -6 -55 -4 -15 -1 -22 13 -26 16 -4 16 -5 1 -6 -15 -1
-18 -10 -18 -50 0 -46 2 -50 31 -60 45 -15 163 -14 203 3 30 12 35 21 45 67 8
37 9 55 1 57 -6 2 -4 12 5 25 8 12 15 34 15 49 0 25 -3 27 -47 31 l-48 3 48 2
47 2 0 54 c0 34 -5 56 -12 59 -10 4 -10 6 0 6 8 1 12 18 12 50 0 30 -5 51 -12
54 -10 4 -10 6 0 6 13 1 17 68 4 88 -4 7 -38 14 -77 16 l-70 3 73 2 c72 2 73
2 61 25 -24 47 -51 67 -93 68 -23 1 -31 4 -18 6 12 2 22 7 22 11 0 6 -109 81
-129 90 -4 1 -48 -25 -99 -58z"/>
<path d="M3338 5046 c-10 -7 -18 -16 -18 -19 0 -3 24 -16 53 -30 38 -17 78
-25 147 -30 52 -3 160 -11 240 -18 112 -9 152 -9 175 0 l30 12 -55 21 c-46 17
-76 20 -185 18 -132 -1 -236 13 -324 44 -24 9 -44 16 -45 16 0 0 -9 -7 -18
-14z"/>
<path d="M2465 4899 c-66 -79 -83 -163 -39 -198 24 -19 37 -20 237 -17 186 2
218 5 262 23 l49 20 -31 17 c-23 11 -61 16 -130 17 -98 1 -92 15 7 18 l45 1
-130 71 c-104 57 -141 72 -186 76 -53 5 -56 4 -84 -28z"/>
<path d="M3262 4557 c-27 -51 -28 -131 -4 -160 13 -15 13 -17 1 -12 -11 4 -13
-7 -11 -63 l4 -69 59 -28 c32 -16 57 -30 55 -32 -2 -3 -27 8 -56 22 -29 14
-53 25 -55 23 -2 -2 0 -37 3 -78 l7 -74 55 -18 c30 -9 48 -17 39 -17 -9 -1
-35 6 -58 14 l-41 14 0 -29 c0 -16 4 -31 9 -34 9 -6 0 -63 -12 -83 -8 -13 33
-43 109 -80 l59 -30 154 8 c126 7 155 11 166 25 9 13 21 16 48 11 20 -3 71 1
114 8 43 8 104 14 137 15 56 0 58 1 52 23 -3 12 -6 25 -6 30 0 4 -10 7 -22 8
-22 0 -22 1 -3 9 31 12 43 31 51 78 l6 42 -46 -16 c-26 -9 -49 -14 -52 -12 -2
3 16 11 42 18 32 9 48 20 55 37 13 36 11 51 -8 56 -15 4 -16 5 -2 6 17 1 29
29 29 69 0 17 -10 28 -42 42 -24 11 -37 20 -30 20 9 0 12 13 10 42 l-3 43
-141 12 c-77 7 -176 19 -220 27 -43 9 -59 13 -34 11 187 -19 350 -36 378 -39
31 -5 32 -4 32 34 l0 38 -107 6 c-159 10 -373 42 -498 75 -60 16 -112 27 -114
25 -2 -2 -4 -17 -5 -34 -1 -16 -5 -30 -11 -30 -5 0 -25 -15 -44 -32 l-35 -33
36 41 c39 46 55 81 41 95 -5 5 -22 11 -38 14 -27 6 -32 2 -53 -38z"/>
<path d="M4251 3866 l-33 -34 47 -55 c26 -31 68 -70 94 -89 25 -18 70 -52 99
-76 30 -24 56 -41 59 -38 7 6 -68 112 -222 314 -8 10 -17 5 -44 -22z"/>
<path d="M4376 3858 c4 -7 19 -28 32 -45 23 -31 29 -33 82 -33 47 0 59 3 63
18 4 13 5 11 6 -5 0 -13 7 -23 14 -23 6 0 22 -3 35 -6 19 -6 22 -3 22 22 0 16
-4 34 -8 41 -9 15 -79 29 -181 38 -59 5 -72 4 -65 -7z"/>
<path d="M3915 3831 c-24 -4 -39 -11 -37 -19 1 -6 -1 -12 -5 -12 -5 0 -8 -28
-7 -62 l1 -63 44 -3 c24 -2 59 -1 77 3 29 5 32 8 21 23 -11 14 -11 15 1 5 16
-15 49 -17 69 -4 12 8 13 15 3 38 -11 26 -11 27 3 9 8 -11 15 -25 15 -30 1 -6
7 0 16 14 l15 25 -7 -24 c-5 -19 -3 -23 9 -18 9 3 32 9 51 13 20 3 39 11 43
16 3 6 -14 30 -38 54 -42 42 -46 43 -108 44 l-64 0 19 -22 19 -23 -26 23 c-26
22 -42 24 -114 13z"/>
<path d="M3692 3790 c-24 -3 -48 -13 -54 -21 -8 -11 -9 -10 -4 4 5 15 -2 17
-55 17 -50 0 -60 -3 -55 -15 3 -8 1 -15 -4 -15 -5 0 -11 -8 -13 -17 -3 -11 -5
-7 -6 10 -1 24 -5 27 -36 27 -35 0 -35 0 -35 -45 0 -41 2 -45 25 -45 13 0 29
8 34 18 6 9 11 11 11 5 0 -8 14 -13 36 -13 30 0 35 3 30 18 -5 15 -5 15 6 1
17 -20 148 -27 148 -8 0 7 7 4 15 -7 13 -17 14 -14 15 39 0 31 -3 56 -7 56 -5
-1 -28 -5 -51 -9z"/>
<path d="M3180 3665 c-30 -30 -32 -36 -19 -52 13 -17 13 -17 -4 -4 -16 13 -21
11 -47 -20 -16 -19 -27 -40 -25 -47 3 -7 1 -11 -4 -7 -11 6 -71 -72 -71 -92 0
-7 -4 -13 -9 -13 -5 0 -19 -17 -31 -37 l-22 -37 24 -19 23 -18 -23 11 c-28 14
-38 8 -62 -39 l-19 -38 22 -24 22 -23 -23 18 c-12 11 -24 17 -26 15 -2 -2 -20
-37 -40 -78 -36 -71 -37 -74 -19 -93 40 -44 48 -42 101 31 l50 69 -22 23 c-20
22 -20 22 0 6 11 -9 25 -17 30 -17 10 0 64 64 64 76 0 5 -12 22 -27 38 -28 31
-28 31 7 -1 l36 -33 32 42 c18 23 30 48 28 55 -3 6 0 10 7 8 15 -6 71 71 62
85 -3 5 0 8 7 6 7 -3 26 11 43 31 l29 36 -34 30 c-19 16 -29 26 -22 22 9 -5
28 6 53 31 21 21 39 41 39 45 0 14 -33 19 -48 7 -13 -11 -14 -11 -8 0 9 14
-10 42 -28 42 -7 0 -27 -16 -46 -35z"/>
<path d="M4225 3693 c-16 -3 -86 -22 -227 -60 -13 -3 -18 -15 -18 -43 0 -48 9
-72 24 -63 6 3 6 1 -1 -8 -20 -20 -15 -64 8 -85 12 -10 40 -44 62 -74 22 -30
42 -57 44 -59 1 -2 13 4 25 15 23 19 23 19 6 -2 -10 -11 -18 -24 -18 -28 0
-18 62 -96 72 -90 7 4 8 2 4 -5 -7 -11 37 -91 50 -91 3 0 20 9 37 21 l32 21
-32 -29 -33 -28 26 -32 c43 -55 90 -42 203 54 35 29 101 77 147 105 l85 51
-33 34 c-17 18 -38 33 -45 33 -7 0 -13 6 -13 13 -1 15 -56 77 -70 77 -15 0
-85 -37 -140 -72 -39 -26 -41 -26 -15 -4 17 14 56 40 88 56 31 17 57 37 57 44
0 6 -15 27 -34 45 -30 29 -37 31 -57 21 -23 -11 -23 -10 -5 4 19 16 19 17 -14
51 -19 19 -40 35 -47 35 -8 0 -45 -16 -83 -35 -39 -19 -70 -33 -70 -30 0 2 32
21 72 41 l72 36 -35 29 c-49 41 -62 43 -118 14 -28 -14 -51 -23 -51 -20 0 2
26 18 58 34 55 29 50 38 -13 24z"/>
<path d="M3664 3652 c-7 -4 -14 -18 -17 -32 -4 -25 -4 -25 -6 3 -1 23 -5 27
-30 27 -16 0 -32 -6 -34 -12 -4 -10 -6 -10 -6 0 -1 6 -12 12 -25 12 -19 0 -26
-6 -29 -27 l-4 -28 -2 28 c-1 23 -5 27 -30 27 -25 0 -29 -4 -35 -37 -3 -21 -6
-55 -6 -75 0 -38 1 -38 39 -38 40 0 40 0 44 43 l4 42 1 -42 c2 -35 6 -43 21
-43 14 0 21 8 24 28 l4 27 2 -27 c1 -24 5 -28 30 -28 25 0 30 5 34 28 l4 27 2
-27 c1 -25 5 -28 36 -28 l35 0 0 64 c0 35 3 71 6 80 5 12 0 16 -22 16 -16 0
-34 -4 -40 -8z"/>
<path d="M3730 3571 l0 -71 29 0 c23 0 31 5 34 23 4 19 4 18 6 -5 1 -25 5 -28
36 -28 l35 0 0 71 c0 67 -1 70 -21 64 -34 -11 -88 -8 -104 5 -13 11 -15 3 -15
-59z"/>
<path d="M3339 3527 c-25 -29 -87 -103 -138 -166 l-92 -114 54 -17 c30 -10 90
-36 132 -59 42 -22 79 -41 81 -41 3 0 4 37 3 83 -1 45 1 121 6 170 4 48 4 87
-1 87 -4 0 -21 -12 -38 -27 -26 -24 -25 -22 8 19 34 44 60 119 40 117 -5 0
-30 -23 -55 -52z"/>
<path d="M3440 3473 c0 -10 -3 -35 -6 -55 l-6 -37 73 -4 74 -3 -72 -2 -73 -2
0 -60 0 -60 258 -3 257 -2 -262 -3 -263 -2 0 -47 c0 -27 4 -53 8 -60 4 -6 30
-13 57 -16 l50 -3 -53 -2 -53 -2 3 -52 3 -53 85 -6 85 -5 -82 -2 c-93 -2 -90
2 -70 -86 12 -48 13 -50 62 -63 60 -17 311 -12 392 7 52 11 53 12 68 63 22 74
22 75 -37 80 l-53 3 53 2 52 2 0 48 c0 26 -5 81 -11 122 -11 81 -15 111 -17
164 -2 32 -5 35 -39 39 l-38 4 35 1 35 2 -3 48 -4 49 -126 6 c-70 4 -184 7
-254 7 -115 0 -128 -2 -128 -17z"/>
<path d="M4014 3296 c5 -47 12 -74 24 -83 16 -12 16 -13 -1 -7 -16 6 -18 2
-12 -32 17 -102 28 -142 50 -181 13 -24 20 -41 14 -38 -5 4 -18 23 -28 43 -22
42 -18 49 -39 -68 -10 -53 -9 -56 17 -77 14 -13 55 -37 90 -55 55 -28 77 -33
157 -36 69 -3 106 0 148 13 31 10 56 19 56 21 0 8 -182 184 -190 184 -14 0
-70 74 -169 222 -121 179 -126 183 -117 94z"/>
<path d="M4737 3223 l-49 -36 31 -30 c26 -27 32 -29 48 -17 17 13 17 13 1 -5
-17 -19 -19 -18 -53 15 l-35 34 -99 -68 c-125 -85 -129 -90 -105 -119 l18 -22
-23 22 c-23 20 -25 21 -57 5 -19 -8 -34 -20 -34 -26 0 -5 23 -32 51 -59 39
-38 53 -46 64 -37 11 9 12 7 8 -8 -3 -14 9 -28 51 -56 l55 -38 31 22 c17 12
29 28 26 36 -3 8 0 11 10 7 10 -4 32 10 60 38 42 41 43 44 26 62 -16 19 -16
19 4 7 19 -12 25 -10 52 21 17 19 32 38 32 44 0 5 -19 30 -42 55 l-43 45 48
-45 49 -45 29 35 c16 19 29 37 29 40 0 3 -14 25 -31 49 -20 26 -37 40 -46 37
-8 -3 -11 -1 -8 4 6 10 -31 71 -43 69 -4 0 -29 -17 -55 -36z"/>
<path d="M3049 3181 c-8 -10 -33 -42 -56 -71 -24 -28 -43 -56 -43 -61 0 -15
63 -27 79 -15 11 8 13 8 7 -2 -4 -7 0 -15 11 -19 89 -31 173 -66 189 -78 18
-14 17 -15 -8 -4 -21 9 -31 9 -42 0 -12 -10 -14 -9 -10 6 4 16 -8 24 -73 46
-43 15 -79 24 -81 19 -1 -5 -10 -18 -18 -28 -14 -18 -15 -18 -5 3 17 34 14 40
-26 48 -30 5 -41 3 -53 -12 -23 -27 -71 -57 -64 -39 3 9 -4 19 -17 26 -19 11
-25 10 -36 -6 -19 -25 -55 -95 -51 -99 3 -3 67 -13 103 -16 11 -1 4 -5 -15 -8
-19 -4 -38 -3 -41 2 -3 5 -19 7 -34 5 -34 -4 -50 -41 -41 -93 l7 -34 77 5 c64
5 89 2 138 -16 32 -12 69 -23 81 -23 11 -1 19 -5 17 -9 -5 -8 75 -65 97 -70 8
-2 20 -11 27 -20 7 -10 18 -18 24 -18 6 0 21 8 32 18 21 17 21 17 3 -5 -18
-21 -18 -22 7 -38 16 -11 32 -14 43 -9 10 4 22 8 27 8 5 1 14 10 20 21 6 11
16 24 22 30 13 11 94 145 94 155 0 14 -49 52 -59 45 -18 -11 -12 3 10 24 20
19 21 23 8 90 -7 39 -15 71 -19 71 -4 0 -5 13 -2 29 3 23 -2 33 -28 51 -28 20
-35 22 -54 10 -19 -12 -20 -12 -8 3 11 13 10 18 -10 31 -39 25 -131 58 -150
53 -10 -3 -18 -1 -18 4 0 17 -47 9 -61 -10z"/>
<path d="M4877 2974 c-37 -44 -67 -82 -67 -86 0 -3 8 -9 18 -11 10 -3 5 -5
-11 -6 -20 -1 -48 -18 -88 -54 -32 -30 -74 -62 -93 -72 -33 -18 -34 -18 -64 3
-38 28 -39 28 -47 -7 -8 -35 9 -71 33 -72 10 0 12 -3 5 -6 -23 -9 -14 -24 24
-39 29 -13 64 -15 172 -11 75 3 126 3 114 1 -12 -3 -24 -15 -26 -27 -4 -21 -4
-21 -6 2 -1 23 -3 24 -53 17 -29 -3 -81 -6 -116 -6 -46 0 -61 -3 -56 -12 4 -6
-3 -4 -17 5 -13 9 -27 17 -31 17 -7 0 32 -101 63 -162 11 -21 17 -38 14 -38
-4 0 -25 39 -48 88 l-42 87 -3 -45 c-5 -65 14 -163 50 -262 21 -57 38 -88 48
-89 8 0 10 -3 4 -5 -20 -8 -3 -44 25 -51 24 -6 25 -7 5 -12 -18 -5 -20 -10
-13 -29 11 -30 88 -64 137 -60 32 3 38 7 43 33 l7 30 1 -27 c1 -33 4 -33 41
-11 26 15 40 39 40 70 0 15 -60 -1 -72 -19 -5 -8 -8 -9 -8 -2 0 7 -26 10 -77
8 -80 -3 -76 -1 63 17 44 6 85 14 92 18 6 4 14 22 16 41 3 19 10 67 16 105 6
39 14 134 18 213 7 136 6 143 -12 138 -17 -4 -16 -3 3 18 14 14 21 35 21 60 0
34 -2 37 -22 32 -22 -6 -22 -6 1 6 23 12 23 15 18 98 -8 133 -15 140 -68 68
-16 -23 -29 -37 -29 -31 0 5 16 28 35 50 38 45 42 60 22 87 -13 17 -19 12 -80
-60z"/>
<path d="M2771 2701 c-9 -6 -12 -18 -7 -37 6 -24 5 -26 -8 -15 -14 12 -16 10
-16 -10 0 -13 5 -42 9 -64 5 -22 12 -62 16 -89 8 -62 15 -76 67 -122 24 -20
36 -33 28 -29 -8 4 -23 15 -32 23 -40 34 -32 -2 32 -143 65 -144 69 -150 101
-156 l34 -6 -34 -2 c-26 -1 -32 -4 -27 -17 3 -9 6 -22 6 -30 0 -11 18 -14 78
-16 l77 -2 -80 -5 -80 -6 29 -20 c32 -21 85 -23 175 -4 51 10 53 12 49 40 -3
16 -1 29 3 29 3 0 9 11 11 25 4 16 0 25 -11 28 -14 4 -14 5 0 6 13 1 21 21 33
89 24 135 33 202 28 202 -3 0 -14 -8 -26 -17 -11 -10 -5 1 14 24 35 46 36 62
0 43 -12 -6 -24 -10 -26 -7 -3 2 9 10 26 17 18 8 30 20 30 31 0 17 -9 19 -94
19 -103 0 -109 -3 -120 -62 -6 -35 -5 -38 17 -38 13 0 46 7 72 15 27 8 51 12
53 10 10 -9 -108 -35 -177 -39 -42 -2 -55 -1 -28 1 l47 4 0 59 0 60 -45 11
c-25 6 -44 14 -41 16 2 2 23 -1 47 -7 48 -13 269 -19 269 -7 0 4 -4 7 -10 7
-5 0 -60 35 -122 77 -142 97 -202 122 -288 123 -36 0 -71 -4 -79 -9z"/>
<path d="M4630 2021 c-15 -28 -12 -77 5 -111 16 -30 35 -40 35 -18 0 6 3 9 6
6 3 -4 1 -15 -5 -27 -16 -28 5 -38 32 -14 16 13 18 14 9 1 -12 -15 -6 -17 64
-23 125 -12 138 -22 22 -17 -60 3 -108 2 -108 -1 0 -3 15 -15 33 -27 23 -16
26 -20 10 -15 -30 8 -29 2 6 -48 43 -62 70 -83 130 -103 47 -15 68 -16 158 -8
56 6 106 14 110 17 9 10 -46 66 -82 82 -35 16 -100 69 -72 59 18 -7 18 -5 -1
32 -27 53 -52 140 -52 181 0 29 -2 32 -18 24 -29 -16 -131 -39 -134 -31 -2 4
-17 11 -35 14 -25 6 -32 4 -36 -11 -4 -15 -5 -14 -6 3 0 12 -12 29 -26 38 -31
20 -32 20 -45 -3z"/>
<path d="M3138 1907 c-27 -6 -48 -13 -48 -17 0 -8 -114 5 -130 15 -15 9 -92
-65 -85 -83 2 -7 0 -10 -5 -7 -11 7 -110 -71 -110 -86 0 -5 -9 -18 -20 -29
-27 -27 -25 -54 6 -69 22 -10 28 -9 40 6 12 17 13 16 8 -4 -5 -19 -1 -22 50
-28 89 -11 256 25 256 56 0 7 -12 28 -27 48 -18 24 -20 30 -7 19 29 -25 42
-22 64 15 14 22 20 27 20 14 0 -11 5 -16 13 -12 14 7 -19 -20 -46 -38 -12 -8
-16 -18 -12 -29 10 -25 24 -23 78 12 35 22 47 36 47 54 0 20 -4 24 -17 20 -17
-5 -17 -5 0 6 11 7 17 24 17 46 0 38 -24 105 -37 103 -4 -1 -29 -6 -55 -12z"/>
</g>
</svg>
