<?xml version="1.0" standalone="no"?>
<!DOCTYPE svg PUBLIC "-//W3C//DTD SVG 20010904//EN"
 "http://www.w3.org/TR/2001/REC-SVG-20010904/DTD/svg10.dtd">
<svg version="1.0" xmlns="http://www.w3.org/2000/svg"
 width="752.000000pt" height="752.000000pt" viewBox="0 0 752.000000 752.000000"
 preserveAspectRatio="xMidYMid meet">
<metadata>
Created by potrace 1.16, written by Peter Selinger 2001-2019
</metadata>
<g transform="translate(0.000000,752.000000) scale(0.100000,-0.100000)"
fill="#fff" stroke="none">
<path d="M3355 5868 c31 -35 71 -104 118 -200 39 -82 74 -148 77 -148 3 0 13
12 24 26 15 21 16 30 7 50 -17 39 -13 81 14 133 27 55 23 61 -38 61 -25 0 -42
11 -77 46 -51 52 -106 84 -145 84 -26 0 -26 -1 20 -52z"/>
<path d="M4063 5815 c-17 -7 -41 -23 -53 -35 -16 -16 -29 -20 -47 -15 -15 3
-39 1 -55 -6 l-28 -11 20 -33 c26 -42 26 -108 1 -149 l-19 -31 24 -30 25 -30
44 48 c24 26 65 83 90 125 26 42 64 98 86 124 21 26 39 49 39 52 0 12 -96 5
-127 -9z"/>
<path d="M3635 5703 c-38 -9 -38 -22 1 -29 22 -4 50 -2 67 4 27 10 28 10 14
-6 -11 -12 -14 -31 -10 -70 5 -45 9 -53 29 -58 13 -4 40 -3 59 0 33 7 35 9 35
46 0 75 -103 135 -195 113z"/>
<path d="M3579 5534 l-22 -24 22 -24 c32 -34 109 -65 179 -72 47 -5 68 -2 105
14 52 23 54 29 32 72 -18 35 -17 35 -57 14 -47 -25 -145 -15 -196 18 l-40 27
-23 -25z"/>
<path d="M3491 5486 c-13 -15 -41 -93 -41 -112 0 -12 16 -13 83 -9 45 3 97 8
116 11 l35 6 -45 19 c-24 11 -65 38 -90 59 -38 32 -49 37 -58 26z"/>
<path d="M3501 5349 c-64 -11 -69 -14 -55 -37 9 -14 41 -18 210 -27 109 -6
217 -8 239 -5 34 4 40 9 43 32 3 23 -2 28 -35 37 -45 13 -325 12 -402 0z"/>
<path d="M3232 5207 c-42 -52 -128 -205 -119 -213 2 -3 33 -9 68 -15 54 -9
126 -29 191 -54 16 -7 16 -3 -1 47 -11 29 -29 76 -40 105 -11 28 -24 80 -28
114 -5 34 -12 64 -18 66 -5 1 -29 -21 -53 -50z"/>
<path d="M3461 5207 c45 -43 98 -54 170 -36 48 13 53 12 102 -13 29 -15 62
-30 75 -33 13 -4 21 -9 19 -11 -2 -3 -24 2 -48 11 -94 34 -109 37 -160 25 -56
-14 -104 -3 -155 36 -17 13 -34 20 -38 17 -3 -4 -6 -48 -6 -98 0 -86 2 -95 29
-131 16 -21 45 -55 65 -74 36 -34 38 -34 52 -16 13 19 14 19 14 -6 0 -37 21
-50 76 -46 36 2 51 8 59 23 6 11 28 38 49 60 36 37 106 164 106 192 0 7 -5 13
-11 13 -6 0 -4 7 4 15 13 13 33 83 25 90 -2 2 -107 6 -233 10 l-230 6 36 -34z"/>
<path d="M3892 5135 c-23 -95 -33 -114 -127 -240 -54 -72 -63 -90 -55 -106 6
-10 13 -19 16 -19 25 0 114 75 114 97 0 6 21 51 46 99 47 89 69 176 58 227
-11 51 -30 29 -52 -58z"/>
<path d="M3990 5108 c0 -13 -16 -54 -35 -91 -19 -38 -35 -72 -35 -78 0 -11
157 -12 163 -1 6 10 -74 192 -85 192 -4 0 -8 -10 -8 -22z"/>
<path d="M3384 4788 l-32 -52 27 -33 c39 -49 80 -58 285 -58 l178 0 29 35 c34
40 36 75 9 109 l-20 23 -37 -32 c-114 -100 -281 -92 -374 18 l-34 41 -31 -51z"/>
<path d="M2910 4753 c-49 -37 -100 -85 -100 -95 0 -4 18 -8 39 -8 38 0 98 -16
90 -24 -2 -3 -25 0 -50 6 -75 17 -109 5 -153 -52 -21 -28 -37 -52 -35 -54 2
-3 48 -6 102 -7 l98 -3 41 75 c22 40 56 95 75 121 19 26 32 52 28 58 -3 5 -27
10 -53 10 -35 0 -56 -7 -82 -27z"/>
<path d="M3198 4744 c-9 -9 -37 -19 -62 -21 l-46 -6 6 -36 c3 -20 14 -54 24
-76 21 -48 96 -123 109 -110 5 6 17 53 25 105 9 52 19 102 22 111 3 10 -5 23
-20 33 -31 20 -38 20 -58 0z"/>
<path d="M3311 4663 c-6 -21 -13 -64 -17 -96 l-7 -58 29 7 c16 4 35 14 42 23
11 15 13 14 26 -1 18 -24 136 -26 136 -3 0 8 5 15 10 15 6 0 13 -7 16 -15 8
-19 100 -21 107 -2 3 9 9 9 28 -1 13 -7 44 -12 69 -11 46 1 148 -14 207 -30
38 -11 42 -2 13 24 -15 14 -20 31 -20 72 0 30 -5 63 -11 75 -10 19 -12 18 -45
-20 l-34 -40 -117 -7 c-73 -5 -151 -3 -208 4 -136 17 -158 25 -178 66 -21 45
-34 44 -46 -2z"/>
<path d="M2988 4588 c-48 -86 -188 -364 -188 -373 0 -2 19 -14 43 -26 70 -36
125 -80 137 -110 23 -55 35 -31 51 105 7 64 7 61 3 -29 -5 -115 5 -112 35 12
11 43 20 72 20 64 2 -27 26 8 75 106 l48 99 -64 64 c-48 49 -69 78 -82 118
-10 28 -21 52 -25 52 -4 0 -28 -37 -53 -82z"/>
<path d="M4150 4532 c-7 -20 -28 -52 -47 -70 l-35 -33 11 -63 c6 -34 11 -104
11 -155 0 -84 2 -95 23 -112 31 -26 37 -24 37 14 1 45 31 106 71 142 l34 30
-32 -35 c-48 -52 -74 -139 -57 -185 6 -14 12 -11 43 17 l36 33 -39 -42 -38
-41 12 -71 c12 -70 23 -88 34 -53 11 33 89 104 140 127 28 13 70 26 94 30 23
4 42 10 42 14 0 15 -120 242 -157 297 -48 71 -123 160 -151 179 -17 12 -20 10
-32 -23z"/>
<path d="M2706 4502 c-22 -5 -38 -22 -63 -62 -45 -76 -44 -83 15 -73 26 4 75
7 110 6 l62 -2 31 61 c17 33 28 62 25 66 -9 8 -148 12 -180 4z"/>
<path d="M3262 4446 l-19 -51 51 -3 c29 -2 52 1 54 7 5 14 32 14 32 1 0 -6 31
-10 74 -10 66 0 74 2 79 21 6 23 27 17 27 -7 0 -18 96 -20 103 -1 3 9 7 9 18
0 17 -14 90 -20 108 -9 7 5 16 4 20 -1 3 -6 32 -13 64 -17 53 -6 57 -5 57 14
0 26 17 26 25 0 6 -20 41 -35 68 -28 12 3 12 9 0 50 -13 44 -16 48 -62 62 -27
8 -74 17 -105 21 -48 6 -56 5 -56 -9 0 -9 -7 -16 -15 -16 -8 0 -15 7 -15 15 0
19 -70 21 -88 3 -10 -10 -17 -10 -32 0 -29 18 -110 16 -110 -3 0 -8 -4 -15
-10 -15 -5 0 -10 7 -10 15 0 12 -20 14 -119 13 l-119 -1 -20 -51z"/>
<path d="M3204 4322 c-16 -30 -30 -59 -32 -64 -2 -4 19 -8 46 -8 31 0 52 5 55
13 4 10 7 10 18 0 7 -7 36 -13 65 -13 33 0 54 5 57 13 3 9 7 9 18 0 8 -6 42
-15 75 -18 57 -7 61 -6 67 14 6 26 27 28 27 2 0 -15 11 -19 62 -25 50 -5 64
-3 71 9 10 19 27 20 27 1 0 -7 14 -16 31 -20 48 -9 99 -7 99 4 0 6 5 10 10 10
6 0 10 -7 10 -15 0 -8 8 -15 18 -16 9 0 38 -4 65 -8 l47 -8 0 73 0 73 -37 7
c-25 5 -38 3 -41 -5 -5 -16 -32 -14 -32 4 0 11 -12 15 -44 15 -24 0 -51 3 -60
6 -11 4 -16 1 -16 -10 0 -9 -4 -16 -10 -16 -5 0 -10 7 -10 15 0 11 -12 15 -48
15 -26 0 -53 -5 -59 -11 -8 -8 -13 -8 -17 0 -9 14 -103 15 -111 1 -9 -15 -25
-12 -25 5 0 12 -15 15 -75 15 -68 0 -75 -2 -75 -20 0 -26 -20 -26 -27 0 -5 18
-13 20 -62 19 l-57 -2 -30 -55z"/>
<path d="M2640 4348 c-19 -5 -40 -15 -47 -21 -14 -14 -56 -118 -50 -124 2 -2
33 3 68 12 35 8 82 15 105 15 40 0 42 2 73 59 17 32 31 62 31 65 0 10 -141 5
-180 -6z"/>
<path d="M3128 4183 c-14 -27 -29 -58 -33 -70 -5 -20 -3 -23 22 -23 15 0 41 7
57 15 20 11 32 12 36 5 4 -7 27 -8 63 -4 31 4 54 10 52 15 -3 4 0 11 6 15 6 4
16 -1 21 -10 12 -22 133 -23 142 -1 3 8 10 15 16 15 5 0 10 -7 10 -15 0 -12
13 -15 59 -15 52 0 59 2 65 23 l7 22 16 -22 c12 -18 25 -23 57 -23 23 0 47 5
54 12 8 8 15 8 25 0 7 -6 42 -14 78 -18 56 -5 67 -4 72 10 9 23 27 20 27 -4 0
-11 6 -20 14 -20 8 0 21 -3 30 -6 13 -5 16 2 16 44 l0 51 -47 6 c-27 4 -56 9
-65 12 -13 3 -18 -1 -18 -16 0 -26 -20 -28 -27 -2 -7 29 -116 45 -127 19 -3
-10 -9 -8 -19 5 -10 12 -29 17 -67 17 -38 0 -56 -5 -66 -17 -13 -17 -14 -17
-20 5 -6 20 -12 22 -74 22 -51 0 -69 -4 -74 -15 -3 -8 -10 -15 -16 -15 -5 0
-10 7 -10 15 0 11 -13 15 -54 15 -46 0 -54 -3 -59 -21 -6 -23 -27 -17 -27 7 0
10 -14 14 -58 14 l-59 0 -25 -47z"/>
<path d="M2665 4209 c-66 -11 -135 -30 -135 -38 0 -3 -7 -28 -15 -55 -14 -45
-14 -48 3 -41 9 4 54 14 98 23 l81 15 22 44 c33 69 35 67 -54 52z"/>
<path d="M2748 4124 c-12 -26 -28 -49 -35 -51 -25 -10 -15 -38 70 -196 20 -38
37 -77 37 -88 0 -23 -1 -23 67 -3 33 10 52 20 49 27 -24 59 -79 241 -83 280
-5 44 -10 51 -39 63 -18 8 -35 14 -38 14 -3 0 -15 -21 -28 -46z"/>
<path d="M2860 4123 c1 -21 33 -145 56 -212 38 -109 40 -112 72 -105 15 4 28
8 30 9 2 2 -4 32 -12 69 -21 88 -68 190 -103 221 -29 25 -43 31 -43 18z"/>
<path d="M3220 4065 c0 -30 -16 -33 -25 -5 -7 21 -35 25 -94 14 -27 -6 -31
-11 -31 -38 0 -56 8 -59 109 -51 50 4 91 12 91 17 0 7 5 6 13 -1 8 -6 49 -10
98 -10 46 1 101 -2 122 -6 30 -6 37 -4 37 9 0 20 19 21 26 1 8 -20 124 -9 141
14 10 14 12 14 18 -1 6 -15 20 -18 74 -18 38 0 72 5 79 12 9 9 13 7 18 -5 7
-20 54 -23 73 -4 10 10 15 9 25 -5 7 -10 23 -18 35 -18 18 0 21 6 21 38 0 20
-4 42 -8 48 -11 17 -55 24 -70 12 -10 -9 -16 -8 -22 2 -11 18 -140 28 -140 11
0 -6 -9 -11 -20 -11 -11 0 -20 5 -20 10 0 15 -87 12 -93 -2 -4 -10 -7 -10 -18
0 -7 6 -38 12 -69 12 -31 0 -62 -6 -69 -12 -11 -10 -14 -10 -18 0 -3 8 -27 12
-73 12 -46 0 -70 -4 -73 -12 -4 -10 -7 -10 -18 0 -7 6 -37 12 -66 12 -50 0
-53 -1 -53 -25z"/>
<path d="M2598 4053 c-16 -2 -28 -9 -28 -14 0 -23 73 -151 125 -219 31 -41 60
-82 65 -90 8 -13 12 -12 30 6 28 28 20 74 -28 151 -19 32 -45 83 -58 113 -24
58 -36 64 -106 53z"/>
<path d="M4432 4008 c2 -7 31 -68 65 -134 l62 -121 53 -6 c29 -2 55 -3 57 -1
6 6 -39 114 -82 197 l-41 77 -59 0 c-42 0 -58 -4 -55 -12z"/>
<path d="M4364 3996 c-46 -20 -49 -32 -16 -74 15 -20 39 -55 53 -77 13 -22 38
-56 57 -77 28 -31 37 -35 60 -29 15 4 25 12 23 17 -25 62 -128 254 -136 254
-5 -1 -24 -7 -41 -14z"/>
<path d="M3093 3963 c-8 -3 -13 -23 -13 -52 l0 -47 53 7 c104 15 724 3 870
-17 l47 -7 0 51 c0 43 -3 50 -22 55 -12 4 -28 1 -36 -5 -10 -9 -15 -9 -20 -1
-4 6 -20 15 -35 18 -21 6 -31 3 -42 -11 -13 -18 -14 -18 -20 -1 -10 24 -145
26 -145 2 0 -8 -5 -15 -10 -15 -6 0 -13 7 -16 15 -8 19 -114 21 -132 3 -9 -9
-15 -9 -24 0 -7 7 -36 12 -64 12 -45 0 -53 -3 -56 -20 -2 -12 -7 -21 -13 -21
-5 0 -11 9 -13 21 -3 17 -11 20 -58 20 -41 0 -54 -4 -54 -15 0 -8 -7 -15 -15
-15 -8 0 -15 7 -15 15 0 12 -15 15 -77 14 -43 0 -84 -3 -90 -6z"/>
<path d="M4264 3911 c-14 -22 -24 -47 -22 -57 3 -17 161 -164 175 -164 5 0 19
9 33 20 l25 19 -21 23 c-12 13 -40 52 -64 88 -47 72 -79 110 -92 110 -4 0 -19
-18 -34 -39z"/>
<path d="M3190 3864 c-14 -3 -44 -7 -67 -10 -34 -4 -43 -9 -43 -25 0 -18 8
-19 140 -19 77 0 140 3 140 8 0 4 3 17 6 30 6 22 5 22 -72 21 -44 -1 -90 -3
-104 -5z"/>
<path d="M3480 3857 c0 -3 5 -18 10 -32 8 -20 15 -25 28 -20 47 20 87 23 135
10 32 -8 116 -14 219 -15 140 -1 168 2 168 14 0 9 -20 18 -62 26 -66 12 -498
27 -498 17z"/>
<path d="M2855 3760 c-22 -10 -51 -27 -63 -38 l-24 -19 32 -76 c17 -42 34 -77
36 -77 3 0 27 11 54 25 51 26 91 69 110 119 9 26 8 32 -17 58 -32 34 -70 36
-128 8z"/>
<path d="M4490 3700 c-16 -16 -30 -35 -31 -42 -2 -36 3 -143 7 -150 7 -11 54
15 83 46 13 14 30 48 37 77 12 46 12 54 -4 75 -23 32 -55 30 -92 -6z"/>
<path d="M4017 3671 c-21 -23 -37 -46 -37 -51 0 -6 44 -10 113 -10 61 0 157
-7 211 -15 55 -8 101 -15 103 -15 1 0 3 13 3 30 0 20 -7 34 -22 44 -29 18
-148 42 -254 51 l-81 6 -36 -40z"/>
<path d="M3040 3679 c-1 -40 -103 -142 -164 -162 -18 -6 10 -33 59 -56 86 -40
174 -19 175 42 0 12 7 30 15 40 12 16 11 23 -5 50 -31 52 -79 104 -80 86z"/>
<path d="M3998 3567 c6 -7 42 -34 81 -61 l70 -47 66 53 c67 53 67 53 38 59
-15 4 -81 7 -147 8 -95 1 -116 -1 -108 -12z"/>
<path d="M3220 3559 c0 -5 -16 -19 -35 -30 -20 -12 -35 -29 -35 -40 0 -17 12
-18 160 -21 l160 -3 0 42 0 41 -77 6 c-43 4 -99 8 -125 11 -28 2 -48 0 -48 -6z"/>
<path d="M4239 3513 c-35 -27 -64 -53 -66 -59 -2 -7 15 -25 38 -42 l41 -31 43
57 c23 31 54 68 69 81 30 28 21 41 -31 41 -23 0 -50 -14 -94 -47z"/>
<path d="M3559 3546 c-2 -2 -2 -29 -1 -59 l4 -54 161 -6 c89 -4 181 -11 205
-16 23 -4 42 -6 42 -4 0 2 -5 24 -11 48 -9 37 -17 46 -49 59 -22 8 -67 20
-102 26 -62 10 -241 14 -249 6z"/>
<path d="M4345 3478 c-69 -74 -83 -101 -65 -123 7 -8 22 -15 34 -15 24 0 146
39 146 46 0 3 -6 15 -14 27 -8 12 -17 46 -21 75 -4 28 -10 52 -15 52 -4 0 -34
-28 -65 -62z"/>
<path d="M4555 3503 c-21 -18 -44 -33 -52 -33 -22 0 -15 -27 12 -48 39 -31 98
-37 142 -15 21 10 37 20 36 23 -1 3 -24 28 -51 56 l-49 50 -38 -33z"/>
<path d="M4005 3473 c24 -56 63 -120 102 -167 19 -22 9 -14 -22 19 -53 55 -57
58 -50 30 27 -113 46 -235 51 -328 l6 -107 -44 -20 c-23 -11 -60 -23 -80 -26
-36 -6 -38 -8 -38 -45 0 -80 67 -119 206 -119 71 0 80 -2 107 -27 23 -23 36
-28 73 -26 49 2 94 25 94 48 0 8 30 45 68 83 83 84 180 136 274 147 l63 8 -40
15 c-22 9 -74 18 -115 22 l-75 7 67 1 c72 2 135 -17 207 -63 36 -22 40 -23 44
-7 3 10 5 5 6 -12 1 -24 3 -27 16 -16 19 16 19 61 -1 108 -9 20 -22 59 -31 85
-11 39 -35 70 -123 161 -107 110 -109 112 -149 108 -22 -2 -54 0 -70 6 -24 8
-38 6 -77 -13 -27 -13 -77 -32 -111 -41 l-62 -17 -37 29 c-72 58 -259 194
-267 194 -4 0 0 -17 8 -37z"/>
<path d="M3135 3443 c-8 -22 -69 -53 -102 -53 -18 0 -56 9 -85 20 -28 11 -52
19 -53 17 -8 -14 -23 -82 -19 -86 18 -19 508 67 562 98 21 13 14 14 -165 15
-97 1 -134 -2 -138 -11z"/>
<path d="M3471 3414 c-21 -14 -90 -36 -180 -58 -189 -45 -257 -56 -362 -56
-77 0 -90 -3 -130 -29 -24 -15 -55 -40 -68 -55 -23 -24 -23 -26 -5 -26 12 -1
2 -10 -27 -25 -58 -30 -74 -64 -65 -139 6 -43 11 -53 24 -51 9 1 11 0 4 -2
-18 -6 -6 -101 14 -123 21 -22 87 -17 173 14 41 14 93 26 116 26 22 0 113 -18
200 -40 224 -56 249 -58 288 -30 27 20 29 20 15 3 -10 -11 -18 -23 -18 -27 0
-5 34 -6 75 -4 64 3 79 7 99 28 14 14 26 36 28 50 3 21 -2 25 -37 33 -44 11
-55 21 -55 53 0 26 -56 52 -135 64 -44 7 -46 8 -14 9 20 0 57 -5 82 -13 40
-12 46 -12 51 1 14 37 -20 121 -58 144 -17 10 -26 19 -20 19 6 0 23 -10 38
-21 l27 -21 -7 128 c-4 71 -10 139 -13 150 l-6 22 -34 -24z"/>
<path d="M3560 3362 l0 -62 34 0 c28 0 35 4 38 23 2 14 10 22 23 22 13 0 21
-8 23 -22 3 -21 9 -23 57 -23 51 0 54 1 57 28 4 39 32 35 36 -5 3 -29 7 -33
31 -33 20 0 30 6 34 20 7 29 37 26 37 -4 0 -19 7 -25 36 -31 20 -3 38 -5 40
-3 3 4 -22 107 -28 113 -8 8 -171 26 -289 32 l-129 6 0 -61z"/>
<path d="M3570 3231 c0 -47 2 -51 24 -51 18 0 25 6 28 22 5 36 37 35 44 -1 6
-29 9 -31 55 -31 39 0 49 4 54 21 9 26 39 21 43 -8 3 -17 12 -24 40 -28 20 -3
44 -8 54 -9 10 -2 18 4 21 16 7 25 29 19 42 -10 6 -14 19 -22 33 -22 23 0 24
2 17 53 -4 28 -11 57 -16 63 -11 14 -78 24 -85 13 -2 -4 -19 -2 -37 5 -19 8
-88 14 -174 15 l-143 2 0 -50z"/>
<path d="M3580 3143 c0 -10 5 -56 12 -102 11 -79 13 -84 42 -96 87 -36 315
-45 379 -15 26 13 27 16 27 95 0 82 0 83 -27 88 -16 3 -29 1 -31 -4 -6 -14
-42 -10 -42 5 0 18 -107 33 -123 17 -16 -16 -37 -13 -37 4 0 9 -9 15 -24 15
-13 0 -37 3 -54 6 -25 5 -31 2 -37 -15 -8 -27 -35 -27 -42 -1 -7 25 -43 27
-43 3z"/>
<path d="M4665 2870 c-54 -21 -158 -100 -184 -139 -15 -24 -15 -24 9 -18 14 4
66 12 116 19 80 10 99 9 160 -6 126 -33 114 -35 113 20 -2 85 -11 107 -49 126
-45 23 -102 22 -165 -2z"/>
<path d="M3682 2827 c-22 -49 -58 -71 -132 -82 -47 -7 -191 13 -290 40 -30 8
-58 11 -61 7 -4 -4 -9 -23 -13 -43 l-6 -36 172 -6 c95 -4 272 -10 393 -13
l220 -7 -38 42 c-21 23 -40 55 -44 72 -4 21 -13 31 -32 35 -14 3 -48 12 -75
20 -70 20 -73 19 -94 -29z"/>
<path d="M2890 2839 c-64 -16 -163 -56 -154 -62 6 -3 59 -11 119 -17 61 -6
148 -15 194 -20 94 -11 103 -7 99 45 -3 28 -7 31 -73 47 -78 18 -132 20 -185
7z"/>
<path d="M2693 2455 c3 -158 10 -291 14 -295 4 -4 20 -10 36 -14 l27 -6 -1
117 c-1 173 -13 461 -19 466 -3 3 -18 9 -34 13 l-29 7 6 -288z"/>
<path d="M2774 2568 c19 -478 15 -438 42 -438 16 0 25 7 28 23 3 12 7 142 8
289 4 291 6 278 -54 278 l-29 0 5 -152z"/>
<path d="M2870 2478 c0 -129 -3 -263 -6 -297 l-7 -61 41 0 c40 0 40 0 51 48
19 87 75 522 67 529 -2 2 -36 7 -75 10 l-71 6 0 -235z"/>
<path d="M3036 2685 c-3 -9 -15 -100 -26 -203 -12 -103 -28 -221 -36 -262 -19
-101 -19 -100 20 -100 39 0 36 -6 66 128 18 85 72 434 67 438 -1 0 -21 4 -43
8 -32 4 -43 2 -48 -9z"/>
<path d="M4563 2681 c-24 -4 -45 -9 -47 -12 -2 -2 2 -94 9 -204 8 -110 14
-246 15 -302 l0 -103 39 0 39 0 6 63 c3 34 8 168 10 298 3 130 8 244 12 253 7
18 -8 19 -83 7z"/>
<path d="M4659 2674 c0 -10 -4 -145 -8 -299 -5 -154 -12 -288 -16 -297 -6 -15
-1 -18 32 -18 l40 0 11 68 c18 112 65 542 59 548 -3 3 -30 8 -61 11 -50 5 -56
4 -57 -13z"/>
<path d="M4450 2661 c-24 -7 -25 -11 -28 -91 -3 -78 10 -301 25 -427 5 -47 9
-53 36 -62 56 -20 54 -65 25 402 -7 123 -15 187 -22 186 -6 -1 -22 -4 -36 -8z"/>
<path d="M4796 2641 c-7 -29 -36 -286 -36 -313 0 -33 29 -19 39 20 17 61 71
286 71 293 0 3 -16 10 -34 16 -33 10 -35 9 -40 -16z"/>
<path d="M3167 2629 c-4 -19 -14 -88 -22 -154 -9 -66 -29 -174 -45 -240 -26
-111 -61 -277 -62 -300 -3 -30 4 -44 25 -50 32 -10 75 -54 87 -89 7 -22 21
-36 50 -48 23 -10 47 -29 58 -47 l17 -31 443 0 442 0 0 26 c0 36 50 84 89 84
27 0 31 4 31 26 0 34 48 81 92 89 34 6 36 9 41 53 3 26 -1 103 -8 172 -13 116
-35 411 -35 471 0 26 -2 27 -40 22 -26 -4 -54 0 -78 10 -29 12 -94 17 -302 21
-146 3 -380 9 -521 12 l-256 7 -6 -34z"/>
<path d="M2712 2093 l3 -48 60 -17 c33 -9 99 -17 146 -17 l87 -1 6 31 c11 56
12 56 -86 63 -84 6 -152 17 -201 32 -16 5 -18 0 -15 -43z"/>
<path d="M4463 2014 c3 -31 7 -58 9 -60 13 -12 133 -34 190 -34 l68 0 0 60 0
60 -67 0 c-38 0 -95 7 -128 15 -33 8 -64 14 -69 15 -5 0 -6 -25 -3 -56z"/>
<path d="M4450 1801 l0 -109 48 -6 c26 -4 56 -10 66 -13 16 -4 18 -1 13 17 -8
30 18 97 53 142 17 20 30 39 30 42 0 3 -22 6 -48 6 -27 0 -71 7 -98 15 -27 8
-52 15 -56 15 -5 0 -8 -49 -8 -109z"/>
<path d="M2800 1868 c-41 -18 -120 -69 -120 -78 0 -4 18 -7 39 -6 24 0 47 -6
58 -16 17 -15 20 -15 42 3 26 21 63 24 109 8 59 -20 53 -4 -16 49 -74 56 -74
56 -112 40z"/>
<path d="M4319 1851 c-17 -17 -29 -40 -29 -55 0 -22 -4 -26 -29 -26 -37 0 -78
-35 -87 -74 l-7 -29 69 6 c38 4 93 7 122 7 l52 0 0 100 0 100 -31 0 c-20 0
-40 -10 -60 -29z"/>
<path d="M4661 1845 c-24 -22 -46 -54 -55 -82 -27 -79 -7 -82 132 -15 l101 48
-49 42 c-27 23 -58 42 -69 42 -12 0 -39 -16 -60 -35z"/>
<path d="M3050 1788 c0 -46 -3 -92 -6 -103 -5 -19 -1 -20 103 -17 59 2 110 6
112 8 9 9 -37 48 -76 65 -32 13 -43 24 -43 40 0 22 -60 89 -79 89 -7 0 -11
-29 -11 -82z"/>
<path d="M4815 1769 c-16 -4 -69 -28 -117 -53 -59 -30 -81 -47 -70 -51 9 -3
95 -3 191 0 127 3 168 2 146 -5 -49 -17 -328 -15 -430 3 -49 9 -91 14 -94 11
-8 -8 33 -33 84 -51 41 -14 86 -17 252 -18 190 0 204 1 222 20 20 21 40 72 24
62 -5 -3 -15 9 -21 28 -21 55 -102 79 -187 54z"/>
<path d="M2673 1763 c-26 -3 -33 -10 -38 -34 -4 -17 -4 -45 -1 -64 7 -36 24
-45 92 -45 l42 0 6 54 c12 90 -1 101 -101 89z"/>
<path d="M2815 1745 c-20 -19 -25 -34 -25 -75 l0 -50 38 0 c57 0 139 28 157
53 26 37 19 56 -27 77 -61 28 -113 26 -143 -5z"/>
</g>
</svg>
