<?xml version="1.0" standalone="no"?>
<!DOCTYPE svg PUBLIC "-//W3C//DTD SVG 20010904//EN"
 "http://www.w3.org/TR/2001/REC-SVG-20010904/DTD/svg10.dtd">
<svg version="1.0" xmlns="http://www.w3.org/2000/svg"
 width="752.000000pt" height="752.000000pt" viewBox="0 0 752.000000 752.000000"
 preserveAspectRatio="xMidYMid meet">
<metadata>
Created by potrace 1.16, written by Peter Selinger 2001-2019
</metadata>
<g transform="translate(0.000000,752.000000) scale(0.100000,-0.100000)"
fill="#fff" stroke="none">
<path d="M3400 5901 c-5 -11 -10 -27 -10 -35 0 -8 -22 -57 -49 -108 -55 -104
-81 -182 -81 -241 l0 -40 63 6 c62 6 228 61 313 105 55 28 104 70 104 90 0 49
-128 188 -205 223 -55 25 -121 25 -135 0z"/>
<path d="M3740 5650 c0 -19 -106 -80 -207 -119 -123 -48 -164 -59 -227 -62
l-48 -3 5 -38 c9 -63 21 -71 102 -65 38 3 103 17 144 31 41 14 89 26 107 26
43 0 82 18 89 41 3 10 29 38 56 63 l50 45 -26 46 c-25 42 -45 58 -45 35z"/>
<path d="M3840 5533 c-14 -9 -40 -30 -57 -46 -40 -38 -34 -49 56 -89 72 -32
98 -29 141 17 22 23 22 26 7 49 -17 25 -98 86 -114 86 -5 0 -20 -7 -33 -17z"/>
<path d="M3560 5366 c-25 -7 -66 -19 -93 -27 -33 -9 -46 -18 -42 -27 3 -7 5
-29 5 -47 0 -18 6 -35 13 -38 7 -2 6 -3 -3 -3 -10 1 -17 16 -20 46 -4 37 -9
46 -27 48 -31 4 -41 -38 -22 -92 10 -30 24 -46 51 -61 21 -11 37 -24 35 -29
-3 -9 -46 -34 -120 -67 -52 -23 -147 -94 -147 -109 0 -5 9 -11 19 -15 11 -3
36 -17 56 -31 21 -14 38 -24 40 -22 1 2 15 23 30 47 15 24 54 78 88 120 l60
76 56 -3 c45 -3 62 1 82 17 32 25 49 85 49 170 l0 61 -32 -1 c-18 0 -53 -6
-78 -13z"/>
<path d="M3863 5287 c-7 -25 -30 -64 -55 -92 -53 -60 -62 -110 -22 -125 39
-15 44 -13 44 26 0 28 -5 37 -20 41 -18 5 -16 9 17 34 21 16 53 31 71 35 20 4
32 12 32 22 0 20 -39 102 -49 102 -4 0 -12 -19 -18 -43z"/>
<path d="M3860 5177 c-16 -9 -24 -20 -22 -33 2 -10 5 -45 6 -77 2 -59 13 -77
48 -77 47 0 59 23 34 63 -29 46 -28 64 5 101 l31 36 -38 0 c-22 0 -50 -6 -64
-13z"/>
<path d="M3640 5108 c-46 -24 -63 -29 -102 -24 -65 7 -66 -11 -4 -51 56 -37
93 -37 174 -2 39 17 42 20 42 57 0 33 -4 41 -22 46 -28 7 -22 9 -88 -26z"/>
<path d="M4065 5071 c-44 -9 -80 -21 -80 -26 0 -6 4 -25 9 -43 8 -34 8 -34 54
-28 26 3 98 9 160 12 61 4 112 10 112 14 0 4 -20 26 -45 49 -52 48 -77 50
-210 22z"/>
<path d="M4660 5026 c-483 -188 -980 -419 -980 -456 0 -4 14 -13 30 -20 51
-21 113 -7 233 55 62 32 186 87 277 124 91 37 215 94 275 128 61 35 157 86
214 115 58 29 106 58 108 63 2 6 -2 18 -9 27 -12 15 -26 11 -148 -36z"/>
<path d="M3744 5025 c-17 -12 -63 -27 -102 -35 -71 -13 -72 -13 -110 13 -21
15 -45 27 -54 27 -18 0 -74 -72 -106 -135 -11 -22 -24 -65 -30 -95 -14 -69
-34 -262 -28 -267 4 -4 85 27 186 70 23 10 42 28 53 51 32 67 115 95 182 60
28 -14 33 -14 92 12 l63 26 0 104 c0 103 0 104 -28 118 -15 8 -33 25 -39 39
-15 33 -42 37 -79 12z"/>
<path d="M4097 4965 c-43 -7 -81 -16 -84 -18 -3 -3 -2 -19 2 -36 l6 -30 85 -3
c77 -3 91 0 157 29 51 23 72 37 72 50 0 16 -10 18 -80 20 -44 1 -115 -5 -158
-12z"/>
<path d="M3102 4848 c-27 -41 -57 -80 -66 -87 -26 -21 -19 -31 22 -31 21 0 47
-7 58 -15 28 -21 34 -19 35 18 l2 32 4 -30 c7 -56 14 -76 23 -70 6 3 10 -3 10
-14 0 -11 15 -31 33 -45 l32 -26 7 83 c5 45 13 104 18 132 10 46 9 51 -12 68
-28 22 -66 42 -95 51 -19 6 -29 -3 -71 -66z"/>
<path d="M3100 4652 c-39 -6 -45 -19 -11 -27 16 -3 42 -16 56 -27 25 -19 26
-25 20 -72 -9 -62 -21 -79 -52 -71 -20 5 -23 2 -23 -25 0 -35 -3 -36 87 23 37
24 67 53 74 70 10 24 9 31 -12 53 -37 39 -111 80 -139 76z"/>
<path d="M4131 4639 c-43 -17 2 -37 148 -64 92 -18 111 -15 111 14 0 44 -186
79 -259 50z"/>
<path d="M2900 4615 c-9 -11 -14 -46 -14 -105 -1 -77 2 -92 22 -119 12 -17 19
-31 15 -31 -5 0 -17 -16 -27 -34 -10 -19 -29 -45 -42 -57 -33 -31 -30 -39 16
-39 46 0 65 15 105 83 23 40 25 49 13 69 -8 15 -13 62 -13 133 l0 110 -31 3
c-19 2 -36 -3 -44 -13z"/>
<path d="M3481 4541 c-39 -16 -46 -23 -58 -64 -9 -31 -25 -56 -49 -75 -58 -48
-34 -55 66 -19 l90 32 0 72 c0 40 -1 73 -2 72 -2 0 -23 -8 -47 -18z"/>
<path d="M4140 4544 c0 -3 8 -18 18 -32 26 -38 34 -52 28 -52 -2 0 -14 16 -26
35 -12 19 -25 35 -29 35 -4 0 -4 -24 0 -52 4 -29 8 -96 8 -149 l1 -96 31 -7
c72 -14 126 -7 160 21 60 51 86 152 58 231 -11 33 -28 41 -123 57 -32 5 -38 4
-33 -9 5 -12 -1 -11 -26 4 -31 19 -67 27 -67 14z"/>
<path d="M3868 4523 c-14 -3 -18 -15 -18 -51 -1 -26 -8 -65 -16 -87 -28 -71
-28 -82 -3 -95 20 -11 25 -10 41 10 26 32 39 92 36 162 -3 62 -8 69 -40 61z"/>
<path d="M3380 4500 c-8 -5 -37 -14 -65 -21 -27 -7 -68 -26 -89 -43 -22 -17
-76 -49 -120 -72 -75 -39 -78 -42 -56 -54 27 -15 74 -7 144 24 28 13 74 31
101 41 62 23 115 73 115 109 0 28 -6 31 -30 16z"/>
<path d="M3800 4498 c-14 -5 -37 -7 -52 -4 -22 4 -39 -5 -93 -51 -36 -31 -64
-61 -62 -67 1 -6 23 -21 47 -34 34 -17 58 -22 100 -20 63 3 73 15 91 114 12
63 5 76 -31 62z"/>
<path d="M3005 4281 c-24 -46 -82 -91 -118 -91 -27 0 -45 -13 -115 -83 -45
-45 -82 -87 -82 -94 0 -12 75 -83 89 -83 5 0 35 33 67 72 95 118 187 203 262
244 7 4 -12 34 -22 34 -6 0 -23 7 -39 14 -26 14 -28 14 -42 -13z"/>
<path d="M3673 4224 c4 -39 13 -64 28 -80 45 -48 136 -39 184 17 28 35 32 49
10 49 -27 0 -95 32 -95 45 0 18 -23 25 -82 25 l-51 0 6 -56z"/>
<path d="M3185 4239 c-70 -35 -125 -71 -125 -81 0 -14 107 -9 167 7 103 27
300 14 374 -25 17 -10 19 -7 19 22 0 42 -8 53 -43 62 -29 7 -302 46 -321 46
-6 0 -38 -14 -71 -31z"/>
<path d="M4110 4165 c0 -40 -27 -84 -57 -91 -21 -6 -31 -2 -50 20 -13 15 -23
36 -23 47 0 10 -4 19 -9 19 -27 0 -29 -109 -3 -133 39 -35 141 -12 182 41 22
28 27 91 8 110 -22 22 -48 14 -48 -13z"/>
<path d="M4212 4136 c2 -89 -83 -168 -182 -169 -50 -1 -57 -7 -44 -42 10 -24
58 -45 104 -45 113 0 174 80 204 268 l6 32 -44 0 -44 0 0 -44z"/>
<path d="M3263 4133 c-25 -5 -39 -42 -50 -132 l-6 -54 29 7 c164 37 242 43
355 25 39 -6 72 -9 74 -7 1 1 6 21 10 44 l6 41 -63 27 c-35 14 -90 33 -123 41
-55 14 -180 18 -232 8z"/>
<path d="M3021 4042 c-42 -93 -41 -99 20 -107 27 -4 52 -5 53 -4 7 8 76 162
74 164 -2 1 -28 5 -59 9 l-56 6 -32 -68z"/>
<path d="M3811 4058 c-46 -9 -85 -19 -86 -20 -1 -2 -5 -20 -8 -42 l-6 -38 42
6 c23 3 72 8 110 12 74 7 80 15 49 69 l-17 31 -84 -18z"/>
<path d="M3285 3950 c-38 -10 -73 -19 -77 -19 -5 -1 -8 -31 -8 -67 0 -53 3
-65 14 -61 68 26 265 38 389 23 l67 -8 0 65 0 65 -50 11 c-81 17 -254 13 -335
-9z"/>
<path d="M3137 3923 c-43 -108 -49 -149 -56 -340 -6 -192 -6 -193 -33 -219
-22 -23 -39 -28 -95 -33 l-68 -6 -11 -45 c-10 -42 -10 -45 11 -51 57 -16 95
-65 95 -121 0 -22 3 -23 58 -20 l59 4 13 76 c7 42 16 147 20 232 5 85 14 244
20 353 6 110 9 201 7 203 -2 3 -11 -12 -20 -33z"/>
<path d="M3758 3953 l-48 -4 0 -51 0 -50 33 5 c17 3 73 12 123 18 l91 13 -15
38 -15 38 -61 -2 c-34 -1 -82 -3 -108 -5z"/>
<path d="M2975 3917 c-2 -6 -11 -36 -20 -65 -9 -29 -15 -56 -12 -58 3 -3 27
-11 55 -18 l49 -14 20 74 20 74 -21 5 c-70 13 -87 14 -91 2z"/>
<path d="M3920 3864 c-60 -6 -183 -26 -197 -31 -9 -4 -13 -27 -13 -77 l0 -72
73 9 c39 5 134 7 210 5 l139 -4 -6 30 c-4 17 -9 48 -13 69 -4 30 -11 38 -32
42 -14 3 -39 10 -56 16 -40 14 -63 17 -105 13z"/>
<path d="M3286 3805 c-44 -9 -81 -16 -82 -18 -1 -1 -5 -31 -8 -67 l-7 -65 233
3 c128 2 234 4 234 5 1 1 4 32 8 68 6 63 5 67 -16 73 -51 15 -283 16 -362 1z"/>
<path d="M2909 3723 c-12 -29 -20 -55 -18 -57 2 -1 34 -7 71 -12 76 -11 78
-10 78 56 0 45 -3 47 -64 59 l-45 8 -22 -54z"/>
<path d="M3870 3684 c-25 -2 -73 -6 -107 -10 l-63 -6 0 -70 c0 -63 2 -69 18
-63 100 42 139 49 290 49 148 1 153 2 147 21 -3 11 -8 32 -11 48 -6 26 -9 27
-68 27 -33 0 -83 2 -111 4 -27 2 -70 2 -95 0z"/>
<path d="M2864 3614 c-8 -19 -17 -48 -21 -65 l-5 -29 102 0 c101 0 102 0 96
23 -3 12 -6 36 -6 53 0 31 -1 32 -63 43 -87 15 -86 15 -103 -25z"/>
<path d="M3249 3643 l-56 -4 -7 -46 c-14 -106 -9 -115 59 -102 50 10 215 10
275 0 31 -5 4 -7 -85 -7 -71 0 -160 -6 -197 -13 l-68 -13 0 -53 0 -54 58 -7
c61 -8 399 2 426 12 36 14 8 114 -32 114 -14 1 -14 2 3 12 31 18 35 28 35 101
l0 67 -177 -2 c-98 -1 -203 -3 -234 -5z"/>
<path d="M3940 3573 c-64 -4 -158 -22 -202 -40 -38 -15 -49 -40 -30 -70 15
-24 123 -35 276 -31 140 5 151 6 168 28 21 26 25 98 6 105 -18 5 -164 10 -218
8z"/>
<path d="M2830 3440 l0 -70 76 0 c72 0 111 10 126 34 4 6 8 32 8 59 l0 47
-105 0 -105 0 0 -70z"/>
<path d="M3718 3373 c2 -13 -3 -35 -13 -49 -11 -16 -18 -56 -22 -113 -8 -125
10 -137 152 -107 l60 13 -3 50 c-3 41 0 55 17 72 48 48 114 11 127 -71 l7 -38
94 0 94 0 -7 38 c-4 20 -16 79 -28 131 l-21 93 -231 2 -230 1 4 -22z"/>
<path d="M3126 3196 l-18 -114 -75 -8 c-41 -3 -100 -4 -129 -1 l-54 6 0 -40
c0 -32 4 -41 23 -48 29 -11 245 -20 276 -12 30 8 36 28 56 190 17 135 16 141
-36 141 -25 0 -26 -3 -43 -114z"/>
<path d="M3524 3302 l-51 -3 -11 -54 c-6 -30 -23 -77 -37 -104 -14 -28 -25
-53 -25 -56 0 -10 133 6 148 17 6 6 12 27 12 47 0 21 5 63 11 95 6 32 9 59 7
59 -2 1 -26 1 -54 -1z"/>
<path d="M3613 3243 c-13 -112 -9 -224 10 -260 16 -30 22 -33 65 -33 26 0 101
11 167 25 82 17 152 25 221 25 87 0 105 3 128 21 20 16 26 29 26 61 l0 41
-147 -6 c-82 -4 -182 -14 -223 -22 -108 -22 -177 -20 -190 4 -12 23 -12 95 -1
164 8 47 8 47 -20 47 -26 0 -28 -2 -36 -67z"/>
<path d="M3265 3278 c-2 -7 -8 -60 -14 -118 -12 -120 -24 -169 -50 -202 -19
-22 -23 -23 -170 -21 l-151 1 0 -33 c0 -60 16 -84 72 -110 65 -30 72 -30 111
-4 32 20 32 20 9 0 -13 -11 -21 -25 -17 -30 10 -18 76 -25 99 -11 17 10 19 10
9 -1 -22 -22 -15 -27 25 -19 69 16 113 97 146 273 9 43 29 106 46 141 18 35
34 82 37 105 l6 41 -77 0 c-52 0 -78 -4 -81 -12z"/>
<path d="M4217 2972 c-18 -9 -67 -15 -135 -16 -107 -3 -249 -22 -272 -36 -24
-15 103 -163 179 -208 32 -19 37 -20 70 -6 45 19 46 20 30 40 -13 16 -12 16 8
5 32 -17 77 12 70 45 -2 13 0 21 4 18 5 -3 9 -12 9 -20 0 -18 24 -18 39 -1 6
8 29 22 51 32 46 21 47 27 21 87 -31 69 -41 78 -74 60z"/>
<path d="M4283 2820 c-13 -5 -51 -29 -86 -52 -34 -24 -82 -52 -107 -62 -25
-11 -47 -21 -49 -23 -3 -2 6 -14 19 -28 44 -47 154 -27 263 47 l34 23 -17 49
c-18 54 -24 59 -57 46z"/>
<path d="M2862 2744 c-15 -33 -15 -37 1 -66 9 -16 17 -38 17 -48 0 -45 152
-37 293 15 l92 34 -48 0 c-64 1 -194 35 -274 71 l-64 29 -17 -35z"/>
<path d="M4370 2684 c-60 -45 -180 -97 -231 -102 -45 -4 -49 -7 -49 -32 0 -14
2 -29 5 -32 10 -9 205 41 267 68 76 35 82 43 63 88 -8 20 -16 36 -18 36 -1 -1
-18 -12 -37 -26z"/>
<path d="M3120 2613 c-77 -26 -164 -34 -212 -20 -26 7 -28 5 -28 -22 0 -26 4
-30 41 -36 52 -9 151 1 232 24 58 17 62 20 65 49 4 38 2 38 -98 5z"/>
<path d="M4402 2591 c-23 -17 -78 -41 -127 -55 -47 -13 -89 -27 -92 -30 -4 -3
7 -21 23 -38 25 -28 23 -27 -14 5 -33 29 -48 36 -65 31 -12 -3 -23 -8 -25 -9
-7 -6 46 -126 78 -178 17 -29 51 -74 74 -102 l43 -49 44 11 c24 6 75 19 113
29 l68 17 -4 111 c-4 86 -11 129 -32 191 -15 44 -31 83 -35 88 -4 4 -26 -6
-49 -22z"/>
<path d="M3125 2539 c-71 -19 -186 -26 -225 -14 l-22 7 7 -123 c11 -184 5
-174 106 -173 110 1 179 28 179 71 0 15 9 55 19 88 10 33 22 84 26 113 8 60
12 59 -90 31z"/>
<path d="M3085 2158 c-36 -13 -66 -17 -107 -13 -58 5 -58 5 -58 -23 0 -39 10
-48 56 -54 23 -3 66 -21 95 -40 30 -19 59 -37 65 -41 8 -4 11 23 10 93 0 55
-3 99 -6 99 -3 -1 -27 -10 -55 -21z"/>
<path d="M4385 2111 c-21 -4 -31 -13 -33 -29 -4 -27 16 -130 27 -137 5 -2 33
0 62 7 47 9 62 8 114 -10 33 -11 62 -18 65 -16 5 6 -35 123 -57 167 -13 26
-17 27 -81 26 -37 -1 -80 -4 -97 -8z"/>
<path d="M2925 2030 c40 -43 143 -124 180 -142 47 -23 65 -14 58 30 -6 40 -19
53 -101 103 -39 23 -70 34 -110 37 l-57 4 30 -32z"/>
<path d="M2830 2018 c-137 -95 -190 -146 -190 -184 0 -10 35 -22 109 -38 59
-12 351 48 351 72 0 4 -13 15 -29 25 -16 9 -63 48 -106 87 -42 38 -80 70 -84
70 -3 -1 -26 -15 -51 -32z"/>
<path d="M4414 1843 c2 -21 3 -50 4 -65 2 -22 7 -28 26 -28 34 0 88 -20 112
-41 27 -25 31 -24 39 11 4 16 20 40 36 53 29 22 29 24 11 40 -27 25 -147 67
-191 67 -39 0 -39 0 -37 -37z"/>
<path d="M4626 1754 c-17 -16 -21 -68 -10 -124 7 -31 9 -32 43 -26 48 7 85 49
77 88 -14 69 -71 102 -110 62z"/>
</g>
</svg>
