<?xml version="1.0" standalone="no"?>
<!DOCTYPE svg PUBLIC "-//W3C//DTD SVG 20010904//EN"
 "http://www.w3.org/TR/2001/REC-SVG-20010904/DTD/svg10.dtd">
<svg version="1.0" xmlns="http://www.w3.org/2000/svg"
 width="752.000000pt" height="752.000000pt" viewBox="0 0 752.000000 752.000000"
 preserveAspectRatio="xMidYMid meet">
<metadata>
Created by potrace 1.16, written by Peter Selinger 2001-2019
</metadata>
<g transform="translate(0.000000,752.000000) scale(0.100000,-0.100000)"
fill="#fff" stroke="none">
<path d="M3645 5905 c-22 -13 -86 -41 -143 -61 -78 -28 -107 -43 -120 -63 -9
-14 -29 -41 -45 -59 -25 -30 -28 -40 -25 -90 3 -56 3 -57 38 -63 l35 -6 -34
-2 c-24 -1 -32 -5 -28 -15 3 -7 -1 -23 -9 -34 -13 -19 -12 -22 8 -36 34 -24
115 -20 163 7 35 20 115 110 115 130 0 4 -10 3 -22 -3 -21 -10 -21 -10 -5 3
11 10 17 28 17 58 0 59 29 103 87 133 27 13 59 33 73 45 l25 20 -35 2 -35 2
35 6 35 6 -25 23 c-30 27 -54 27 -105 -3z"/>
<path d="M3033 5878 c-18 -6 -33 -15 -33 -21 0 -6 -25 -7 -65 -2 l-65 7 0 -41
0 -40 48 -6 c68 -9 81 -13 51 -14 -29 -1 -43 -29 -33 -67 5 -17 15 -20 81 -22
l77 -2 -22 23 c-12 13 -22 31 -22 39 0 10 -11 18 -27 21 -22 3 -19 4 11 6 l40
1 -30 32 -29 32 29 -22 c34 -26 47 -27 92 -6 24 11 34 23 34 39 0 49 -60 67
-137 43z"/>
<path d="M3696 5692 c-3 -5 8 -21 25 -36 17 -15 35 -40 40 -55 10 -29 51 -53
128 -77 l44 -14 -6 36 c-3 20 -13 47 -21 59 -27 41 -195 111 -210 87z"/>
<path d="M2934 5596 c-14 -38 0 -51 61 -57 33 -3 54 -6 48 -7 -15 -2 -17 -97
-7 -201 5 -47 11 -61 23 -61 12 0 11 -3 -5 -13 -95 -57 -95 -57 -79 -87 21
-42 68 -85 147 -136 49 -31 73 -42 78 -34 4 7 8 -12 9 -41 1 -52 22 -140 40
-167 6 -11 14 -9 33 11 19 19 31 23 54 19 l29 -7 -30 -3 c-40 -5 -57 -20 -53
-50 3 -22 13 -29 73 -48 39 -13 65 -23 59 -23 -12 -1 -34 -44 -34 -66 0 -7 12
-16 28 -18 25 -4 24 -4 -6 -6 -24 -1 -35 -7 -41 -23 -5 -13 -5 -27 -1 -31 4
-5 65 -5 134 -1 109 6 126 9 121 22 -5 13 -3 13 13 -1 24 -22 50 -22 76 1 21
17 21 17 3 -4 -16 -20 -16 -22 -1 -28 22 -8 63 13 88 47 18 24 19 29 6 37 -10
7 -11 10 -2 10 19 0 14 72 -7 98 -21 24 -77 30 -113 11 -12 -6 -18 -7 -14 -1
7 12 -16 22 -50 22 -27 0 -28 -3 -13 -33 10 -21 9 -21 -5 -3 -8 10 -17 24 -20
30 -2 6 -23 -8 -47 -31 l-44 -43 63 0 c34 0 62 4 62 9 0 5 9 7 20 4 15 -4 20
0 20 13 0 11 8 1 19 -22 18 -39 41 -55 96 -67 16 -4 15 -5 -5 -5 -14 -1 -36 5
-50 13 -22 12 -28 11 -45 -3 -20 -17 -20 -17 -3 4 15 17 16 23 4 39 -9 13 -19
16 -32 10 -10 -4 -44 -6 -74 -5 -62 2 -149 17 -111 19 21 1 23 5 18 34 -5 32
-5 32 6 5 6 -16 14 -28 17 -28 9 0 64 59 59 64 -2 2 -23 7 -46 11 -32 5 -43 3
-43 -6 0 -8 -4 -7 -12 4 -7 9 -25 18 -41 20 -15 2 -27 6 -27 10 0 4 0 13 0 20
0 6 5 4 11 -5 5 -10 21 -18 34 -18 20 0 25 7 33 43 6 23 10 32 11 20 1 -18 9
-23 44 -27 83 -11 91 -15 20 -10 -67 4 -73 3 -73 -15 0 -20 3 -21 123 -37 41
-6 47 -4 48 12 0 16 1 16 9 -3 8 -18 17 -22 62 -22 l54 0 -1 92 c0 51 3 121 7
157 l8 65 -43 27 -42 27 -6 -137 -5 -137 -1 146 c0 124 -3 150 -19 173 -16 26
-19 27 -25 10 -7 -17 -8 -17 -8 -2 -1 12 -7 16 -18 12 -14 -5 -15 -4 -4 4 12
9 31 82 34 135 1 12 10 17 32 17 22 0 40 10 63 33 34 35 37 44 23 66 -8 13
-12 13 -28 0 -16 -13 -17 -13 -4 3 11 15 11 22 -3 43 -9 14 -20 24 -24 23 -13
-4 -71 32 -81 49 -9 16 -15 12 -52 -30 -23 -26 -58 -57 -80 -67 -52 -27 -128
-27 -162 1 -21 16 -31 18 -47 9 -11 -6 -20 -19 -20 -30 0 -20 44 -60 66 -60 8
0 14 -5 14 -10 0 -17 -27 -65 -44 -79 -21 -18 -20 -38 2 -44 15 -4 15 -5 0 -6
-12 -1 -19 -16 -27 -53 l-10 -53 2 59 2 60 -56 11 c-30 6 -64 8 -75 4 -10 -4
-26 -8 -34 -8 -8 1 -3 5 13 11 32 11 32 12 8 148 -10 58 -16 122 -13 143 4 35
3 37 -24 37 -15 0 -35 -7 -44 -15 -15 -14 -18 -14 -30 0 -16 19 -59 20 -66 1z"/>
<path d="M2938 5403 c-6 -140 -2 -193 16 -193 6 0 26 9 45 21 l34 20 -7 76
c-3 42 -6 105 -6 140 l0 63 -38 0 -39 0 -5 -127z"/>
<path d="M4034 5465 c-5 -11 -22 -15 -68 -15 -61 0 -61 0 -78 -38 -10 -20 -16
-30 -14 -21 3 9 -7 27 -21 40 -22 21 -26 22 -36 8 -7 -9 -17 -14 -24 -12 -7 3
-10 -4 -6 -19 4 -18 3 -20 -6 -8 -8 12 -16 9 -46 -20 -19 -18 -35 -37 -35 -41
0 -10 62 -31 69 -23 3 3 11 19 16 36 9 26 11 20 10 -40 0 -70 0 -70 -20 -52
-21 20 -67 40 -90 40 -22 0 0 -53 34 -83 16 -14 37 -39 47 -56 10 -17 24 -31
30 -31 6 0 17 -14 24 -30 7 -17 19 -34 27 -39 11 -6 7 -10 -16 -14 -25 -5 -31
-12 -33 -34 -3 -54 -5 -78 -12 -125 -9 -58 6 -117 39 -156 20 -24 25 -41 25
-83 0 -30 9 -107 20 -173 18 -108 18 -121 4 -148 -21 -41 -11 -86 30 -131 26
-28 29 -37 17 -39 -9 -2 9 -14 39 -27 50 -21 60 -23 113 -13 85 16 125 45 154
111 21 46 24 66 19 109 -5 46 -2 61 28 125 62 132 70 166 62 290 -4 62 -11
116 -15 120 -5 5 -6 26 -4 48 3 21 4 39 2 39 -2 0 -22 7 -44 16 l-40 15 36 -6
c42 -6 62 11 57 47 -2 17 -11 24 -30 26 -16 2 -28 -2 -28 -8 0 -6 -5 -8 -10
-5 -7 4 0 17 16 32 26 24 27 27 13 51 -8 15 -33 40 -57 56 l-42 30 -48 -17
c-69 -25 -90 -22 -128 20 l-33 36 -23 -29 c-14 -17 -23 -43 -23 -64 0 -27 -4
-35 -20 -37 -17 -1 -17 -1 -2 3 14 5 17 12 12 34 -5 22 1 38 24 71 25 33 31
52 31 92 0 41 5 55 30 84 17 18 30 28 30 20 0 -8 27 -35 60 -60 33 -26 68 -64
80 -86 11 -22 30 -46 43 -52 12 -6 44 -32 71 -58 l48 -46 -4 53 c-4 42 -14 67
-47 113 -22 33 -44 71 -47 85 -6 25 -28 32 -39 14 -4 -7 -20 1 -40 19 -18 16
-49 34 -69 41 -20 6 -36 16 -36 21 0 15 -20 10 -26 -6z"/>
<path d="M4341 4992 c-7 -13 -4 -39 8 -88 10 -38 22 -99 26 -136 l7 -68 44 0
c43 0 44 0 44 34 0 20 -15 63 -36 103 -31 59 -34 72 -26 100 15 49 5 73 -29
73 -17 0 -32 -7 -38 -18z"/>
<path d="M4370 4642 c0 -24 -59 -192 -76 -217 -29 -41 -20 -44 101 -42 72 1
114 6 112 12 -1 6 -12 42 -24 80 -12 39 -25 96 -28 128 l-6 57 -40 0 c-31 0
-39 -4 -39 -18z"/>
<path d="M3322 4499 c-13 -22 -22 -42 -20 -43 2 -2 22 -1 46 2 37 4 42 7 43
31 2 23 2 24 6 4 4 -19 11 -23 43 -23 21 0 41 6 43 13 3 7 6 5 6 -5 1 -14 10
-18 39 -18 34 0 40 4 55 35 9 20 17 38 17 40 0 3 -20 5 -45 5 -29 0 -45 -4
-45 -12 0 -10 -3 -9 -9 1 -5 7 -13 11 -19 7 -14 -8 -93 -10 -117 -3 -16 5 -25
-2 -43 -34z"/>
<path d="M3600 4509 c-11 -26 -11 -33 1 -41 11 -8 10 -9 -4 -4 -10 3 -20 0
-23 -7 -3 -8 -20 -11 -49 -9 -39 4 -46 1 -55 -19 -10 -23 -10 -23 -5 4 5 25 3
27 -30 27 -29 0 -35 -4 -36 -22 -1 -17 -2 -19 -6 -5 -3 12 -14 17 -38 17 -41
0 -65 -22 -65 -61 0 -28 2 -29 44 -29 41 0 45 2 49 28 l4 27 2 -27 c1 -26 2
-26 71 -27 39 0 70 4 70 9 0 6 5 10 10 10 6 0 6 -7 -1 -18 -8 -13 -20 -17 -46
-14 -23 3 -38 0 -44 -9 -6 -10 -9 -11 -9 -1 0 20 -58 15 -63 -5 -4 -17 -5 -17
-6 0 -1 13 -10 17 -41 17 -31 0 -40 -4 -40 -17 0 -10 -3 -28 -6 -40 -6 -21 -3
-23 30 -23 28 0 39 5 47 23 l10 22 -5 -22 c-4 -20 0 -23 29 -23 29 0 34 4 38
28 l4 27 2 -27 c2 -41 44 -39 61 2 7 17 15 29 17 26 2 -2 -3 -18 -11 -35 l-16
-30 32 -10 33 -9 -41 1 c-23 1 -40 5 -37 10 2 4 -41 7 -96 7 -93 0 -101 -2
-101 -19 0 -11 -3 -26 -6 -34 -3 -10 2 -17 13 -20 15 -4 16 -5 1 -6 -13 -1
-17 -11 -16 -49 0 -76 7 -80 76 -49 68 31 108 33 178 12 l49 -15 30 38 c16 20
48 56 70 79 28 28 39 47 33 55 -4 7 -7 20 -7 28 0 8 4 5 9 -7 12 -31 23 -29
54 8 32 38 41 70 29 106 -20 58 -78 28 -92 -47 -5 -25 -9 -35 -10 -22 -1 31
-30 26 -44 -8 -10 -23 0 40 12 80 6 19 11 36 11 37 0 1 -12 10 -27 18 -16 9
-19 13 -8 9 11 -3 26 -7 33 -7 10 0 12 -9 8 -33 -8 -42 9 -48 43 -14 14 15 32
29 39 31 10 3 8 14 -5 46 -18 41 -48 62 -57 39 -2 -6 -5 -3 -5 7 -1 13 -10 17
-40 17 -34 0 -40 -4 -51 -31z"/>
<path d="M3211 4298 c-34 -90 -89 -197 -165 -322 -52 -86 -64 -112 -55 -123
10 -11 16 -10 38 9 17 15 20 17 11 4 -14 -18 -12 -18 40 -11 30 4 87 17 125
29 l70 22 3 51 c2 42 -1 56 -17 72 -16 16 -21 34 -21 76 0 55 -13 73 -25 34
-4 -11 -8 -19 -10 -17 -2 2 5 28 15 58 19 60 34 180 22 180 -4 0 -18 -28 -31
-62z"/>
<path d="M4297 4343 c-12 -3 -16 -10 -12 -21 9 -23 -33 -132 -64 -166 -64 -70
-199 -98 -280 -56 -21 10 -41 26 -44 35 -13 33 -27 13 -27 -38 l0 -54 75 -56
c92 -69 179 -111 281 -137 87 -22 204 -26 222 -8 16 16 15 78 -3 162 -8 38
-13 71 -11 74 8 7 36 -139 36 -188 0 -49 1 -51 23 -45 44 14 107 56 107 73 0
9 -5 67 -10 127 -14 148 -46 282 -70 295 -18 10 -188 12 -223 3z"/>
<path d="M3692 4166 l-62 -64 15 -41 c12 -36 12 -41 0 -41 -8 0 -15 -7 -15
-15 0 -28 -40 -121 -90 -209 -36 -62 -51 -98 -49 -120 1 -17 -1 -38 -3 -46 -6
-17 -28 -183 -35 -272 -3 -32 -2 -77 1 -102 l7 -45 87 -3 c48 -2 90 1 93 5 3
5 12 -5 19 -22 7 -17 14 -31 17 -31 2 0 23 9 46 20 26 13 34 15 22 5 -10 -8
-34 -21 -53 -27 -29 -11 -33 -16 -30 -43 3 -27 9 -32 57 -48 128 -42 304 -42
432 1 50 17 54 21 57 53 5 53 22 59 24 9 1 -25 1 -57 0 -73 -1 -15 4 -42 12
-60 13 -32 12 -36 -25 -91 -41 -61 -82 -176 -73 -201 5 -11 -2 -15 -26 -15
-84 0 -143 -40 -156 -107 -5 -25 0 -35 36 -67 41 -37 45 -38 104 -34 39 2 80
13 111 28 44 22 51 30 57 65 15 85 32 143 66 225 64 155 114 294 128 358 13
59 13 66 -5 107 -14 32 -32 50 -67 71 -68 40 -196 90 -281 110 -84 20 -123 10
-154 -40 -10 -17 -19 -26 -19 -20 0 18 39 62 60 69 29 9 25 20 -12 30 -26 8
-41 6 -68 -7 -114 -56 -135 -59 -186 -27 -40 24 -42 18 -18 -60 8 -29 14 -57
12 -63 -2 -6 -12 23 -23 65 -17 69 -22 77 -46 82 -15 4 -33 14 -40 23 -11 14
-11 15 1 5 8 -7 31 -13 52 -13 46 0 59 21 33 50 -15 16 -16 22 -5 35 11 13 8
21 -18 48 -33 34 -39 64 -21 102 6 14 7 8 3 -22 -5 -39 -3 -45 26 -70 25 -20
31 -32 27 -52 -3 -15 1 -33 9 -42 15 -16 10 -49 -7 -49 -21 0 -7 -17 26 -33
44 -21 69 -22 84 -3 10 11 10 20 1 36 -10 18 -8 26 12 47 l23 25 -32 28 -32
29 23 18 c12 10 25 25 29 33 3 10 6 7 6 -7 1 -14 -5 -23 -13 -23 -28 0 -28
-22 0 -51 26 -27 27 -29 10 -48 -10 -11 -16 -30 -14 -43 2 -19 9 -23 36 -21
39 1 62 18 63 47 0 15 2 16 6 6 3 -8 11 -18 17 -22 16 -11 64 -10 71 2 3 5 18
7 33 4 30 -6 47 7 55 41 2 11 3 3 1 -17 -3 -29 0 -40 15 -48 27 -14 47 -13 65
6 9 8 16 12 16 7 0 -5 -5 -14 -12 -21 -15 -15 -4 -26 40 -40 35 -12 58 -8 65
11 2 7 2 2 0 -10 -2 -18 5 -27 38 -43 49 -26 71 -23 80 10 6 22 7 23 8 4 1
-12 -6 -27 -14 -34 -14 -11 -12 -17 17 -41 24 -21 44 -28 74 -29 70 0 99 56
45 88 -18 10 -31 27 -33 44 -3 15 -1 25 4 22 4 -3 8 -14 8 -25 0 -11 11 -24
25 -31 58 -26 31 -100 -42 -114 -25 -5 -32 -11 -29 -23 19 -63 18 -77 -20
-210 -7 -23 -6 -23 37 -16 56 9 112 38 137 69 23 29 33 55 62 155 12 40 23 71
25 69 4 -4 -36 -147 -52 -188 -24 -57 -88 -101 -171 -115 l-42 -7 22 -41 c33
-66 95 -153 143 -203 43 -44 56 -62 36 -49 -13 8 -25 -76 -18 -132 3 -31 17
-63 44 -102 90 -127 103 -175 109 -401 l5 -175 52 -107 52 -108 45 -2 45 -1
-43 -4 c-42 -4 -42 -5 -39 -39 2 -19 10 -41 18 -49 18 -18 132 -30 193 -21 37
6 46 11 46 27 0 26 -40 119 -51 119 -5 0 -9 6 -9 14 0 8 -22 38 -49 68 -64 71
-77 99 -84 188 -4 41 -20 121 -36 178 -37 127 -57 225 -75 365 -9 71 -23 126
-39 160 -14 29 -28 80 -31 117 -4 36 -18 126 -33 200 -24 123 -25 144 -16 245
9 108 8 141 -4 97 -3 -14 -13 -22 -28 -22 -12 0 -30 -9 -40 -20 -12 -13 -29
-19 -49 -19 l-31 2 30 4 c17 3 36 9 43 15 17 14 15 47 -3 54 -10 4 -15 18 -14
43 2 35 2 36 8 6 9 -43 35 -77 54 -70 23 9 28 44 12 82 -8 19 -11 31 -6 29 5
-3 14 -19 21 -36 15 -35 23 -37 50 -10 27 27 26 75 -2 94 -12 9 -18 16 -12 16
22 0 44 -38 44 -76 l0 -39 35 39 c19 22 35 47 35 56 0 18 -20 48 -57 88 -27
28 -73 117 -73 140 0 32 -57 126 -88 147 l-35 24 -24 -29 c-13 -16 -54 -44
-90 -62 -60 -29 -75 -32 -152 -32 -158 2 -328 65 -465 174 -71 56 -81 71 -88
127 -3 20 -7 18 -51 -23 -41 -40 -46 -48 -36 -67 9 -20 9 -20 -4 -4 -8 9 -26
17 -41 17 -16 0 -26 5 -26 15 0 8 6 15 14 15 8 0 37 18 65 40 39 31 51 47 51
68 0 27 -24 72 -39 72 -4 0 -35 -29 -69 -64z"/>
<path d="M3348 4049 c-31 -16 -38 -25 -38 -50 0 -26 3 -30 18 -24 9 3 31 8 47
11 17 2 10 -2 -17 -11 -51 -17 -60 -35 -34 -71 8 -10 12 -29 10 -40 -5 -19 1
-23 43 -32 l48 -11 -47 5 c-39 4 -48 2 -57 -15 -15 -27 -14 -30 12 -42 l22
-10 -22 5 c-15 2 -24 -2 -28 -13 -5 -17 -35 -209 -35 -228 0 -6 17 -14 38 -16
l37 -4 -37 -1 c-29 -2 -38 -6 -39 -19 0 -10 -2 -46 -5 -80 l-6 -63 81 0 c74 0
81 2 81 19 0 16 -8 21 -47 24 l-48 3 47 2 c43 2 47 4 53 32 4 20 2 37 -7 47
-9 11 -9 14 -1 10 16 -10 22 15 31 140 l7 102 -30 14 c-29 13 -27 13 19 1 17
-4 25 1 35 22 11 25 10 30 -6 42 -16 12 -16 13 8 7 25 -6 29 -2 68 75 23 45
41 88 41 95 0 8 -12 16 -27 18 l-28 4 27 2 c15 0 32 9 37 20 9 16 4 20 -47 35
-79 22 -158 20 -204 -5z"/>
<path d="M3206 3850 c-32 -10 -75 -21 -96 -25 -35 -6 -39 -10 -55 -60 -9 -30
-15 -64 -13 -75 3 -24 -3 -27 120 69 48 37 19 8 -57 -56 l-50 -43 23 -22 c20
-20 25 -21 45 -9 22 14 22 14 3 -7 -19 -22 -19 -22 25 -42 73 -33 86 -29 94
33 4 28 13 80 20 115 11 54 11 63 -1 58 -11 -4 -12 -1 -4 14 13 25 13 33 -2
24 -7 -4 -2 5 11 19 29 32 20 33 -63 7z"/>
<path d="M2785 3828 c-73 -38 -95 -70 -150 -223 -10 -29 -34 -66 -57 -87 -34
-33 -37 -40 -26 -58 27 -43 -27 -79 -125 -84 -67 -4 -67 -4 -51 -69 5 -23 3
-29 -15 -34 -27 -7 -27 -39 1 -54 35 -19 140 -5 192 25 l44 26 7 -31 c9 -41
30 -46 68 -19 20 15 32 19 35 12 13 -41 78 16 129 114 15 29 31 50 35 48 4 -3
2 -13 -4 -24 -9 -14 -9 -24 -1 -42 7 -13 13 -32 15 -43 2 -15 12 -21 36 -23
50 -5 58 8 65 106 3 55 16 118 32 170 27 79 27 83 10 108 -14 21 -16 39 -11
81 4 31 3 52 -3 49 -8 -5 -39 21 -69 58 -19 23 -107 20 -157 -6z"/>
<path d="M3055 3554 c-44 -107 -45 -296 -1 -524 45 -232 56 -325 56 -485 l0
-156 59 -37 c65 -40 112 -98 177 -218 53 -96 87 -131 137 -141 37 -8 41 -12
54 -56 7 -26 17 -47 21 -47 4 0 7 -13 8 -28 1 -39 31 -81 63 -89 25 -6 167 10
177 20 5 5 -44 129 -55 137 -3 3 -12 17 -20 32 -8 15 -31 39 -53 53 -21 14
-38 32 -38 40 0 24 -61 85 -132 132 -77 50 -144 129 -190 221 -29 58 -30 63
-14 80 20 24 21 102 1 168 -19 62 -19 160 0 244 8 36 18 77 21 93 6 24 4 27
-18 27 -36 0 -74 34 -93 83 -15 40 -15 54 -1 178 9 74 16 157 16 186 0 52 0
52 -37 63 -21 5 -57 21 -81 34 l-42 25 -15 -35z"/>
<path d="M3256 3314 c-13 -33 -5 -60 27 -95 18 -20 31 -42 29 -48 -2 -7 -14 4
-26 25 -25 45 -38 46 -49 3 -11 -42 8 -86 44 -104 36 -19 39 -19 40 3 0 13 2
14 6 2 7 -17 23 -30 40 -30 16 0 53 81 53 119 0 28 -2 31 -19 21 -11 -5 -23
-10 -28 -10 -4 1 4 8 20 16 24 13 27 20 27 64 l0 50 -79 0 c-63 0 -80 -3 -85
-16z"/>
<path d="M3450 3155 c0 -21 -28 -75 -52 -102 -21 -22 -17 -43 8 -43 8 0 14 -5
14 -11 0 -8 18 -10 55 -7 40 3 67 13 98 34 40 28 42 32 45 87 l3 57 -86 0
c-70 0 -85 -3 -85 -15z"/>
<path d="M3636 3034 c-3 -9 9 -55 28 -103 38 -93 56 -203 56 -334 0 -132 16
-149 250 -248 151 -64 156 -67 178 -109 12 -24 22 -39 22 -32 0 7 5 12 10 12
6 0 10 -6 10 -14 0 -8 8 -17 18 -19 16 -4 16 -5 0 -6 -14 -1 -18 -10 -18 -46
0 -50 11 -60 77 -71 41 -6 153 19 153 34 0 4 -15 32 -33 62 -34 58 -48 64
-107 46 -23 -6 -23 -6 -5 5 32 20 34 30 13 68 -40 72 -119 132 -213 161 -48
15 -116 52 -167 92 -36 28 -38 33 -38 84 0 30 -7 68 -15 84 -14 27 -13 35 10
103 13 41 27 99 31 129 l6 55 -58 5 c-33 3 -87 17 -121 32 -73 30 -79 31 -87
10z"/>
</g>
</svg>
