<?xml version="1.0" standalone="no"?>
<!DOCTYPE svg PUBLIC "-//W3C//DTD SVG 20010904//EN"
 "http://www.w3.org/TR/2001/REC-SVG-20010904/DTD/svg10.dtd">
<svg version="1.0" xmlns="http://www.w3.org/2000/svg"
 width="752.000000pt" height="752.000000pt" viewBox="0 0 752.000000 752.000000"
 preserveAspectRatio="xMidYMid meet">
<metadata>
Created by potrace 1.16, written by Peter Selinger 2001-2019
</metadata>
<g transform="translate(0.000000,752.000000) scale(0.100000,-0.100000)"
fill="#fff" stroke="none">
<path d="M3460 5695 c0 -3 11 -27 25 -54 13 -27 40 -101 59 -166 19 -64 37
-120 40 -123 4 -3 29 -6 56 -6 28 -1 50 -1 50 -1 0 0 -7 18 -15 40 -19 54 -18
129 4 192 10 29 16 55 13 58 -3 3 -20 5 -38 5 -18 0 -36 5 -40 11 -17 28 -154
67 -154 44z"/>
<path d="M3797 5634 c-4 -4 -7 -40 -7 -80 0 -63 -2 -72 -20 -77 -25 -6 -27
-44 -2 -64 11 -9 13 -16 6 -19 -55 -23 -55 -52 0 -78 43 -20 93 -10 114 24 11
18 9 22 -13 32 -27 12 -31 28 -14 59 7 14 7 24 0 33 -5 6 -11 48 -13 91 -3 72
-5 80 -23 83 -12 2 -24 0 -28 -4z"/>
<path d="M4073 5604 c-26 -20 -36 -23 -52 -15 -43 24 -52 15 -45 -44 5 -39 2
-75 -11 -120 -15 -56 -15 -68 -4 -83 13 -15 12 -16 -4 -3 -15 12 -20 10 -38
-13 -53 -68 -157 -74 -208 -12 -7 9 -17 14 -21 11 -5 -3 -11 -1 -15 5 -10 16
-65 12 -71 -5 -15 -39 88 -134 170 -156 79 -21 190 14 248 80 l32 36 -31 3
c-17 2 -37 10 -45 19 -12 15 -11 15 9 5 12 -7 32 -12 46 -12 21 0 25 8 42 78
32 137 45 172 82 213 l35 39 -43 0 c-32 0 -53 -7 -76 -26z"/>
<path d="M2978 5582 c-24 -14 -28 -23 -28 -64 0 -52 1 -53 33 -37 21 10 21 10
3 -5 -11 -9 -23 -16 -27 -16 -7 0 -1 -69 6 -78 2 -2 18 6 36 17 41 25 49 26
75 6 18 -14 17 -15 -8 -4 -22 10 -33 8 -68 -12 -40 -23 -41 -24 -34 -64 8 -49
8 -49 32 -36 25 13 72 14 91 2 10 -6 0 -8 -27 -4 -74 10 -106 -29 -86 -104 6
-20 7 -21 42 -6 29 12 44 13 73 4 20 -6 40 -11 44 -11 9 0 -5 82 -17 98 -7 8
-7 12 1 12 16 0 14 50 -4 83 -8 15 -10 25 -5 22 6 -4 10 11 10 35 0 39 -2 42
-46 60 -25 11 -51 17 -57 14 -9 -5 -9 -4 -1 5 8 9 19 8 47 -4 20 -8 39 -15 42
-15 3 0 5 18 5 39 0 40 -4 43 -95 77 -5 2 -22 -4 -37 -14z"/>
<path d="M3576 5225 c-9 -13 -23 -52 -32 -86 -18 -68 -10 -88 25 -69 17 8 21
8 19 -2 -5 -23 84 -35 268 -36 225 -1 221 -3 206 97 -6 40 -13 75 -15 77 -2 2
-30 -11 -62 -31 -33 -19 -65 -35 -72 -35 -24 0 -14 -17 17 -30 17 -7 29 -14
27 -16 -2 -3 -20 3 -40 11 -56 23 -200 22 -264 -3 -29 -11 -51 -16 -48 -12 3
5 28 16 57 26 l51 17 -34 28 c-19 15 -46 42 -60 59 l-26 31 -17 -26z"/>
<path d="M2998 5059 c-21 -12 -25 -79 -6 -79 9 0 9 -3 0 -12 -12 -12 -17 -58
-7 -58 3 0 22 7 41 15 32 13 39 13 64 0 42 -21 50 -19 50 15 0 37 -35 54 -94
47 -27 -4 -35 -3 -25 4 19 12 61 11 93 -1 25 -9 26 -8 26 29 0 32 -4 40 -22
45 -35 9 -101 7 -120 -5z"/>
<path d="M3400 5030 c-12 -8 -15 -32 -13 -131 1 -66 3 -122 5 -123 2 -2 28 -6
60 -10 l56 -6 7 48 c18 139 23 217 12 224 -17 11 -109 9 -127 -2z"/>
<path d="M3580 5004 c-1 -5 -7 -58 -15 -119 -12 -102 -12 -112 5 -135 32 -47
75 -63 179 -68 126 -6 171 7 233 67 l50 46 -8 97 -7 96 -196 5 c-108 2 -206 8
-218 12 -13 4 -23 3 -23 -1z"/>
<path d="M4114 5001 c-60 -15 -58 -8 -38 -206 l5 -50 84 0 85 -1 0 128 c0 115
-2 128 -17 128 -10 0 -34 2 -53 5 -19 2 -49 0 -66 -4z"/>
<path d="M2910 4798 c-42 -15 -53 -51 -21 -68 16 -8 34 -7 77 6 77 22 184 22
235 -2 66 -29 102 8 47 49 -24 18 -45 21 -165 24 -93 2 -149 -1 -173 -9z"/>
<path d="M3022 4715 c-32 -14 -33 -17 -30 -62 l3 -48 60 -6 60 -6 -62 -1 -63
-2 0 -40 c0 -22 5 -40 10 -40 22 0 70 31 70 45 0 7 4 16 9 19 5 4 7 -2 5 -11
-7 -24 15 -51 49 -59 27 -6 27 -6 27 44 0 45 -3 51 -22 55 -22 4 -22 4 -2 6
32 2 40 78 12 104 -24 21 -80 22 -126 2z"/>
<path d="M3470 4704 c0 -51 -45 -110 -106 -139 -52 -24 -55 -28 -49 -53 3 -15
14 -35 24 -45 17 -17 21 -17 53 -4 20 8 55 32 79 53 40 35 41 35 14 5 -16 -18
-49 -44 -72 -57 -29 -18 -43 -33 -46 -52 l-4 -27 -2 28 c-1 28 -14 33 -58 21
-14 -4 -23 -16 -26 -33 l-4 -26 -2 25 c-1 24 -4 25 -41 22 l-40 -4 0 -65 c0
-58 3 -67 25 -85 23 -18 25 -25 19 -67 -4 -25 -11 -51 -16 -58 -6 -7 -5 -19 1
-32 6 -11 11 -30 10 -43 0 -13 -3 -17 -6 -11 -3 8 -15 11 -31 8 -26 -5 -26 -5
-4 5 16 7 22 17 20 31 -3 19 -10 21 -109 22 l-106 2 -10 -38 -10 -37 96 4 c94
5 95 5 19 -3 -106 -12 -123 -17 -142 -47 -13 -19 -15 -29 -6 -39 9 -11 23 -9
80 10 37 13 95 29 127 35 32 7 61 17 66 24 4 6 4 -37 1 -96 -4 -67 -3 -108 3
-108 17 0 55 42 69 76 11 25 13 80 10 237 -2 113 -7 211 -11 218 -6 11 -5 12
6 2 7 -7 21 -13 32 -13 16 0 18 -5 13 -37 -3 -21 -7 -54 -8 -73 -3 -34 -2 -35
35 -38 40 -3 44 3 22 32 -8 11 -15 36 -15 56 0 19 -7 45 -15 57 -10 14 -12 24
-5 28 5 3 10 0 10 -7 0 -8 6 -22 13 -32 13 -17 16 -15 39 25 14 24 34 52 45
61 18 17 19 16 16 -15 -3 -20 4 -44 16 -64 l20 -32 54 52 c63 60 87 102 87
150 0 32 -24 68 -46 67 -5 -1 -19 -22 -31 -48 -12 -26 -37 -58 -55 -71 l-33
-24 36 39 c56 60 71 102 53 148 -10 25 -22 19 -34 -19 -6 -19 -15 -37 -19 -40
-5 -2 -1 15 7 38 22 60 8 108 -35 121 -20 6 -23 4 -23 -20z"/>
<path d="M3560 4711 c0 -5 20 -36 45 -70 79 -107 168 -145 239 -102 40 25 111
102 132 144 17 32 18 32 -30 8 -21 -11 -62 -23 -93 -27 -44 -5 -53 -10 -48
-22 4 -12 1 -12 -15 3 -18 16 -26 17 -50 8 -22 -8 -27 -8 -24 2 3 8 -9 15 -36
19 -23 4 -59 16 -81 26 -21 11 -39 16 -39 11z"/>
<path d="M4038 4612 c-2 -97 -2 -97 -5 -19 -2 42 -7 77 -11 77 -5 0 -23 -21
-41 -47 -29 -41 -32 -51 -26 -91 5 -36 17 -56 60 -101 29 -31 60 -71 69 -88
19 -37 24 -39 40 -17 10 14 12 13 12 -3 1 -10 5 -27 9 -38 l8 -20 -16 20 c-15
20 -16 20 -30 1 -15 -20 -20 -16 -31 24 -3 14 -15 36 -26 50 l-19 25 -40 -45
-39 -45 -10 25 c-5 14 -18 32 -27 40 -15 12 -19 11 -37 -10 l-20 -25 17 28
c16 27 16 30 -1 48 -10 11 -24 17 -32 14 -12 -4 -12 -2 -4 8 7 8 10 16 9 18
-2 2 21 -22 51 -53 30 -32 60 -58 67 -58 15 0 45 43 45 63 0 8 -9 22 -21 33
-30 27 -49 68 -49 104 0 16 -3 30 -6 30 -3 0 -26 -17 -51 -37 -39 -32 -53 -38
-93 -37 -30 0 -61 9 -85 23 -21 12 -39 20 -41 18 -2 -1 -5 -22 -6 -45 -2 -23
-6 -42 -9 -42 -3 0 -15 -14 -28 -31 -19 -26 -20 -33 -9 -46 18 -22 99 -73 115
-73 25 0 26 31 2 58 -18 20 -19 23 -3 9 28 -23 33 -22 73 16 l35 32 -37 -43
c-20 -23 -37 -49 -37 -57 0 -21 58 -20 84 3 21 17 21 17 4 -4 -10 -11 -18 -24
-18 -27 0 -4 48 -7 106 -7 90 0 109 3 121 18 13 15 13 15 4 -5 -13 -25 -14
-73 -3 -89 4 -6 17 -14 29 -18 28 -9 63 24 64 62 1 20 3 22 6 7 8 -31 -26 -85
-54 -85 -32 0 -63 34 -63 68 l0 29 -266 6 -265 6 -29 -32 -29 -32 37 -16 c20
-9 46 -27 57 -40 l20 -24 -25 22 c-37 32 -74 43 -149 43 l-68 0 5 -29 c4 -27
7 -29 66 -33 85 -7 123 -28 132 -74 7 -39 -1 -122 -17 -157 -9 -21 -9 -21 -4
3 3 14 8 55 11 92 6 62 5 68 -19 92 -31 31 -47 33 -47 8 0 -27 -32 -52 -72
-59 -34 -5 -36 -7 -46 -67 -6 -33 -14 -71 -17 -82 -6 -20 -2 -22 62 -29 37 -3
78 -9 90 -12 15 -3 23 1 26 14 4 17 5 17 6 0 1 -14 8 -18 29 -15 24 3 28 8 33
48 l6 45 1 -46 c1 -27 7 -49 15 -52 6 -2 50 -5 97 -6 47 -1 95 -4 106 -7 32
-8 38 12 13 46 l-23 30 23 46 c12 26 20 49 17 52 -3 2 -57 7 -120 10 l-115 5
-4 -39 c-2 -22 -4 -4 -5 39 l-2 77 221 0 c212 0 222 1 252 22 22 16 50 24 94
26 l63 4 0 70 c0 38 -7 92 -17 120 -15 47 -17 50 -31 32 -13 -18 -14 -18 -8 3
6 17 1 25 -22 37 -36 19 -82 72 -82 94 0 9 8 1 18 -18 26 -52 74 -80 141 -81
31 -1 45 -4 31 -6 -44 -8 -46 -22 -5 -39 33 -13 50 -14 121 -4 114 16 137 48
52 71 -52 13 -74 34 -59 53 8 10 7 17 -4 26 -13 10 -26 8 -77 -15 -59 -26 -62
-27 -95 -11 -42 20 -68 75 -78 163 -5 48 -11 62 -26 66 -18 5 -19 -2 -21 -91z"/>
<path d="M3049 4519 c-13 -10 -32 -19 -43 -19 -15 0 -17 -5 -12 -31 3 -17 6
-35 6 -40 0 -21 47 -7 79 24 21 19 27 22 13 6 -27 -31 -28 -45 -3 -59 32 -16
61 -12 61 9 0 10 3 33 6 50 6 28 4 31 -19 31 -15 0 -33 10 -44 24 -19 24 -20
24 -44 5z"/>
<path d="M3014 4402 c-18 -11 -33 -176 -19 -191 7 -7 223 -6 230 1 13 13 -7
49 -37 64 -17 9 -63 18 -104 21 l-73 6 42 37 c36 33 40 39 28 54 -14 17 -48
21 -67 8z"/>
<path d="M4345 4330 c-16 -4 -47 -8 -67 -9 l-38 -1 0 -154 c0 -84 -3 -174 -6
-200 -8 -55 6 -60 64 -21 22 15 51 25 73 25 43 0 65 21 107 105 l30 60 -24 30
c-13 17 -29 48 -34 70 -26 101 -38 112 -105 95z"/>
<path d="M2793 4296 c-46 -39 -106 -193 -97 -251 4 -29 4 -29 -9 4 l-13 35
-27 -35 c-35 -46 -57 -101 -57 -140 0 -28 2 -30 17 -18 9 8 5 -2 -10 -22 -36
-48 -36 -104 0 -170 28 -52 39 -60 46 -31 2 9 2 3 0 -14 -6 -53 65 -118 160
-145 24 -7 28 -6 23 8 -5 12 -3 13 6 6 35 -27 114 -24 121 6 3 11 5 9 6 -6 1
-18 26 -43 43 -43 5 0 -1 197 -8 288 -4 53 -9 72 -20 72 -8 0 -14 7 -14 15 0
19 -14 19 -29 1 -10 -12 -19 -12 -63 -1 -28 8 -55 18 -60 23 -6 6 10 3 35 -5
39 -13 48 -13 82 1 21 9 35 19 32 23 -4 3 -30 16 -59 27 -67 27 -102 74 -95
129 3 20 0 61 -7 91 -13 54 -8 88 16 102 10 6 10 4 -1 -9 -10 -13 -12 -32 -6
-75 4 -31 9 -77 11 -102 6 -63 20 -93 54 -114 32 -18 36 -16 20 14 -7 14 -3
26 19 54 43 53 60 146 45 239 -8 43 -19 46 -84 17 -30 -13 -38 -15 -25 -5 11
9 37 21 57 27 55 16 46 28 -21 28 -48 0 -65 -5 -88 -24z"/>
<path d="M4075 4116 c-67 -30 -90 -103 -50 -158 25 -34 35 -35 35 -3 0 25 25
95 33 95 3 0 -1 -17 -9 -37 -25 -71 -19 -104 32 -164 78 -92 70 -90 99 -25 14
32 25 59 23 60 -34 14 -43 27 -42 60 1 31 -2 36 -20 36 -32 0 -55 21 -62 57
-6 31 -6 32 40 38 40 6 46 10 46 31 0 22 -4 24 -47 24 -27 -1 -61 -7 -78 -14z"/>
<path d="M3580 4050 l0 -30 133 0 133 0 29 30 29 30 -162 0 -162 0 0 -30z"/>
<path d="M3869 3998 c-16 -18 -34 -48 -40 -66 l-11 -34 153 -155 c216 -217
349 -318 349 -265 0 11 -126 131 -255 245 -55 48 -127 118 -159 155 -42 47
-22 31 71 -58 213 -205 350 -330 362 -330 6 0 11 7 11 15 0 17 -427 525 -442
525 -5 0 -22 -14 -39 -32z"/>
<path d="M4449 3963 c-8 -9 -14 -41 -15 -72 0 -38 -10 -77 -28 -121 -71 -165
-71 -179 -5 -159 31 10 44 7 109 -20 40 -17 75 -29 77 -27 2 2 -7 26 -20 53
-25 48 -71 217 -83 306 -7 54 -16 64 -35 40z"/>
<path d="M3350 3730 l0 -119 33 -9 32 -8 8 119 c4 66 6 121 5 122 -2 1 -20 5
-40 8 l-38 6 0 -119z"/>
<path d="M3445 3820 c-3 -6 -9 -59 -12 -119 -6 -107 -6 -108 18 -114 13 -4 36
-7 51 -7 25 0 27 2 33 73 4 39 5 95 3 122 l-3 50 -42 3 c-22 2 -44 -2 -48 -8z"/>
<path d="M3550 3753 c0 -43 -3 -102 -6 -130 l-7 -53 35 0 36 0 4 123 c3 67 5
123 4 123 -1 1 -16 5 -33 9 l-33 7 0 -79z"/>
<path d="M3626 3783 c-3 -21 -6 -77 -6 -125 l0 -88 49 0 c35 0 51 4 55 16 3 9
6 65 6 125 l0 109 -49 0 c-48 0 -48 0 -55 -37z"/>
<path d="M3816 3783 c-3 -16 -8 -70 -12 -122 l-6 -94 32 7 c18 3 36 6 41 6 14
0 11 204 -3 218 -21 21 -46 14 -52 -15z"/>
<path d="M4462 3508 c40 -40 84 -95 98 -121 24 -46 26 -48 65 -45 l40 3 -2 42
c-2 53 -27 107 -56 121 -92 45 -161 72 -188 72 -31 0 -31 0 43 -72z"/>
<path d="M3035 3313 l0 -258 23 -2 c60 -7 61 -7 50 -20 -9 -11 -14 -11 -28 2
-29 26 -50 9 -50 -42 l0 -46 40 6 c27 3 43 1 51 -9 6 -8 20 -14 31 -14 17 0
19 8 20 63 0 34 2 178 5 320 l4 257 -73 0 -73 0 0 -257z"/>
<path d="M3220 3422 l0 -68 45 -22 c25 -12 61 -22 79 -22 32 0 34 2 38 43 4
38 1 47 -36 88 -36 41 -46 47 -83 48 l-43 1 0 -68z"/>
<path d="M3659 3393 c-3 -32 4 -121 12 -135 12 -23 26 -23 32 0 2 9 2 3 0 -15
-2 -19 1 -33 9 -37 7 -3 1 -3 -14 0 -24 5 -27 2 -33 -28 -4 -19 -2 -54 5 -77
l11 -42 28 20 c33 24 61 77 61 116 0 22 -3 25 -21 20 l-21 -7 21 21 c13 13 21
34 21 56 0 19 5 35 10 35 34 0 82 -33 112 -79 l34 -50 37 37 c48 49 49 82 3
128 -26 26 -43 34 -69 34 -51 0 -67 -9 -67 -36 0 -20 -5 -24 -28 -24 -26 0
-28 3 -24 29 3 23 0 29 -20 34 -32 9 -98 9 -99 0z"/>
<path d="M3427 3383 c-24 -43 -9 -154 25 -177 28 -20 42 -12 63 34 10 21 28
49 41 61 31 29 30 41 -2 28 -15 -5 -29 -8 -31 -5 -2 2 19 12 47 21 29 9 49 22
47 28 -4 14 -183 23 -190 10z"/>
<path d="M3220 3232 l0 -80 71 -22 c39 -12 69 -23 67 -25 -2 -2 -34 5 -71 17
-38 11 -69 19 -71 17 -2 -2 -6 -43 -9 -91 l-5 -86 37 -7 c47 -8 133 -36 128
-41 -2 -2 -21 2 -43 9 -21 8 -58 17 -81 21 l-43 6 0 -38 c0 -22 -3 -61 -7 -87
l-6 -48 70 6 c74 7 141 27 182 54 l24 16 -24 19 -24 19 24 -11 c43 -22 46 4 6
59 -23 32 -39 67 -42 94 -3 23 -13 48 -22 56 -15 13 -15 13 1 8 20 -7 65 68
47 79 -6 4 -20 26 -31 50 -15 36 -24 44 -46 44 -24 1 -60 12 -114 35 -16 6
-18 -1 -18 -73z"/>
<path d="M3595 3288 c-53 -41 -78 -128 -53 -183 11 -25 113 -84 125 -72 3 4 0
33 -6 64 -9 39 -10 70 -4 93 9 35 -3 90 -19 90 -4 0 -5 7 -2 15 9 21 -9 19
-41 -7z"/>
<path d="M4620 3289 c-14 -5 -49 -33 -77 -62 -29 -28 -53 -46 -53 -40 0 13
-44 28 -108 38 -40 7 -47 4 -78 -26 -19 -18 -34 -36 -34 -40 0 -4 43 -10 96
-14 86 -7 96 -6 110 11 9 11 -8 -27 -37 -84 -29 -56 -50 -104 -48 -106 2 -2
44 -6 92 -8 l89 -5 40 56 c93 129 173 191 244 191 l37 0 -22 24 c-49 53 -193
90 -251 65z"/>
<path d="M3792 3247 c-7 -19 -12 -46 -12 -61 0 -36 -21 -74 -64 -115 -26 -25
-32 -37 -23 -43 17 -11 75 -9 120 5 33 10 42 20 64 70 l26 57 -29 46 c-16 26
-38 53 -50 60 -18 13 -21 11 -32 -19z"/>
<path d="M3455 3130 c-17 -33 -20 -96 -5 -134 5 -14 25 -42 44 -63 113 -126
348 -122 335 5 -2 15 0 33 5 40 13 21 3 23 -53 11 -90 -19 -199 17 -259 86
-18 20 -32 47 -32 60 0 34 -16 31 -35 -5z"/>
<path d="M4794 3146 c-3 -7 5 -31 18 -52 19 -32 23 -54 24 -119 l0 -80 57 -3
57 -3 0 75 c0 98 -16 173 -40 186 -28 15 -110 13 -116 -4z"/>
<path d="M4058 3106 c-43 -60 -39 -66 45 -66 l72 0 25 43 c14 23 26 45 28 49
2 3 -29 8 -69 10 l-73 3 -28 -39z"/>
<path d="M4220 3099 c-16 -23 -30 -46 -30 -51 0 -9 164 -9 200 1 21 6 69 66
59 75 -2 2 -48 6 -101 10 l-97 7 -31 -42z"/>
<path d="M4703 3073 c-22 -27 -57 -74 -79 -106 l-39 -57 -45 7 c-51 8 -295 7
-309 -1 -4 -3 -87 -7 -184 -8 -173 -3 -175 -3 -196 -28 -24 -29 -26 -69 -9
-187 14 -95 22 -101 78 -50 l35 32 -34 -37 c-19 -21 -41 -38 -48 -38 -15 0
-17 -40 -7 -114 7 -45 8 -47 33 -41 14 4 53 11 86 16 66 11 152 47 201 84 18
14 57 59 87 102 30 43 72 94 92 113 35 33 35 31 -14 -36 -28 -39 -51 -74 -51
-77 0 -4 12 -2 28 4 23 9 21 5 -14 -25 -36 -31 -44 -45 -57 -103 -9 -38 -18
-115 -21 -173 l-5 -106 84 -29 c47 -16 83 -31 80 -33 -2 -2 -40 9 -84 24 -44
16 -83 25 -87 21 -13 -13 10 -40 52 -64 21 -13 34 -23 28 -23 -6 0 -28 12 -49
26 -40 26 -54 22 -55 -18 0 -19 50 -60 95 -77 l30 -11 -30 5 c-16 4 -50 20
-74 37 -42 30 -43 30 -36 7 15 -47 35 -78 67 -102 56 -42 76 -43 114 -6 19 18
34 37 34 41 0 4 -17 9 -37 9 -25 1 -14 4 30 10 87 10 97 14 97 39 0 18 -7 20
-57 21 -32 1 -71 5 -88 9 -17 4 8 5 55 3 47 -3 101 -1 120 4 l35 10 -55 8
c-30 4 -64 11 -75 16 -13 6 -4 7 25 3 l46 -6 86 174 c50 100 100 217 118 278
18 58 46 141 62 185 41 108 48 205 20 268 -12 26 -25 47 -31 47 -5 0 -27 -21
-48 -47z"/>
<path d="M4164 2995 c-7 -19 -14 -37 -14 -40 0 -7 84 -6 157 1 56 6 62 9 77
40 l16 34 -111 0 -110 0 -15 -35z"/>
<path d="M2968 2967 c-9 -12 -36 -63 -62 -112 -25 -50 -56 -107 -68 -127 -13
-20 -21 -39 -18 -41 3 -3 39 5 81 16 l76 22 7 129 c3 71 5 131 2 133 -2 2 -10
-7 -18 -20z"/>
<path d="M3075 2941 c-11 -5 -25 -6 -31 -4 -13 5 -22 -108 -31 -413 -6 -213
-5 -222 13 -227 16 -4 16 -5 -3 -6 -21 -1 -23 -6 -23 -67 0 -65 0 -66 25 -62
13 3 22 1 19 -3 -3 -5 -15 -9 -28 -9 -22 0 -23 -5 -35 -142 -6 -79 -14 -167
-18 -195 -5 -51 -4 -53 18 -53 19 0 27 -8 36 -37 10 -34 10 -36 -3 -19 -8 11
-14 26 -14 33 0 23 -37 15 -44 -9 -14 -53 -7 -86 25 -112 36 -30 56 -32 86 -8
20 16 23 32 37 247 9 127 18 242 21 258 3 15 0 27 -6 27 -6 0 -22 9 -36 20
-14 11 -21 20 -16 20 6 0 16 -7 23 -15 20 -24 40 -18 40 13 0 15 3 44 6 65 6
33 4 37 -14 37 -11 0 -27 -7 -36 -15 -13 -14 -16 -13 -27 7 -9 17 -9 20 0 12
8 -8 21 -8 45 0 l34 10 6 96 c3 52 9 193 12 313 6 189 5 217 -9 217 -8 0 -20
7 -27 15 -14 17 -16 17 -45 6z"/>
<path d="M3472 2824 c-38 -38 -120 -67 -219 -79 l-63 -7 0 -39 c0 -36 2 -39
28 -39 51 0 160 28 212 55 28 14 72 45 96 67 24 22 44 37 44 32 -1 -15 -28
-59 -37 -59 -4 -1 -47 -20 -94 -44 -64 -32 -107 -46 -165 -54 -44 -6 -82 -16
-86 -22 -4 -5 -8 -23 -8 -39 0 -31 2 -31 110 -10 23 4 23 4 4 -5 -12 -5 -42
-13 -68 -16 l-46 -7 0 -64 c0 -40 4 -64 11 -64 27 0 240 115 295 159 65 53
116 123 132 182 l10 36 -57 26 c-31 15 -58 26 -61 26 -3 -1 -20 -17 -38 -35z"/>
<path d="M3708 2803 l-48 -4 -2 -77 c-1 -48 -3 -61 -5 -34 l-4 43 -40 -61
c-22 -33 -51 -68 -63 -77 -16 -13 -26 -37 -35 -83 -23 -121 -44 -195 -77 -273
-19 -43 -34 -79 -34 -80 0 -1 73 -2 163 -2 161 0 162 0 216 30 29 16 56 36 59
44 8 21 -16 374 -33 476 -8 50 -15 93 -15 98 0 4 -8 6 -17 5 -10 -1 -39 -3
-65 -5z"/>
<path d="M2882 2660 c-63 -23 -114 -53 -164 -98 -40 -36 -47 -52 -23 -52 7 0
18 -8 24 -17 9 -16 11 -16 32 2 l23 20 -22 -29 c-12 -16 -22 -42 -22 -58 0
-25 3 -29 18 -22 9 5 40 9 69 9 46 0 54 3 68 27 9 15 31 39 50 53 27 21 35 35
40 76 4 28 5 52 2 55 -7 7 -116 -43 -156 -72 l-36 -25 34 30 c19 16 63 42 98
57 45 19 63 32 63 46 0 23 -29 23 -98 -2z"/>
<path d="M3422 2503 c-33 -20 -51 -41 -78 -94 -19 -38 -36 -69 -39 -69 -3 0 7
25 22 55 15 30 25 57 22 60 -3 3 -42 -12 -87 -32 l-82 -38 -1 -47 c-1 -27 -2
-54 -3 -60 -1 -7 12 -17 27 -23 25 -8 31 -6 47 15 32 43 52 66 44 50 -4 -8
-19 -30 -32 -48 -14 -18 -23 -34 -21 -36 5 -5 120 -56 125 -56 7 0 41 75 58
125 22 69 55 225 48 225 -4 -1 -26 -12 -50 -27z"/>
<path d="M2671 2337 c-23 -61 -42 -139 -37 -153 3 -9 20 -14 47 -14 24 0 92
-12 151 -26 60 -14 112 -24 115 -21 2 3 7 52 10 109 l5 103 -22 -32 c-27 -41
-71 -44 -122 -10 -19 13 -49 27 -68 30 -18 4 -42 15 -52 23 -16 16 -18 15 -27
-9z"/>
<path d="M3170 2213 c0 -21 -3 -68 -7 -105 l-6 -68 36 -15 c67 -28 80 -22 126
54 22 38 41 74 41 80 0 10 -162 91 -181 91 -5 0 -9 -17 -9 -37z"/>
<path d="M2650 2079 c0 -35 7 -73 16 -90 21 -41 123 -89 203 -96 69 -7 66 -11
75 113 l5 71 -107 26 c-59 14 -126 28 -149 30 l-43 5 0 -59z"/>
<path d="M3410 2113 c-40 -4 -65 -33 -55 -63 8 -26 37 -33 101 -25 57 7 94 37
94 76 0 16 -7 19 -52 17 -29 -1 -69 -3 -88 -5z"/>
<path d="M4162 2053 c-6 -16 -12 -61 -14 -100 l-4 -73 34 -11 c18 -6 31 -13
29 -15 -2 -3 -17 0 -32 6 -27 10 -44 2 -45 -22 0 -14 131 -47 232 -58 56 -6
125 -16 152 -21 109 -20 247 -7 260 26 8 21 -33 26 -260 29 -155 3 -221 8
-254 19 -42 15 -42 16 -9 11 34 -5 36 -4 48 36 7 23 14 40 17 37 2 -2 0 -16
-6 -31 -19 -51 -15 -56 48 -56 58 0 58 0 93 48 19 26 35 50 37 53 1 3 -32 9
-74 13 -58 5 -79 4 -87 -6 -6 -10 -8 -9 -4 4 4 11 -2 19 -22 26 -35 12 -98 67
-106 93 -9 27 -21 24 -33 -8z"/>
<path d="M4486 1910 c-13 -14 -31 -37 -40 -51 l-17 -26 171 -8 c94 -4 174 -4
177 -1 10 9 -48 66 -87 86 -21 10 -65 19 -108 22 -67 3 -74 2 -96 -22z"/>
</g>
</svg>
