<?xml version="1.0" standalone="no"?>
<!DOCTYPE svg PUBLIC "-//W3C//DTD SVG 20010904//EN"
 "http://www.w3.org/TR/2001/REC-SVG-20010904/DTD/svg10.dtd">
<svg version="1.0" xmlns="http://www.w3.org/2000/svg"
 width="752.000000pt" height="752.000000pt" viewBox="0 0 752.000000 752.000000"
 preserveAspectRatio="xMidYMid meet">

<g transform="translate(0.000000,752.000000) scale(0.100000,-0.100000)"
fill="#000000" stroke="none">
<path d="M2969 5925 c-4 -3 0 -30 8 -58 8 -29 17 -104 20 -168 10 -203 -32
-335 -186 -582 -120 -193 -155 -286 -167 -446 -19 -267 117 -468 396 -584 85
-35 233 -73 340 -87 47 -6 98 -13 113 -15 l28 -5 -35 43 c-63 77 -90 150 -94
252 l-4 91 -83 21 c-117 30 -192 68 -252 128 -81 82 -102 190 -67 348 52 231
229 408 447 448 37 7 67 17 67 23 -1 24 -39 93 -66 118 -33 31 -102 58 -146
58 -25 0 -29 3 -23 18 56 132 -17 314 -149 373 -45 19 -137 35 -147 24z"/>
<path d="M4500 5921 c-144 -44 -244 -225 -197 -358 l14 -42 -41 -6 c-91 -16
-146 -52 -177 -120 -28 -61 -25 -75 15 -75 98 0 244 -76 332 -173 106 -116
156 -244 158 -402 1 -117 -11 -150 -75 -220 -60 -65 -172 -117 -319 -149 -24
-5 -25 -8 -25 -93 -1 -77 -4 -96 -31 -153 -17 -36 -46 -83 -64 -103 l-32 -37
49 6 c321 38 528 113 662 240 117 109 161 221 161 405 0 174 -36 281 -165 484
-82 131 -142 261 -166 362 -18 74 -20 108 -16 218 3 74 11 150 20 178 l15 47
-46 -1 c-26 0 -58 -4 -72 -8z"/>
<path d="M3750 4814 l0 -125 38 3 37 3 3 123 3 122 -41 0 -40 0 0 -126z"/>
<path d="M3515 4890 c-154 -33 -282 -84 -427 -173 -73 -45 -73 -44 -41 -114
32 -68 131 -130 261 -164 41 -10 80 -19 86 -19 6 0 22 23 35 52 42 91 140 173
254 211 15 6 17 21 17 117 l0 110 -47 -1 c-27 0 -88 -9 -138 -19z"/>
<path d="M3870 4803 l0 -110 48 -18 c103 -39 191 -117 232 -206 l24 -50 40 7
c56 9 172 50 209 73 67 41 127 120 127 166 0 19 -133 100 -241 147 -113 48
-260 87 -361 95 l-78 6 0 -110z"/>
<path d="M3704 4641 c-99 -25 -194 -104 -241 -199 -25 -50 -28 -68 -28 -152 0
-83 3 -102 27 -150 37 -75 100 -137 178 -174 57 -27 75 -31 150 -31 70 1 95 5
142 27 79 37 142 98 181 177 28 58 32 75 32 151 0 76 -4 93 -32 151 -61 124
-175 200 -307 205 -39 2 -85 0 -102 -5z m117 -311 c27 -15 26 -75 -2 -90 -30
-17 -62 -8 -78 21 -13 24 -13 29 2 53 18 27 45 33 78 16z"/>
<path d="M2204 4102 l-191 -277 46 -7 c153 -24 187 -33 252 -64 104 -50 203
-151 257 -264 62 -128 83 -226 89 -420 l6 -165 159 400 c154 390 158 401 152
455 -27 228 -172 432 -395 553 -53 29 -155 67 -178 67 -3 0 -92 -125 -197
-278z m261 -14 c45 -21 42 -88 -5 -103 -56 -18 -96 66 -48 99 27 19 21 19 53
4z"/>
<path d="M5115 4366 c-22 -7 -78 -32 -125 -56 -117 -61 -259 -201 -313 -310
-39 -79 -77 -210 -77 -267 0 -28 300 -816 317 -833 2 -3 2 27 -2 65 -9 93 11
278 42 385 82 284 258 434 546 465 31 4 57 9 56 13 -1 19 -377 547 -389 549
-8 1 -33 -4 -55 -11z m40 -278 c45 -21 42 -88 -5 -103 -56 -18 -96 66 -48 99
27 19 21 19 53 4z"/>
<path d="M2942 4013 c32 -64 55 -126 66 -180 l17 -83 45 -15 c62 -20 225 -51
345 -66 134 -17 590 -17 730 -1 121 15 281 45 363 68 46 14 52 18 52 42 0 69
60 231 113 306 11 16 16 27 11 25 -5 -2 -38 -18 -74 -36 -133 -64 -291 -105
-480 -123 -63 -6 -128 -16 -145 -22 -16 -6 -55 -19 -85 -30 -74 -27 -191 -21
-270 14 -38 17 -84 27 -145 32 -189 15 -428 77 -542 141 -25 14 -47 25 -48 25
-1 0 20 -44 47 -97z"/>
<path d="M3009 3652 c-11 -25 -16 -48 -12 -52 12 -11 128 -47 223 -69 300 -71
697 -80 1019 -25 82 14 266 61 323 83 l27 10 -16 46 c-10 25 -21 45 -25 45 -5
0 -48 -9 -96 -19 -398 -89 -966 -87 -1334 3 l-90 23 -19 -45z"/>
<path d="M2405 3513 c-19 -64 -36 -98 -60 -123 -23 -24 -38 -54 -49 -97 -10
-39 -26 -72 -44 -90 -18 -18 -35 -53 -48 -96 -15 -53 -25 -72 -46 -85 -27 -16
-32 -26 -99 -215 -9 -27 -22 -40 -44 -49 -27 -9 -35 -20 -53 -76 -12 -36 -20
-67 -18 -69 2 -2 27 6 57 17 65 26 264 76 338 86 55 7 145 60 234 136 l38 33
-1 145 c0 155 -19 275 -59 381 -22 57 -90 171 -109 183 -7 4 -21 -29 -37 -81z"/>
<path d="M5095 3548 c-84 -125 -128 -301 -129 -517 l-1 -143 40 -34 c21 -19
69 -55 106 -80 58 -40 80 -49 180 -69 102 -20 284 -70 331 -90 15 -6 15 0 -5
62 -19 56 -29 71 -55 83 -27 13 -36 28 -73 133 -34 96 -47 120 -69 132 -21 11
-31 29 -49 90 -15 51 -31 84 -47 98 -17 15 -32 46 -44 91 -14 49 -28 77 -49
95 -21 19 -37 50 -57 114 -16 48 -32 87 -36 87 -4 0 -23 -24 -43 -52z"/>
<path d="M3310 3261 c-42 -13 -91 -41 -182 -104 -80 -55 -90 -59 -113 -49 -37
17 -62 75 -48 112 11 29 11 30 -21 30 -53 0 -79 -38 -146 -220 -67 -182 -80
-255 -60 -340 16 -66 51 -106 136 -156 123 -72 185 -164 228 -339 41 -163 117
-297 232 -409 55 -54 140 -114 185 -131 14 -5 16 2 12 62 -7 90 20 156 87 216
79 71 189 88 286 43 110 -51 182 -201 144 -300 -7 -18 -6 -26 2 -26 31 0 133
74 213 154 78 78 98 106 143 196 31 62 62 145 77 204 43 171 106 259 243 341
57 34 71 48 96 97 23 47 28 71 29 130 0 65 -7 92 -64 248 -69 191 -94 230
-148 230 -29 0 -30 -2 -21 -25 12 -31 -6 -80 -39 -109 -20 -19 -23 -19 -54 -3
-17 9 -67 42 -111 72 -98 68 -158 89 -239 83 -75 -5 -127 -29 -184 -83 -32
-31 -43 -37 -43 -24 0 10 -12 27 -26 38 -23 18 -41 21 -129 21 -88 0 -106 -3
-129 -21 -14 -11 -26 -30 -26 -41 0 -17 -8 -13 -50 26 -67 63 -120 86 -195 85
-33 0 -71 -4 -85 -8z m850 -161 c85 -57 151 -121 264 -253 123 -145 168 -188
237 -223 l52 -26 -54 -30 c-30 -17 -73 -46 -96 -65 -24 -19 -47 -32 -52 -29
-4 3 -16 33 -25 67 -64 227 -228 459 -391 553 -63 37 -60 33 -45 51 14 17 24
13 110 -45z m-626 41 c11 -18 -5 -36 -50 -61 -71 -37 -188 -153 -250 -246 -58
-87 -116 -212 -136 -293 -11 -47 -24 -71 -39 -71 -5 0 -23 13 -41 29 -18 15
-59 43 -92 61 l-58 33 49 23 c69 33 119 79 239 219 117 139 200 218 289 276
61 40 79 46 89 30z m29 -165 c38 -15 79 -61 108 -119 19 -36 19 -39 4 -33 -10
3 -38 11 -64 18 -61 15 -96 33 -115 60 -21 30 -20 44 4 68 24 24 22 24 63 6z
m508 4 c25 -14 26 -71 0 -94 -13 -12 -155 -65 -179 -66 -6 0 33 67 57 99 24
32 76 71 94 71 5 0 17 -5 28 -10z m-263 -338 c2 -115 1 -122 -17 -122 -26 0
-31 18 -31 125 0 105 5 127 29 123 14 -3 16 -22 19 -126z m-397 -189 c79 -13
167 -17 369 -17 202 0 290 4 369 17 58 9 108 17 112 17 17 0 70 -129 76 -182
7 -71 -1 -104 -32 -124 -22 -15 -28 -14 -78 4 -86 33 -192 42 -460 42 -263 -1
-373 -12 -437 -45 -64 -33 -116 24 -108 121 4 50 60 184 77 184 4 0 54 -8 112
-17z"/>
<path d="M3300 2368 c-21 -46 -27 -152 -10 -163 6 -3 39 5 74 19 140 56 226
70 426 70 200 0 288 -14 423 -69 71 -28 87 -22 87 34 0 53 -28 141 -47 148 -9
4 -84 -11 -167 -33 -144 -37 -158 -39 -306 -39 -148 0 -162 2 -293 38 -75 20
-144 37 -153 37 -8 0 -24 -19 -34 -42z"/>
<path d="M2610 2713 c-106 -12 -360 -57 -455 -82 -115 -30 -259 -82 -285 -104
-9 -6 -30 -43 -47 -82 -17 -38 -57 -125 -88 -193 -31 -68 -55 -125 -52 -128 3
-3 18 1 34 9 144 75 450 139 769 163 l91 6 43 191 c23 104 45 198 47 208 4 12
0 18 -8 17 -8 0 -30 -3 -49 -5z"/>
<path d="M4912 2699 c3 -8 25 -99 48 -204 24 -104 44 -192 46 -194 2 -2 73
-10 159 -17 309 -27 543 -78 688 -151 27 -13 50 -23 52 -21 7 7 -178 395 -196
410 -73 62 -459 159 -728 184 -61 6 -73 4 -69 -7z"/>
<path d="M3728 1926 c-56 -20 -85 -42 -113 -85 -55 -83 -40 -197 34 -264 136
-123 347 -28 345 154 -2 138 -143 241 -266 195z"/>
</g>
</svg>
