<?xml version="1.0" standalone="no"?>
<!DOCTYPE svg PUBLIC "-//W3C//DTD SVG 20010904//EN"
 "http://www.w3.org/TR/2001/REC-SVG-20010904/DTD/svg10.dtd">
<svg version="1.0" xmlns="http://www.w3.org/2000/svg"
 width="752.000000pt" height="752.000000pt" viewBox="0 0 752.000000 752.000000"
 preserveAspectRatio="xMidYMid meet">

<g transform="translate(0.000000,752.000000) scale(0.100000,-0.100000)"
fill="#ffffff" stroke="none">
<path d="M320 7483 c-138 -74 -210 -148 -284 -287 l-36 -68 0 -3308 0 -3308
42 -83 c74 -143 193 -245 358 -306 l75 -28 3220 0 c2632 0 3228 2 3265 13 25
7 83 32 130 55 150 73 262 209 316 382 18 58 19 158 19 3280 l0 3220 -24 65
c-63 173 -164 293 -310 368 l-83 42 -3311 -1 -3312 -1 -65 -35z m2927 -1015
l453 -453 455 455 455 455 215 -215 c118 -118 215 -219 215 -225 0 -6 -200
-210 -445 -455 -245 -245 -445 -449 -445 -455 0 -6 194 -204 430 -440 237
-236 430 -434 430 -440 0 -16 -413 -425 -430 -425 -16 0 -2220 2199 -2220
2215 0 10 420 435 430 435 2 0 208 -204 457 -452z m-1757 -1753 c245 -245 449
-445 455 -445 6 0 204 194 440 430 236 237 434 430 438 430 13 0 427 -419 427
-433 0 -14 -2200 -2217 -2215 -2217 -6 0 -107 97 -225 215 l-215 215 455 455
455 455 -455 455 -455 455 215 215 c118 118 219 215 225 215 6 0 210 -200 455
-445z m5100 230 l215 -215 -175 -176 c-96 -97 -298 -298 -447 -447 -150 -149
-273 -277 -273 -286 0 -9 200 -216 445 -461 245 -245 445 -449 445 -453 0 -16
-414 -427 -430 -427 -8 0 -215 200 -460 445 -245 245 -449 445 -454 445 -5 0
-202 -192 -437 -427 -236 -236 -433 -429 -439 -431 -11 -4 -431 419 -428 430
4 11 2211 2218 2218 2218 3 0 102 -97 220 -215z m-2653 -2677 c607 -607 1103
-1110 1103 -1118 0 -14 -414 -430 -428 -430 -4 0 -207 200 -452 445 -245 245
-452 445 -460 445 -8 0 -216 -201 -462 -447 l-448 -448 -215 215 c-118 118
-215 217 -215 220 0 3 200 205 445 450 245 245 445 452 445 460 0 8 -195 210
-432 447 l-433 433 215 215 c118 118 219 215 225 215 5 0 506 -496 1112 -1102z"/>
</g>
</svg>
