<?xml version="1.0" standalone="no"?>
<!DOCTYPE svg PUBLIC "-//W3C//DTD SVG 20010904//EN"
 "http://www.w3.org/TR/2001/REC-SVG-20010904/DTD/svg10.dtd">
<svg version="1.0" xmlns="http://www.w3.org/2000/svg"
 width="752.000000pt" height="752.000000pt" viewBox="0 0 752.000000 752.000000"
 preserveAspectRatio="xMidYMid meet">

<g transform="translate(0.000000,752.000000) scale(0.100000,-0.100000)"
fill="#fff" stroke="none">
<path d="M4546 5410 c-101 -16 -207 -49 -303 -95 -232 -109 -385 -268 -473
-491 -59 -147 -62 -181 -67 -641 l-5 -423 -909 0 -909 0 0 -830 0 -830 1170 0
1170 0 0 830 0 830 -95 0 -95 0 0 398 c0 362 2 406 19 474 60 232 224 380 491
443 204 47 453 -26 606 -179 76 -76 120 -150 150 -252 15 -50 18 -115 21 -436
l4 -378 160 0 159 0 0 373 c0 323 -3 384 -19 462 -66 320 -281 568 -593 685
-150 56 -349 81 -482 60z"/>
</g>
</svg>
